Droid Devanagari-Regular.ufo
<glyph name="percent" format="1">
  <advance width="1835"/>
  <unicode hex="0025"/>
  <outline>
    <contour>
      <point x="311" y="1483"/>
      <point x="227" y="1439"/>
      <point x="172" y="1360" type="curve" smooth="yes"/>
      <point x="117" y="1280"/>
      <point x="92" y="1167"/>
      <point x="92" y="1030" type="curve" smooth="yes"/>
      <point x="92" y="893"/>
      <point x="117" y="779"/>
      <point x="172" y="699" type="curve" smooth="yes"/>
      <point x="227" y="619"/>
      <point x="311" y="573"/>
      <point x="428" y="573" type="curve" smooth="yes"/>
      <point x="540" y="573"/>
      <point x="624" y="619"/>
      <point x="680" y="699" type="curve" smooth="yes"/>
      <point x="736" y="779"/>
      <point x="764" y="893"/>
      <point x="764" y="1030" type="curve" smooth="yes"/>
      <point x="764" y="1167"/>
      <point x="736" y="1280"/>
      <point x="681" y="1360" type="curve" smooth="yes"/>
      <point x="625" y="1439"/>
      <point x="542" y="1483"/>
      <point x="430" y="1483" type="curve" smooth="yes"/>
    </contour>
    <contour>
      <point x="1346" y="1462" type="line"/>
      <point x="1212" y="1462" type="line"/>
      <point x="481" y="0" type="line"/>
      <point x="616" y="0" type="line"/>
    </contour>
    <contour>
      <point x="486" y="1397"/>
      <point x="522" y="1364"/>
      <point x="546" y="1301" type="curve" smooth="yes"/>
      <point x="569" y="1237"/>
      <point x="578" y="1146"/>
      <point x="578" y="1030" type="curve" smooth="yes"/>
      <point x="578" y="913"/>
      <point x="569" y="819"/>
      <point x="546" y="755" type="curve" smooth="yes"/>
      <point x="522" y="691"/>
      <point x="484" y="657"/>
      <point x="428" y="657" type="curve" smooth="yes"/>
      <point x="372" y="657"/>
      <point x="334" y="691"/>
      <point x="310" y="755" type="curve" smooth="yes"/>
      <point x="286" y="819"/>
      <point x="276" y="913"/>
      <point x="276" y="1030" type="curve" smooth="yes"/>
      <point x="276" y="1146"/>
      <point x="286" y="1237"/>
      <point x="311" y="1301" type="curve" smooth="yes"/>
      <point x="335" y="1364"/>
      <point x="374" y="1397"/>
      <point x="430" y="1397" type="curve" smooth="yes"/>
    </contour>
    <contour>
      <point x="1290" y="889"/>
      <point x="1206" y="845"/>
      <point x="1151" y="766" type="curve" smooth="yes"/>
      <point x="1096" y="686"/>
      <point x="1071" y="573"/>
      <point x="1071" y="436" type="curve" smooth="yes"/>
      <point x="1071" y="299"/>
      <point x="1097" y="185"/>
      <point x="1151" y="105" type="curve" smooth="yes"/>
      <point x="1205" y="25"/>
      <point x="1290" y="-20"/>
      <point x="1407" y="-20" type="curve" smooth="yes"/>
      <point x="1519" y="-20"/>
      <point x="1603" y="25"/>
      <point x="1659" y="105" type="curve" smooth="yes"/>
      <point x="1715" y="185"/>
      <point x="1743" y="299"/>
      <point x="1743" y="436" type="curve" smooth="yes"/>
      <point x="1743" y="573"/>
      <point x="1715" y="686"/>
      <point x="1660" y="766" type="curve" smooth="yes"/>
      <point x="1604" y="845"/>
      <point x="1521" y="889"/>
      <point x="1409" y="889" type="curve" smooth="yes"/>
    </contour>
    <contour>
      <point x="1465" y="803"/>
      <point x="1501" y="770"/>
      <point x="1524" y="707" type="curve" smooth="yes"/>
      <point x="1547" y="643"/>
      <point x="1556" y="552"/>
      <point x="1556" y="436" type="curve" smooth="yes"/>
      <point x="1556" y="319"/>
      <point x="1547" y="225"/>
      <point x="1524" y="161" type="curve" smooth="yes"/>
      <point x="1501" y="97"/>
      <point x="1463" y="63"/>
      <point x="1407" y="63" type="curve" smooth="yes"/>
      <point x="1351" y="63"/>
      <point x="1313" y="97"/>
      <point x="1289" y="161" type="curve" smooth="yes"/>
      <point x="1265" y="225"/>
      <point x="1255" y="319"/>
      <point x="1255" y="436" type="curve" smooth="yes"/>
      <point x="1255" y="552"/>
      <point x="1265" y="643"/>
      <point x="1290" y="707" type="curve" smooth="yes"/>
      <point x="1314" y="770"/>
      <point x="1353" y="803"/>
      <point x="1409" y="803" type="curve" smooth="yes"/>
    </contour>
  </outline>
</glyph>
<glyph name="one" format="1">
  <advance width="1145"/>
  <unicode hex="0031"/>
  <outline>
    <contour>
      <point x="709" y="1470" type="line"/>
      <point x="578" y="1470" type="line"/>
      <point x="434" y="1364" type="line" smooth="yes"/>
      <point x="366" y="1315"/>
      <point x="312" y="1280"/>
      <point x="265" y="1256" type="curve" smooth="yes"/>
      <point x="217" y="1231"/>
      <point x="176" y="1217"/>
      <point x="135" y="1206" type="curve"/>
      <point x="135" y="1141"/>
      <point x="178" y="1096"/>
      <point x="238" y="1096" type="curve" smooth="yes"/>
      <point x="278" y="1096"/>
      <point x="318" y="1118"/>
      <point x="361" y="1155" type="curve" smooth="yes"/>
      <point x="404" y="1192"/>
      <point x="450" y="1245"/>
      <point x="502" y="1309" type="curve"/>
      <point x="502" y="233" type="line" smooth="yes"/>
      <point x="502" y="169"/>
      <point x="483" y="132"/>
      <point x="453" y="112" type="curve" smooth="yes"/>
      <point x="423" y="91"/>
      <point x="381" y="86"/>
      <point x="334" y="86" type="curve" smooth="yes"/>
      <point x="197" y="86" type="line"/>
      <point x="197" y="0" type="line"/>
      <point x="977" y="0" type="line"/>
      <point x="977" y="86" type="line"/>
      <point x="877" y="86" type="line" smooth="yes"/>
      <point x="830" y="86"/>
      <point x="789" y="91"/>
      <point x="758" y="112" type="curve" smooth="yes"/>
      <point x="727" y="132"/>
      <point x="709" y="169"/>
      <point x="709" y="233" type="curve" smooth="yes"/>
    </contour>
  </outline>
</glyph>
<glyph name="two" format="1">
  <advance width="1145"/>
  <unicode hex="0032"/>
  <outline>
    <contour>
      <point x="396" y="1483"/>
      <point x="296" y="1454"/>
      <point x="229" y="1405" type="curve" smooth="yes"/>
      <point x="161" y="1356"/>
      <point x="127" y="1287"/>
      <point x="127" y="1208" type="curve" smooth="yes"/>
      <point x="127" y="1156"/>
      <point x="146" y="1123"/>
      <point x="178" y="1103" type="curve" smooth="yes"/>
      <point x="210" y="1082"/>
      <point x="254" y="1075"/>
      <point x="303" y="1075" type="curve"/>
      <point x="303" y="1156"/>
      <point x="313" y="1232"/>
      <point x="346" y="1288" type="curve" smooth="yes"/>
      <point x="379" y="1344"/>
      <point x="435" y="1380"/>
      <point x="528" y="1380" type="curve" smooth="yes"/>
      <point x="600" y="1380"/>
      <point x="653" y="1355"/>
      <point x="687" y="1309" type="curve" smooth="yes"/>
      <point x="721" y="1263"/>
      <point x="737" y="1199"/>
      <point x="737" y="1120" type="curve" smooth="yes"/>
      <point x="737" y="1027"/>
      <point x="718" y="945"/>
      <point x="673" y="857" type="curve" smooth="yes"/>
      <point x="628" y="768"/>
      <point x="555" y="672"/>
      <point x="446" y="545" type="curve" smooth="yes"/>
      <point x="104" y="150" type="line"/>
      <point x="104" y="0" type="line"/>
      <point x="985" y="0" type="line"/>
      <point x="995" y="354" type="line"/>
      <point x="909" y="354" type="line"/>
      <point x="901" y="317" type="line" smooth="yes"/>
      <point x="892" y="277"/>
      <point x="879" y="239"/>
      <point x="854" y="211" type="curve" smooth="yes"/>
      <point x="829" y="183"/>
      <point x="790" y="164"/>
      <point x="729" y="164" type="curve" smooth="yes"/>
      <point x="256" y="164" type="line"/>
      <point x="602" y="547" type="line" smooth="yes"/>
      <point x="710" y="666"/>
      <point x="795" y="766"/>
      <point x="854" y="862" type="curve" smooth="yes"/>
      <point x="913" y="957"/>
      <point x="944" y="1045"/>
      <point x="944" y="1141" type="curve" smooth="yes"/>
      <point x="944" y="1245"/>
      <point x="905" y="1330"/>
      <point x="833" y="1390" type="curve" smooth="yes"/>
      <point x="761" y="1449"/>
      <point x="657" y="1483"/>
      <point x="528" y="1483" type="curve" smooth="yes"/>
    </contour>
  </outline>
</glyph>
<glyph name="three" format="1">
  <advance width="1145"/>
  <unicode hex="0033"/>
  <outline>
    <contour>
      <point x="413" y="1483"/>
      <point x="313" y="1454"/>
      <point x="245" y="1405" type="curve" smooth="yes"/>
      <point x="177" y="1356"/>
      <point x="143" y="1287"/>
      <point x="143" y="1208" type="curve" smooth="yes"/>
      <point x="143" y="1156"/>
      <point x="162" y="1123"/>
      <point x="194" y="1103" type="curve" smooth="yes"/>
      <point x="226" y="1082"/>
      <point x="270" y="1075"/>
      <point x="319" y="1075" type="curve"/>
      <point x="319" y="1156"/>
      <point x="329" y="1232"/>
      <point x="362" y="1288" type="curve" smooth="yes"/>
      <point x="395" y="1344"/>
      <point x="452" y="1380"/>
      <point x="545" y="1380" type="curve" smooth="yes"/>
      <point x="624" y="1380"/>
      <point x="678" y="1357"/>
      <point x="714" y="1313" type="curve" smooth="yes"/>
      <point x="749" y="1269"/>
      <point x="764" y="1206"/>
      <point x="764" y="1126" type="curve" smooth="yes"/>
      <point x="764" y="1029"/>
      <point x="729" y="950"/>
      <point x="671" y="895" type="curve" smooth="yes"/>
      <point x="613" y="840"/>
      <point x="533" y="809"/>
      <point x="442" y="809" type="curve" smooth="yes"/>
      <point x="377" y="809" type="line"/>
      <point x="377" y="705" type="line"/>
      <point x="442" y="705" type="line" smooth="yes"/>
      <point x="557" y="705"/>
      <point x="650" y="676"/>
      <point x="714" y="627" type="curve" smooth="yes"/>
      <point x="778" y="578"/>
      <point x="813" y="507"/>
      <point x="813" y="420" type="curve" smooth="yes"/>
      <point x="813" y="297"/>
      <point x="777" y="215"/>
      <point x="721" y="163" type="curve" smooth="yes"/>
      <point x="665" y="111"/>
      <point x="589" y="90"/>
      <point x="508" y="90" type="curve" smooth="yes"/>
      <point x="425" y="90"/>
      <point x="360" y="116"/>
      <point x="316" y="160" type="curve" smooth="yes"/>
      <point x="272" y="204"/>
      <point x="248" y="266"/>
      <point x="248" y="338" type="curve"/>
      <point x="169" y="338"/>
      <point x="119" y="290"/>
      <point x="119" y="207" type="curve" smooth="yes"/>
      <point x="119" y="147"/>
      <point x="148" y="89"/>
      <point x="212" y="48" type="curve" smooth="yes"/>
      <point x="275" y="7"/>
      <point x="371" y="-20"/>
      <point x="506" y="-20" type="curve" smooth="yes"/>
      <point x="585" y="-20"/>
      <point x="668" y="-8"/>
      <point x="745" y="20" type="curve" smooth="yes"/>
      <point x="822" y="48"/>
      <point x="892" y="93"/>
      <point x="944" y="158" type="curve" smooth="yes"/>
      <point x="995" y="222"/>
      <point x="1026" y="309"/>
      <point x="1026" y="418" type="curve" smooth="yes"/>
      <point x="1026" y="509"/>
      <point x="1001" y="576"/>
      <point x="962" y="628" type="curve" smooth="yes"/>
      <point x="922" y="680"/>
      <point x="869" y="715"/>
      <point x="813" y="739" type="curve" smooth="yes"/>
      <point x="757" y="763"/>
      <point x="698" y="775"/>
      <point x="647" y="780" type="curve"/>
      <point x="742" y="803"/>
      <point x="823" y="851"/>
      <point x="882" y="917" type="curve" smooth="yes"/>
      <point x="941" y="983"/>
      <point x="975" y="1065"/>
      <point x="975" y="1157" type="curve" smooth="yes"/>
      <point x="975" y="1261"/>
      <point x="932" y="1342"/>
      <point x="857" y="1398" type="curve" smooth="yes"/>
      <point x="781" y="1453"/>
      <point x="674" y="1483"/>
      <point x="545" y="1483" type="curve" smooth="yes"/>
    </contour>
  </outline>
</glyph>
<glyph name="six" format="1">
  <advance width="1145"/>
  <unicode hex="0036"/>
  <outline>
    <contour>
      <point x="539" y="1483"/>
      <point x="439" y="1444"/>
      <point x="360" y="1377" type="curve" smooth="yes"/>
      <point x="280" y="1309"/>
      <point x="222" y="1214"/>
      <point x="183" y="1103" type="curve" smooth="yes"/>
      <point x="144" y="992"/>
      <point x="125" y="866"/>
      <point x="125" y="737" type="curve" smooth="yes"/>
      <point x="125" y="468"/>
      <point x="176" y="279"/>
      <point x="261" y="157" type="curve" smooth="yes"/>
      <point x="345" y="35"/>
      <point x="464" y="-20"/>
      <point x="600" y="-20" type="curve" smooth="yes"/>
      <point x="740" y="-20"/>
      <point x="849" y="31"/>
      <point x="925" y="117" type="curve" smooth="yes"/>
      <point x="1000" y="203"/>
      <point x="1040" y="325"/>
      <point x="1040" y="469" type="curve" smooth="yes"/>
      <point x="1040" y="600"/>
      <point x="1000" y="705"/>
      <point x="929" y="777" type="curve" smooth="yes"/>
      <point x="857" y="849"/>
      <point x="754" y="889"/>
      <point x="629" y="889" type="curve" smooth="yes"/>
      <point x="562" y="889"/>
      <point x="506" y="876"/>
      <point x="458" y="857" type="curve" smooth="yes"/>
      <point x="410" y="837"/>
      <point x="369" y="810"/>
      <point x="336" y="782" type="curve"/>
      <point x="351" y="1181"/>
      <point x="454" y="1384"/>
      <point x="659" y="1384" type="curve" smooth="yes"/>
      <point x="726" y="1384"/>
      <point x="770" y="1358"/>
      <point x="799" y="1315" type="curve" smooth="yes"/>
      <point x="828" y="1271"/>
      <point x="840" y="1212"/>
      <point x="840" y="1145" type="curve"/>
      <point x="943" y="1145"/>
      <point x="997" y="1189"/>
      <point x="997" y="1268" type="curve" smooth="yes"/>
      <point x="997" y="1323"/>
      <point x="970" y="1377"/>
      <point x="914" y="1417" type="curve" smooth="yes"/>
      <point x="858" y="1457"/>
      <point x="774" y="1483"/>
      <point x="659" y="1483" type="curve" smooth="yes"/>
    </contour>
    <contour>
      <point x="745" y="784"/>
      <point x="831" y="682"/>
      <point x="831" y="449" type="curve" smooth="yes"/>
      <point x="831" y="201"/>
      <point x="753" y="92"/>
      <point x="606" y="92" type="curve" smooth="yes"/>
      <point x="525" y="92"/>
      <point x="457" y="133"/>
      <point x="410" y="225" type="curve" smooth="yes"/>
      <point x="363" y="317"/>
      <point x="337" y="461"/>
      <point x="334" y="666" type="curve"/>
      <point x="362" y="694"/>
      <point x="398" y="725"/>
      <point x="442" y="747" type="curve" smooth="yes"/>
      <point x="485" y="769"/>
      <point x="535" y="784"/>
      <point x="588" y="784" type="curve" smooth="yes"/>
    </contour>
  </outline>
</glyph>
<glyph name="colon" format="1">
  <advance width="588"/>
  <unicode hex="003A"/>
  <outline>
    <contour>
      <point x="259" y="1108"/>
      <point x="227" y="1099"/>
      <point x="204" y="1078" type="curve" smooth="yes"/>
      <point x="180" y="1057"/>
      <point x="166" y="1022"/>
      <point x="166" y="969" type="curve" smooth="yes"/>
      <point x="166" y="917"/>
      <point x="180" y="882"/>
      <point x="204" y="860" type="curve" smooth="yes"/>
      <point x="227" y="838"/>
      <point x="259" y="829"/>
      <point x="295" y="829" type="curve" smooth="yes"/>
      <point x="330" y="829"/>
      <point x="362" y="838"/>
      <point x="386" y="860" type="curve" smooth="yes"/>
      <point x="409" y="882"/>
      <point x="424" y="917"/>
      <point x="424" y="969" type="curve" smooth="yes"/>
      <point x="424" y="1022"/>
      <point x="409" y="1057"/>
      <point x="386" y="1078" type="curve" smooth="yes"/>
      <point x="362" y="1099"/>
      <point x="330" y="1108"/>
      <point x="295" y="1108" type="curve" smooth="yes"/>
    </contour>
    <contour>
      <point x="259" y="264"/>
      <point x="227" y="255"/>
      <point x="204" y="234" type="curve" smooth="yes"/>
      <point x="180" y="213"/>
      <point x="166" y="178"/>
      <point x="166" y="125" type="curve" smooth="yes"/>
      <point x="166" y="73"/>
      <point x="180" y="37"/>
      <point x="204" y="16" type="curve" smooth="yes"/>
      <point x="227" y="-5"/>
      <point x="259" y="-14"/>
      <point x="295" y="-14" type="curve" smooth="yes"/>
      <point x="330" y="-14"/>
      <point x="362" y="-5"/>
      <point x="386" y="16" type="curve" smooth="yes"/>
      <point x="409" y="37"/>
      <point x="424" y="73"/>
      <point x="424" y="125" type="curve" smooth="yes"/>
      <point x="424" y="178"/>
      <point x="409" y="213"/>
      <point x="386" y="234" type="curve" smooth="yes"/>
      <point x="362" y="255"/>
      <point x="330" y="264"/>
      <point x="295" y="264" type="curve" smooth="yes"/>
    </contour>
  </outline>
</glyph>
<glyph name="question" format="1">
  <advance width="1024"/>
  <unicode hex="003F"/>
  <outline>
    <contour>
      <point x="339" y="1483"/>
      <point x="244" y="1458"/>
      <point x="181" y="1417" type="curve" smooth="yes"/>
      <point x="117" y="1376"/>
      <point x="88" y="1318"/>
      <point x="88" y="1253" type="curve" smooth="yes"/>
      <point x="88" y="1209"/>
      <point x="107" y="1176"/>
      <point x="137" y="1154" type="curve" smooth="yes"/>
      <point x="167" y="1132"/>
      <point x="209" y="1120"/>
      <point x="258" y="1120" type="curve"/>
      <point x="258" y="1191"/>
      <point x="273" y="1256"/>
      <point x="309" y="1304" type="curve" smooth="yes"/>
      <point x="345" y="1352"/>
      <point x="402" y="1382"/>
      <point x="487" y="1382" type="curve" smooth="yes"/>
      <point x="566" y="1382"/>
      <point x="622" y="1358"/>
      <point x="658" y="1318" type="curve" smooth="yes"/>
      <point x="694" y="1277"/>
      <point x="711" y="1218"/>
      <point x="711" y="1147" type="curve" smooth="yes"/>
      <point x="711" y="1066"/>
      <point x="692" y="984"/>
      <point x="644" y="910" type="curve" smooth="yes"/>
      <point x="595" y="836"/>
      <point x="516" y="771"/>
      <point x="397" y="723" type="curve"/>
      <point x="397" y="412" type="line"/>
      <point x="522" y="412" type="line"/>
      <point x="522" y="643" type="line"/>
      <point x="649" y="695"/>
      <point x="748" y="757"/>
      <point x="816" y="833" type="curve" smooth="yes"/>
      <point x="884" y="909"/>
      <point x="920" y="1000"/>
      <point x="920" y="1112" type="curve" smooth="yes"/>
      <point x="920" y="1229"/>
      <point x="872" y="1322"/>
      <point x="792" y="1386" type="curve" smooth="yes"/>
      <point x="712" y="1449"/>
      <point x="600" y="1483"/>
      <point x="471" y="1483" type="curve" smooth="yes"/>
    </contour>
    <contour>
      <point x="421" y="264"/>
      <point x="389" y="255"/>
      <point x="366" y="234" type="curve" smooth="yes"/>
      <point x="342" y="213"/>
      <point x="328" y="178"/>
      <point x="328" y="125" type="curve" smooth="yes"/>
      <point x="328" y="73"/>
      <point x="342" y="37"/>
      <point x="366" y="16" type="curve" smooth="yes"/>
      <point x="389" y="-5"/>
      <point x="421" y="-14"/>
      <point x="457" y="-14" type="curve" smooth="yes"/>
      <point x="492" y="-14"/>
      <point x="524" y="-5"/>
      <point x="548" y="16" type="curve" smooth="yes"/>
      <point x="571" y="37"/>
      <point x="586" y="73"/>
      <point x="586" y="125" type="curve" smooth="yes"/>
      <point x="586" y="178"/>
      <point x="571" y="213"/>
      <point x="548" y="234" type="curve" smooth="yes"/>
      <point x="524" y="255"/>
      <point x="492" y="264"/>
      <point x="457" y="264" type="curve" smooth="yes"/>
    </contour>
  </outline>
</glyph>
<glyph name="at" format="1">
  <advance width="1886"/>
  <unicode hex="0040"/>
  <outline>
    <contour>
      <point x="898" y="1462"/>
      <point x="731" y="1414"/>
      <point x="590" y="1328" type="curve" smooth="yes"/>
      <point x="449" y="1242"/>
      <point x="335" y="1118"/>
      <point x="256" y="967" type="curve" smooth="yes"/>
      <point x="176" y="816"/>
      <point x="133" y="639"/>
      <point x="133" y="446" type="curve" smooth="yes"/>
      <point x="133" y="198"/>
      <point x="212" y="15"/>
      <point x="345" y="-108" type="curve" smooth="yes"/>
      <point x="477" y="-231"/>
      <point x="665" y="-291"/>
      <point x="885" y="-291" type="curve" smooth="yes"/>
      <point x="1012" y="-291"/>
      <point x="1125" y="-265"/>
      <point x="1223" y="-227" type="curve" smooth="yes"/>
      <point x="1321" y="-189"/>
      <point x="1405" y="-139"/>
      <point x="1473" y="-88" type="curve"/>
      <point x="1425" y="-14" type="line"/>
      <point x="1366" y="-57"/>
      <point x="1292" y="-99"/>
      <point x="1205" y="-131" type="curve" smooth="yes"/>
      <point x="1117" y="-163"/>
      <point x="1017" y="-184"/>
      <point x="905" y="-184" type="curve" smooth="yes"/>
      <point x="740" y="-184"/>
      <point x="588" y="-139"/>
      <point x="477" y="-37" type="curve" smooth="yes"/>
      <point x="365" y="65"/>
      <point x="295" y="223"/>
      <point x="295" y="451" type="curve" smooth="yes"/>
      <point x="295" y="638"/>
      <point x="337" y="802"/>
      <point x="408" y="936" type="curve" smooth="yes"/>
      <point x="479" y="1070"/>
      <point x="579" y="1175"/>
      <point x="694" y="1248" type="curve" smooth="yes"/>
      <point x="809" y="1320"/>
      <point x="940" y="1358"/>
      <point x="1073" y="1358" type="curve" smooth="yes"/>
      <point x="1244" y="1358"/>
      <point x="1389" y="1310"/>
      <point x="1491" y="1218" type="curve" smooth="yes"/>
      <point x="1593" y="1125"/>
      <point x="1653" y="988"/>
      <point x="1653" y="809" type="curve" smooth="yes"/>
      <point x="1653" y="636"/>
      <point x="1617" y="500"/>
      <point x="1566" y="408" type="curve" smooth="yes"/>
      <point x="1515" y="315"/>
      <point x="1449" y="266"/>
      <point x="1389" y="266" type="curve" smooth="yes"/>
      <point x="1356" y="266"/>
      <point x="1325" y="276"/>
      <point x="1302" y="300" type="curve" smooth="yes"/>
      <point x="1279" y="323"/>
      <point x="1264" y="358"/>
      <point x="1264" y="406" type="curve" smooth="yes"/>
      <point x="1264" y="434"/>
      <point x="1267" y="468"/>
      <point x="1271" y="495" type="curve"/>
      <point x="1274" y="511"/>
      <point x="1276" y="527"/>
      <point x="1278" y="543" type="curve"/>
      <point x="1382" y="1065" type="line"/>
      <point x="1333" y="1065" type="line"/>
      <point x="1251" y="1022" type="line"/>
      <point x="1210" y="1055"/>
      <point x="1147" y="1083"/>
      <point x="1059" y="1083" type="curve" smooth="yes"/>
      <point x="934" y="1083"/>
      <point x="833" y="1043"/>
      <point x="756" y="983" type="curve" smooth="yes"/>
      <point x="679" y="922"/>
      <point x="624" y="839"/>
      <point x="589" y="755" type="curve" smooth="yes"/>
      <point x="553" y="670"/>
      <point x="537" y="581"/>
      <point x="537" y="508" type="curve" smooth="yes"/>
      <point x="537" y="388"/>
      <point x="574" y="300"/>
      <point x="631" y="243" type="curve" smooth="yes"/>
      <point x="687" y="186"/>
      <point x="765" y="158"/>
      <point x="848" y="158" type="curve" smooth="yes"/>
      <point x="917" y="158"/>
      <point x="972" y="178"/>
      <point x="1017" y="211" type="curve" smooth="yes"/>
      <point x="1061" y="244"/>
      <point x="1096" y="291"/>
      <point x="1124" y="344" type="curve"/>
      <point x="1135" y="344" type="line"/>
      <point x="1174" y="227"/>
      <point x="1255" y="158"/>
      <point x="1376" y="158" type="curve" smooth="yes"/>
      <point x="1471" y="158"/>
      <point x="1571" y="220"/>
      <point x="1648" y="332" type="curve" smooth="yes"/>
      <point x="1725" y="444"/>
      <point x="1778" y="606"/>
      <point x="1778" y="803" type="curve" smooth="yes"/>
      <point x="1778" y="988"/>
      <point x="1720" y="1154"/>
      <point x="1604" y="1272" type="curve" smooth="yes"/>
      <point x="1488" y="1390"/>
      <point x="1314" y="1462"/>
      <point x="1085" y="1462" type="curve" smooth="yes"/>
    </contour>
    <contour>
      <point x="1116" y="999"/>
      <point x="1165" y="977"/>
      <point x="1182" y="938" type="curve"/>
      <point x="1104" y="522" type="line" smooth="yes"/>
      <point x="1092" y="459"/>
      <point x="1072" y="395"/>
      <point x="1037" y="347" type="curve" smooth="yes"/>
      <point x="1002" y="299"/>
      <point x="952" y="266"/>
      <point x="883" y="266" type="curve" smooth="yes"/>
      <point x="791" y="266"/>
      <point x="727" y="335"/>
      <point x="727" y="479" type="curve" smooth="yes"/>
      <point x="727" y="538"/>
      <point x="737" y="614"/>
      <point x="761" y="691" type="curve" smooth="yes"/>
      <point x="784" y="768"/>
      <point x="820" y="846"/>
      <point x="870" y="903" type="curve" smooth="yes"/>
      <point x="920" y="960"/>
      <point x="986" y="999"/>
      <point x="1067" y="999" type="curve" smooth="yes"/>
    </contour>
  </outline>
</glyph>
<glyph name="candrabinduinverteddeva" format="1">
  <advance width="0"/>
  <unicode hex="0900"/>
  <outline>
    <contour>
      <point x="-120" y="666" type="move" name="_class0"/>
    </contour>
  </outline>
</glyph>
<glyph name="candrabindudeva" format="1">
  <advance width="0"/>
  <unicode hex="0901"/>
  <outline>
    <contour>
      <point x="-405" y="1954"/>
      <point x="-449" y="1910"/>
      <point x="-449" y="1857" type="curve" smooth="yes"/>
      <point x="-449" y="1803"/>
      <point x="-405" y="1759"/>
      <point x="-352" y="1759" type="curve" smooth="yes"/>
      <point x="-298" y="1759"/>
      <point x="-254" y="1803"/>
      <point x="-254" y="1857" type="curve" smooth="yes"/>
      <point x="-254" y="1910"/>
      <point x="-298" y="1954"/>
      <point x="-352" y="1954" type="curve" smooth="yes"/>
    </contour>
    <component base="ecandrasigndeva"/>
    <contour>
      <point x="-120" y="666" type="move" name="_class0"/>
    </contour>
  </outline>
</glyph>
<glyph name="aadeva" format="1">
  <advance width="2033"/>
  <unicode hex="0906"/>
  <outline>
    <contour>
      <point x="2033" y="1330" type="line"/>
      <point x="1452" y="1330" type="line"/>
      <point x="1446" y="1321" type="line"/>
      <point x="1502" y="1197" type="line"/>
      <point x="1665" y="1197" type="line"/>
      <point x="1665" y="19" type="line"/>
      <point x="1816" y="-19" type="line"/>
      <point x="1825" y="-12" type="line"/>
      <point x="1825" y="1197" type="line"/>
      <point x="2083" y="1197" type="line"/>
      <point x="2089" y="1206" type="line"/>
    </contour>
    <component base="adeva"/>
  </outline>
</glyph>
<glyph name="ideva" format="1">
  <advance width="1006"/>
  <unicode hex="0907"/>
  <outline>
    <contour>
      <point x="1006" y="1330" type="line"/>
      <point x="-50" y="1330" type="line"/>
      <point x="-56" y="1321" type="line"/>
      <point x="0" y="1197" type="line"/>
      <point x="648" y="1197" type="line"/>
      <point x="648" y="1034" type="line" smooth="yes"/>
      <point x="648" y="1029"/>
      <point x="645" y="1026"/>
      <point x="640" y="1026" type="curve" smooth="yes"/>
      <point x="307" y="1026" type="line" smooth="yes"/>
      <point x="175" y="1026"/>
      <point x="114" y="961"/>
      <point x="114" y="877" type="curve" smooth="yes"/>
      <point x="114" y="740"/>
      <point x="274" y="532"/>
      <point x="457" y="532" type="curve" smooth="yes"/>
      <point x="516" y="532"/>
      <point x="667" y="554"/>
      <point x="713" y="554" type="curve" smooth="yes"/>
      <point x="765" y="554"/>
      <point x="795" y="525"/>
      <point x="795" y="481" type="curve" smooth="yes"/>
      <point x="795" y="386"/>
      <point x="654" y="310"/>
      <point x="420" y="311" type="curve"/>
      <point x="380" y="396"/>
      <point x="334" y="447"/>
      <point x="266" y="447" type="curve" smooth="yes"/>
      <point x="214" y="447"/>
      <point x="155" y="416"/>
      <point x="155" y="341" type="curve" smooth="yes"/>
      <point x="155" y="244"/>
      <point x="254" y="155"/>
      <point x="426" y="149" type="curve"/>
      <point x="494" y="-61"/>
      <point x="601" y="-143"/>
      <point x="701" y="-143" type="curve" smooth="yes"/>
      <point x="769" y="-143"/>
      <point x="824" y="-105"/>
      <point x="824" y="-42" type="curve" smooth="yes"/>
      <point x="824" y="-20"/>
      <point x="817" y="5"/>
      <point x="802" y="33" type="curve"/>
      <point x="772" y="23"/>
      <point x="746" y="17"/>
      <point x="704" y="17" type="curve" smooth="yes"/>
      <point x="609" y="17"/>
      <point x="548" y="48"/>
      <point x="493" y="149" type="curve"/>
      <point x="729" y="159"/>
      <point x="886" y="276"/>
      <point x="886" y="421" type="curve" smooth="yes"/>
      <point x="886" y="538"/>
      <point x="784" y="721"/>
      <point x="630" y="721" type="curve" smooth="yes"/>
      <point x="566" y="721"/>
      <point x="430" y="690"/>
      <point x="368" y="690" type="curve" smooth="yes"/>
      <point x="299" y="690"/>
      <point x="256" y="729"/>
      <point x="256" y="790" type="curve" smooth="yes"/>
      <point x="256" y="845"/>
      <point x="291" y="885"/>
      <point x="389" y="885" type="curve" smooth="yes"/>
      <point x="794" y="885" type="line"/>
      <point x="802" y="893" type="line"/>
      <point x="802" y="1197" type="line"/>
      <point x="1056" y="1197" type="line"/>
      <point x="1062" y="1206" type="line"/>
    </contour>
  </outline>
</glyph>
<glyph name="udeva" format="1">
  <advance width="1078"/>
  <unicode hex="0909"/>
  <outline>
    <contour>
      <point x="1078" y="1330" type="line"/>
      <point x="-50" y="1330" type="line"/>
      <point x="-56" y="1321" type="line"/>
      <point x="0" y="1197" type="line"/>
      <point x="574" y="1197" type="line" smooth="yes"/>
      <point x="695" y="1197"/>
      <point x="751" y="1110"/>
      <point x="751" y="1031" type="curve" smooth="yes"/>
      <point x="751" y="908"/>
      <point x="616" y="830"/>
      <point x="375" y="828" type="curve"/>
      <point x="369" y="819" type="line"/>
      <point x="437" y="655" type="line"/>
      <point x="524" y="655"/>
      <point x="600" y="666"/>
      <point x="663" y="687" type="curve"/>
      <point x="760" y="650"/>
      <point x="829" y="574"/>
      <point x="829" y="463" type="curve" smooth="yes"/>
      <point x="829" y="323"/>
      <point x="720" y="232"/>
      <point x="570" y="232" type="curve" smooth="yes"/>
      <point x="355" y="232"/>
      <point x="187" y="421"/>
      <point x="116" y="806" type="curve"/>
      <point x="68" y="801"/>
      <point x="49" y="770"/>
      <point x="49" y="710" type="curve" smooth="yes"/>
      <point x="49" y="527"/>
      <point x="222" y="62"/>
      <point x="615" y="62" type="curve" smooth="yes"/>
      <point x="833" y="62"/>
      <point x="967" y="206"/>
      <point x="967" y="393" type="curve" smooth="yes"/>
      <point x="967" y="535"/>
      <point x="889" y="658"/>
      <point x="774" y="740" type="curve"/>
      <point x="852" y="795"/>
      <point x="890" y="869"/>
      <point x="890" y="953" type="curve" smooth="yes"/>
      <point x="890" y="1030"/>
      <point x="859" y="1109"/>
      <point x="792" y="1187" type="curve"/>
      <point x="796" y="1197" type="line"/>
      <point x="1128" y="1197" type="line"/>
      <point x="1134" y="1206" type="line"/>
    </contour>
  </outline>
</glyph>
<glyph name="uudeva" format="1">
  <advance width="1481"/>
  <unicode hex="090A"/>
  <outline>
    <contour>
      <point x="1481" y="1330" type="line"/>
      <point x="950" y="1330" type="line"/>
      <point x="944" y="1321" type="line"/>
      <point x="1000" y="1197" type="line"/>
      <point x="1531" y="1197" type="line"/>
      <point x="1537" y="1206" type="line"/>
    </contour>
    <contour>
      <point x="993" y="829"/>
      <point x="913" y="763"/>
      <point x="788" y="622" type="curve"/>
      <point x="912" y="509" type="line"/>
      <point x="1002" y="638"/>
      <point x="1082" y="703"/>
      <point x="1162" y="703" type="curve" smooth="yes"/>
      <point x="1248" y="703"/>
      <point x="1299" y="629"/>
      <point x="1299" y="520" type="curve" smooth="yes"/>
      <point x="1299" y="386"/>
      <point x="1220" y="269"/>
      <point x="1098" y="213" type="curve"/>
      <point x="1129" y="155"/>
      <point x="1184" y="116"/>
      <point x="1248" y="116" type="curve" smooth="yes"/>
      <point x="1362" y="116"/>
      <point x="1440" y="256"/>
      <point x="1440" y="408" type="curve" smooth="yes"/>
      <point x="1440" y="635"/>
      <point x="1281" y="829"/>
      <point x="1099" y="829" type="curve" smooth="yes"/>
    </contour>
    <component base="udeva"/>
  </outline>
</glyph>
<glyph name="edeva" format="1">
  <advance width="1126"/>
  <unicode hex="090F"/>
  <outline>
    <contour>
      <point x="1126" y="1330" type="line"/>
      <point x="-50" y="1330" type="line"/>
      <point x="-56" y="1321" type="line"/>
      <point x="0" y="1197" type="line"/>
      <point x="123" y="1197" type="line"/>
      <point x="123" y="787" type="line" smooth="yes"/>
      <point x="123" y="526"/>
      <point x="276" y="454"/>
      <point x="686" y="265" type="curve" smooth="yes"/>
      <point x="889" y="176"/>
      <point x="909" y="149"/>
      <point x="909" y="95" type="curve" smooth="yes"/>
      <point x="909" y="39"/>
      <point x="868" y="-14"/>
      <point x="779" y="-59" type="curve"/>
      <point x="808" y="-105"/>
      <point x="856" y="-134"/>
      <point x="915" y="-134" type="curve" smooth="yes"/>
      <point x="1001" y="-134"/>
      <point x="1066" y="-73"/>
      <point x="1066" y="39" type="curve" smooth="yes"/>
      <point x="1066" y="146"/>
      <point x="991" y="243"/>
      <point x="642" y="402" type="curve" smooth="yes"/>
      <point x="383" y="523"/>
      <point x="283" y="546"/>
      <point x="283" y="671" type="curve" smooth="yes"/>
      <point x="284" y="1197" type="line"/>
      <point x="748" y="1197" type="line"/>
      <point x="748" y="781" type="line" smooth="yes"/>
      <point x="748" y="711"/>
      <point x="712" y="649"/>
      <point x="640" y="621" type="curve"/>
      <point x="682" y="576"/>
      <point x="731" y="544"/>
      <point x="785" y="544" type="curve" smooth="yes"/>
      <point x="860" y="544"/>
      <point x="908" y="607"/>
      <point x="908" y="707" type="curve" smooth="yes"/>
      <point x="908" y="1197" type="line"/>
      <point x="1176" y="1197" type="line"/>
      <point x="1182" y="1206" type="line"/>
    </contour>
  </outline>
</glyph>
<glyph name="aideva" format="1">
  <advance width="1126"/>
  <unicode hex="0910"/>
  <outline>
    <contour>
      <point x="66" y="1932"/>
      <point x="10" y="1861"/>
      <point x="10" y="1793" type="curve" smooth="yes"/>
      <point x="10" y="1735"/>
      <point x="52" y="1680"/>
      <point x="129" y="1658" type="curve"/>
      <point x="158" y="1712"/>
      <point x="208" y="1751"/>
      <point x="283" y="1751" type="curve" smooth="yes"/>
      <point x="391" y="1751"/>
      <point x="486" y="1682"/>
      <point x="810" y="1270" type="curve"/>
      <point x="895" y="1309" type="line"/>
      <point x="479" y="1859"/>
      <point x="322" y="1932"/>
      <point x="193" y="1932" type="curve" smooth="yes"/>
    </contour>
    <component base="edeva"/>
  </outline>
</glyph>
<glyph name="audeva" format="1">
  <advance width="2033"/>
  <unicode hex="0914"/>
  <outline>
    <contour>
      <point x="1267" y="2032"/>
      <point x="1218" y="1973"/>
      <point x="1218" y="1913" type="curve" smooth="yes"/>
      <point x="1218" y="1859"/>
      <point x="1259" y="1822"/>
      <point x="1311" y="1801" type="curve"/>
      <point x="1336" y="1837"/>
      <point x="1374" y="1864"/>
      <point x="1418" y="1864" type="curve" smooth="yes"/>
      <point x="1488.82" y="1864"/>
      <point x="1547.1" y="1820.9"/>
      <point x="1676.79" y="1437.06" type="curve"/>
      <point x="1471.54" y="1609.83"/>
      <point x="1238.51" y="1742"/>
      <point x="1101" y="1742" type="curve" smooth="yes"/>
      <point x="1018" y="1742"/>
      <point x="944" y="1693"/>
      <point x="944" y="1619" type="curve" smooth="yes"/>
      <point x="944" y="1564"/>
      <point x="983" y="1511"/>
      <point x="1060" y="1488" type="curve"/>
      <point x="1087" y="1548"/>
      <point x="1134" y="1587"/>
      <point x="1204" y="1587" type="curve" smooth="yes"/>
      <point x="1312" y="1587"/>
      <point x="1535" y="1468"/>
      <point x="1731" y="1270" type="curve"/>
      <point x="1816" y="1309" type="line"/>
      <point x="1637" y="1935"/>
      <point x="1488" y="2032"/>
      <point x="1364" y="2032" type="curve" smooth="yes"/>
    </contour>
    <component base="aadeva"/>
  </outline>
</glyph>
<glyph name="cadeva" format="1">
  <advance width="1321"/>
  <unicode hex="091A"/>
  <outline>
    <contour>
      <point x="1321" y="1330" type="line"/>
      <point x="-50" y="1330" type="line"/>
      <point x="-56" y="1321" type="line"/>
      <point x="0" y="1197" type="line"/>
      <point x="954" y="1197" type="line"/>
      <point x="954" y="660" type="line" smooth="yes"/>
      <point x="954" y="508"/>
      <point x="805" y="373"/>
      <point x="632" y="373" type="curve" smooth="yes"/>
      <point x="497" y="373"/>
      <point x="411" y="456"/>
      <point x="411" y="565" type="curve" smooth="yes"/>
      <point x="411" y="699"/>
      <point x="540" y="830"/>
      <point x="741" y="830" type="curve" smooth="yes"/>
      <point x="796" y="830" type="line"/>
      <point x="802" y="839" type="line"/>
      <point x="746" y="963" type="line"/>
      <point x="68" y="963" type="line"/>
      <point x="62" y="954" type="line"/>
      <point x="118" y="830" type="line"/>
      <point x="345" y="830" type="line"/>
      <point x="349" y="820" type="line"/>
      <point x="305" y="765"/>
      <point x="279" y="697"/>
      <point x="279" y="627" type="curve" smooth="yes"/>
      <point x="279" y="441"/>
      <point x="463" y="251"/>
      <point x="698" y="251" type="curve" smooth="yes"/>
      <point x="785" y="251"/>
      <point x="873" y="277"/>
      <point x="944" y="326" type="curve"/>
      <point x="954" y="321" type="line"/>
      <point x="954" y="19" type="line"/>
      <point x="1105" y="-19" type="line"/>
      <point x="1114" y="-12" type="line"/>
      <point x="1114" y="1197" type="line"/>
      <point x="1371" y="1197" type="line"/>
      <point x="1377" y="1206" type="line"/>
    </contour>
  </outline>
</glyph>
<glyph name="chadeva" format="1">
  <advance width="1371"/>
  <unicode hex="091B"/>
  <outline>
    <contour>
      <point x="1371" y="1330" type="line"/>
      <point x="-50" y="1330" type="line"/>
      <point x="-56" y="1321" type="line"/>
      <point x="0" y="1197" type="line"/>
      <point x="922" y="1197" type="line"/>
      <point x="922" y="1055" type="line"/>
      <point x="839" y="1034"/>
      <point x="775" y="961"/>
      <point x="775" y="856" type="curve" smooth="yes"/>
      <point x="775" y="733"/>
      <point x="863" y="593"/>
      <point x="1031" y="465" type="curve"/>
      <point x="935" y="313"/>
      <point x="779" y="197"/>
      <point x="612" y="197" type="curve" smooth="yes"/>
      <point x="493" y="197"/>
      <point x="401" y="256"/>
      <point x="401" y="360" type="curve" smooth="yes"/>
      <point x="401" y="460"/>
      <point x="487" y="561"/>
      <point x="693" y="589" type="curve"/>
      <point x="697" y="599" type="line"/>
      <point x="586" y="728" type="line"/>
      <point x="506" y="720"/>
      <point x="437" y="692"/>
      <point x="385" y="651" type="curve"/>
      <point x="305" y="687"/>
      <point x="272" y="731"/>
      <point x="272" y="785" type="curve" smooth="yes"/>
      <point x="272" y="878"/>
      <point x="368" y="947"/>
      <point x="564" y="947" type="curve"/>
      <point x="517" y="1039"/>
      <point x="437" y="1075"/>
      <point x="355" y="1075" type="curve" smooth="yes"/>
      <point x="236" y="1075"/>
      <point x="116" y="999"/>
      <point x="116" y="860" type="curve" smooth="yes"/>
      <point x="116" y="749"/>
      <point x="193" y="650"/>
      <point x="326" y="591" type="curve"/>
      <point x="289" y="543"/>
      <point x="269" y="485"/>
      <point x="269" y="427" type="curve" smooth="yes"/>
      <point x="269" y="252"/>
      <point x="456" y="61"/>
      <point x="689" y="61" type="curve" smooth="yes"/>
      <point x="994" y="61"/>
      <point x="1254" y="386"/>
      <point x="1254" y="692" type="curve" smooth="yes"/>
      <point x="1254" y="866"/>
      <point x="1170" y="996"/>
      <point x="1062" y="1042" type="curve"/>
      <point x="1062" y="1197" type="line"/>
      <point x="1421" y="1197" type="line"/>
      <point x="1427" y="1206" type="line"/>
    </contour>
    <contour>
      <point x="1081" y="932"/>
      <point x="1130" y="903"/>
      <point x="1130" y="781" type="curve" smooth="yes"/>
      <point x="1130" y="700"/>
      <point x="1109" y="616"/>
      <point x="1071" y="538" type="curve"/>
      <point x="968" y="625"/>
      <point x="915" y="715"/>
      <point x="915" y="793" type="curve" smooth="yes"/>
      <point x="915" y="876"/>
      <point x="975" y="932"/>
      <point x="1037" y="932" type="curve" smooth="yes"/>
    </contour>
  </outline>
</glyph>
<glyph name="jhadeva" format="1">
  <advance width="1500"/>
  <unicode hex="091D"/>
  <outline>
    <contour>
      <point x="1500" y="1330" type="line"/>
      <point x="-50" y="1330" type="line"/>
      <point x="-56" y="1321" type="line"/>
      <point x="0" y="1197" type="line"/>
      <point x="618" y="1197" type="line"/>
      <point x="618" y="1034" type="line" smooth="yes"/>
      <point x="618" y="1029"/>
      <point x="615" y="1026"/>
      <point x="610" y="1026" type="curve" smooth="yes"/>
      <point x="307" y="1026" type="line" smooth="yes"/>
      <point x="175" y="1026"/>
      <point x="114" y="961"/>
      <point x="114" y="877" type="curve" smooth="yes"/>
      <point x="114" y="740"/>
      <point x="274" y="532"/>
      <point x="457" y="532" type="curve" smooth="yes"/>
      <point x="516" y="532"/>
      <point x="667" y="554"/>
      <point x="713" y="554" type="curve" smooth="yes"/>
      <point x="765" y="554"/>
      <point x="795" y="525"/>
      <point x="795" y="482" type="curve" smooth="yes"/>
      <point x="795" y="393"/>
      <point x="662" y="310"/>
      <point x="426" y="310" type="curve" smooth="yes"/>
      <point x="420" y="310" type="line"/>
      <point x="380" y="396"/>
      <point x="334" y="447"/>
      <point x="266" y="447" type="curve" smooth="yes"/>
      <point x="215" y="447"/>
      <point x="155" y="417"/>
      <point x="155" y="341" type="curve" smooth="yes"/>
      <point x="155" y="244"/>
      <point x="252" y="155"/>
      <point x="426" y="149" type="curve"/>
      <point x="494" y="-61"/>
      <point x="601" y="-143"/>
      <point x="701" y="-143" type="curve" smooth="yes"/>
      <point x="769" y="-143"/>
      <point x="824" y="-105"/>
      <point x="824" y="-42" type="curve" smooth="yes"/>
      <point x="824" y="-20"/>
      <point x="817" y="5"/>
      <point x="802" y="33" type="curve"/>
      <point x="772" y="23"/>
      <point x="746" y="17"/>
      <point x="704" y="17" type="curve" smooth="yes"/>
      <point x="609" y="17"/>
      <point x="548" y="48"/>
      <point x="494" y="149" type="curve"/>
      <point x="721" y="157"/>
      <point x="886" y="275"/>
      <point x="886" y="416" type="curve" smooth="yes"/>
      <point x="886" y="451"/>
      <point x="876" y="498"/>
      <point x="858" y="540" type="curve"/>
      <point x="865" y="548" type="line"/>
      <point x="909" y="532"/>
      <point x="954" y="523"/>
      <point x="997" y="523" type="curve" smooth="yes"/>
      <point x="1040" y="523"/>
      <point x="1087" y="532"/>
      <point x="1132" y="556" type="curve"/>
      <point x="1132" y="19" type="line"/>
      <point x="1283" y="-19" type="line"/>
      <point x="1292" y="-12" type="line"/>
      <point x="1292" y="1197" type="line"/>
      <point x="1550" y="1197" type="line"/>
      <point x="1556" y="1206" type="line"/>
    </contour>
    <contour>
      <point x="1132" y="1197" type="line"/>
      <point x="1132" y="857" type="line" smooth="yes"/>
      <point x="1132" y="720"/>
      <point x="1037" y="646"/>
      <point x="902" y="646" type="curve" smooth="yes"/>
      <point x="855" y="646"/>
      <point x="806" y="655"/>
      <point x="753" y="682" type="curve" smooth="yes"/>
      <point x="704" y="707"/>
      <point x="676" y="721"/>
      <point x="631" y="721" type="curve" smooth="yes"/>
      <point x="565" y="721"/>
      <point x="430" y="690"/>
      <point x="368" y="690" type="curve" smooth="yes"/>
      <point x="299" y="690"/>
      <point x="256" y="729"/>
      <point x="256" y="790" type="curve" smooth="yes"/>
      <point x="256" y="845"/>
      <point x="291" y="885"/>
      <point x="389" y="885" type="curve" smooth="yes"/>
      <point x="764" y="885" type="line"/>
      <point x="772" y="893" type="line"/>
      <point x="772" y="1197" type="line"/>
    </contour>
  </outline>
</glyph>
<glyph name="nyadeva" format="1">
  <advance width="1531"/>
  <unicode hex="091E"/>
  <outline>
    <contour>
      <point x="1531" y="1330" type="line"/>
      <point x="-50" y="1330" type="line"/>
      <point x="-56" y="1321" type="line"/>
      <point x="0" y="1197" type="line"/>
      <point x="1164" y="1197" type="line"/>
      <point x="1164" y="787" type="line" smooth="yes"/>
      <point x="1164" y="677"/>
      <point x="1103" y="646"/>
      <point x="1044" y="646" type="curve" smooth="yes"/>
      <point x="1000" y="646"/>
      <point x="959" y="663"/>
      <point x="911" y="714" type="curve"/>
      <point x="849" y="874"/>
      <point x="701" y="994"/>
      <point x="550" y="994" type="curve" smooth="yes"/>
      <point x="427" y="994"/>
      <point x="351" y="915"/>
      <point x="351" y="840" type="curve" smooth="yes"/>
      <point x="351" y="789"/>
      <point x="384" y="740"/>
      <point x="452" y="723" type="curve"/>
      <point x="502" y="813"/>
      <point x="564" y="842"/>
      <point x="635" y="842" type="curve" smooth="yes"/>
      <point x="748" y="842"/>
      <point x="815" y="768"/>
      <point x="815" y="637" type="curve" smooth="yes"/>
      <point x="815" y="485"/>
      <point x="725" y="357"/>
      <point x="549" y="357" type="curve" smooth="yes"/>
      <point x="360" y="357"/>
      <point x="235" y="503"/>
      <point x="173" y="830" type="curve"/>
      <point x="123" y="830"/>
      <point x="107" y="798"/>
      <point x="107" y="746" type="curve" smooth="yes"/>
      <point x="107" y="582"/>
      <point x="264" y="195"/>
      <point x="598" y="195" type="curve" smooth="yes"/>
      <point x="814" y="195"/>
      <point x="937" y="347"/>
      <point x="942" y="561" type="curve"/>
      <point x="952" y="565" type="line"/>
      <point x="1001" y="514"/>
      <point x="1055" y="483"/>
      <point x="1112" y="483" type="curve" smooth="yes"/>
      <point x="1129" y="483"/>
      <point x="1147" y="486"/>
      <point x="1164" y="491" type="curve"/>
      <point x="1164" y="19" type="line"/>
      <point x="1315" y="-19" type="line"/>
      <point x="1324" y="-12" type="line"/>
      <point x="1324" y="1197" type="line"/>
      <point x="1581" y="1197" type="line"/>
      <point x="1587" y="1206" type="line"/>
    </contour>
  </outline>
</glyph>
<glyph name="nnadeva" format="1">
  <advance width="1421"/>
  <unicode hex="0923"/>
  <outline>
    <contour>
      <point x="1421" y="1330" type="line"/>
      <point x="-50" y="1330" type="line"/>
      <point x="-56" y="1321" type="line"/>
      <point x="0" y="1197" type="line"/>
      <point x="129" y="1197" type="line"/>
      <point x="129" y="755" type="line" smooth="yes"/>
      <point x="129" y="537"/>
      <point x="330" y="351"/>
      <point x="530" y="351" type="curve" smooth="yes"/>
      <point x="688" y="351"/>
      <point x="809" y="468"/>
      <point x="809" y="631" type="curve" smooth="yes"/>
      <point x="809" y="1197" type="line"/>
      <point x="1054" y="1197" type="line"/>
      <point x="1054" y="19" type="line"/>
      <point x="1205" y="-19" type="line"/>
      <point x="1214" y="-12" type="line"/>
      <point x="1214" y="1197" type="line"/>
      <point x="1471" y="1197" type="line"/>
      <point x="1477" y="1206" type="line"/>
    </contour>
    <contour>
      <point x="654" y="1197" type="line"/>
      <point x="654" y="700" type="line" smooth="yes"/>
      <point x="654" y="555"/>
      <point x="569" y="473"/>
      <point x="462" y="473" type="curve" smooth="yes"/>
      <point x="366" y="473"/>
      <point x="289" y="539"/>
      <point x="289" y="670" type="curve" smooth="yes"/>
      <point x="289" y="1197" type="line"/>
    </contour>
  </outline>
</glyph>
<glyph name="badeva" format="1">
  <advance width="1160"/>
  <unicode hex="092C"/>
  <outline>
    <contour>
      <point x="340" y="897" type="line"/>
      <point x="219" y="867" type="line"/>
      <point x="678" y="317" type="line"/>
      <point x="799" y="337" type="line"/>
    </contour>
    <component base="vadeva"/>
  </outline>
</glyph>
<glyph name="madeva" format="1">
  <advance width="1186"/>
  <unicode hex="092E"/>
  <outline>
    <contour>
      <point x="1186" y="1330" type="line"/>
      <point x="-50" y="1330" type="line"/>
      <point x="-56" y="1321" type="line"/>
      <point x="0" y="1197" type="line"/>
      <point x="200" y="1197" type="line"/>
      <point x="200" y="652" type="line"/>
      <point x="89" y="649"/>
      <point x="55" y="609"/>
      <point x="55" y="562" type="curve" smooth="yes"/>
      <point x="55" y="455"/>
      <point x="227" y="284"/>
      <point x="303" y="284" type="curve" smooth="yes"/>
      <point x="331" y="284"/>
      <point x="358" y="307"/>
      <point x="358" y="363" type="curve" smooth="yes"/>
      <point x="358" y="508" type="line"/>
      <point x="819" y="508" type="line"/>
      <point x="819" y="19" type="line"/>
      <point x="970" y="-19" type="line"/>
      <point x="979" y="-12" type="line"/>
      <point x="979" y="1197" type="line"/>
      <point x="1236" y="1197" type="line"/>
      <point x="1242" y="1206" type="line"/>
    </contour>
    <contour>
      <point x="819" y="1197" type="line"/>
      <point x="819" y="653" type="line"/>
      <point x="358" y="653" type="line"/>
      <point x="358" y="1197" type="line"/>
    </contour>
  </outline>
</glyph>
<glyph name="yadeva" format="1">
  <advance width="1288"/>
  <unicode hex="092F"/>
  <outline>
    <contour>
      <point x="1288" y="1330" type="line"/>
      <point x="-50" y="1330" type="line"/>
      <point x="-56" y="1321" type="line"/>
      <point x="0" y="1197" type="line"/>
      <point x="369" y="1197" type="line"/>
      <point x="398" y="1149"/>
      <point x="422" y="1083"/>
      <point x="422" y="1013" type="curve" smooth="yes"/>
      <point x="422" y="892"/>
      <point x="351" y="813"/>
      <point x="127" y="750" type="curve"/>
      <point x="122" y="740" type="line"/>
      <point x="295" y="403"/>
      <point x="496" y="261"/>
      <point x="697" y="261" type="curve" smooth="yes"/>
      <point x="781" y="261"/>
      <point x="854" y="286"/>
      <point x="911" y="329" type="curve"/>
      <point x="921" y="324" type="line"/>
      <point x="921" y="19" type="line"/>
      <point x="1072" y="-19" type="line"/>
      <point x="1081" y="-12" type="line"/>
      <point x="1081" y="1197" type="line"/>
      <point x="1338" y="1197" type="line"/>
      <point x="1344" y="1206" type="line"/>
    </contour>
    <contour>
      <point x="921" y="1197" type="line"/>
      <point x="921" y="690" type="line" smooth="yes"/>
      <point x="921" y="528"/>
      <point x="780" y="421"/>
      <point x="630" y="421" type="curve" smooth="yes"/>
      <point x="517" y="421"/>
      <point x="392" y="482"/>
      <point x="307" y="628" type="curve"/>
      <point x="472" y="688"/>
      <point x="562" y="781"/>
      <point x="562" y="926" type="curve" smooth="yes"/>
      <point x="562" y="1015"/>
      <point x="528" y="1109"/>
      <point x="485" y="1187" type="curve"/>
      <point x="490" y="1197" type="line"/>
    </contour>
  </outline>
</glyph>
<glyph name="ssadeva" format="1">
  <advance width="1112"/>
  <unicode hex="0937"/>
  <outline>
    <contour>
      <point x="281" y="1243" type="line"/>
      <point x="180" y="1213" type="line"/>
      <point x="689" y="513" type="line"/>
      <point x="790" y="543" type="line"/>
    </contour>
    <component base="padeva"/>
  </outline>
</glyph>
<glyph name="oesigndeva" format="1">
  <advance width="0"/>
  <unicode hex="093A"/>
  <outline>
    <contour>
      <point x="-349" y="1615" type="line"/>
      <point x="-358" y="1608" type="line"/>
      <point x="-358" y="1279" type="line"/>
      <point x="-224" y="1251" type="line"/>
      <point x="-215" y="1258" type="line"/>
      <point x="-215" y="1587" type="line"/>
    </contour>
    <contour>
      <point x="-133" y="666" type="move" name="_class0"/>
    </contour>
  </outline>
</glyph>
<glyph name="isigndeva" format="1">
  <advance width="573"/>
  <unicode hex="093F"/>
  <outline>
    <contour>
      <point x="223" y="1906"/>
      <point x="63" y="1766"/>
      <point x="63" y="1579" type="curve" smooth="yes"/>
      <point x="63" y="1489"/>
      <point x="102" y="1406"/>
      <point x="164" y="1340" type="curve"/>
      <point x="160" y="1330" type="line"/>
      <point x="-50" y="1330" type="line"/>
      <point x="-56" y="1321" type="line"/>
      <point x="0" y="1197" type="line"/>
      <point x="206" y="1197" type="line"/>
      <point x="206" y="19" type="line"/>
      <point x="357" y="-19" type="line"/>
      <point x="366" y="-12" type="line"/>
      <point x="366" y="1197" type="line"/>
      <point x="623" y="1197" type="line"/>
      <point x="629" y="1206" type="line"/>
      <point x="573" y="1330" type="line"/>
      <point x="292" y="1330" type="line"/>
      <point x="230" y="1380"/>
      <point x="201" y="1438"/>
      <point x="201" y="1505" type="curve" smooth="yes"/>
      <point x="201" y="1643"/>
      <point x="313" y="1746"/>
      <point x="553" y="1746" type="curve" smooth="yes"/>
      <point x="837" y="1746"/>
      <point x="1145" y="1611"/>
      <point x="1379" y="1402" type="curve"/>
      <point x="1391" y="1411"/>
      <point x="1402" y="1428"/>
      <point x="1402" y="1447" type="curve" smooth="yes"/>
      <point x="1402" y="1561"/>
      <point x="929" y="1906"/>
      <point x="468" y="1906" type="curve" smooth="yes"/>
    </contour>
  </outline>
</glyph>
<glyph name="iisigndeva" format="1">
  <advance width="573"/>
  <unicode hex="0940"/>
  <outline>
    <contour>
      <point x="-441" y="1906"/>
      <point x="-555" y="1788"/>
      <point x="-555" y="1644" type="curve" smooth="yes"/>
      <point x="-555" y="1532"/>
      <point x="-487" y="1447"/>
      <point x="-362" y="1426" type="curve"/>
      <point x="-385" y="1482"/>
      <point x="-393" y="1529"/>
      <point x="-393" y="1569" type="curve" smooth="yes"/>
      <point x="-393" y="1684"/>
      <point x="-326" y="1763"/>
      <point x="-210" y="1763" type="curve" smooth="yes"/>
      <point x="-76" y="1763"/>
      <point x="89" y="1656"/>
      <point x="229" y="1340" type="curve"/>
      <point x="223" y="1330" type="line"/>
      <point x="-50" y="1330" type="line"/>
      <point x="-56" y="1321" type="line"/>
      <point x="0" y="1197" type="line"/>
      <point x="206" y="1197" type="line"/>
      <point x="206" y="19" type="line"/>
      <point x="357" y="-19" type="line"/>
      <point x="366" y="-12" type="line"/>
      <point x="366" y="1197" type="line"/>
      <point x="623" y="1197" type="line"/>
      <point x="629" y="1206" type="line"/>
      <point x="573" y="1330" type="line"/>
      <point x="329" y="1330" type="line"/>
      <point x="152" y="1762"/>
      <point x="-51" y="1906"/>
      <point x="-256" y="1906" type="curve" smooth="yes"/>
    </contour>
  </outline>
</glyph>
<glyph name="rvocalicsigndeva" format="1">
  <advance width="0"/>
  <unicode hex="0943"/>
  <outline>
    <contour>
      <point x="-316" y="98" type="line"/>
      <point x="-506" y="48"/>
      <point x="-588" y="-46"/>
      <point x="-588" y="-145" type="curve" smooth="yes"/>
      <point x="-588" y="-271"/>
      <point x="-455" y="-436"/>
      <point x="-258" y="-436" type="curve" smooth="yes"/>
      <point x="-141" y="-436"/>
      <point x="1" y="-378"/>
      <point x="1" y="-290" type="curve" smooth="yes"/>
      <point x="1" y="-247"/>
      <point x="-37" y="-201"/>
      <point x="-73" y="-189" type="curve"/>
      <point x="-132" y="-250"/>
      <point x="-258" y="-318"/>
      <point x="-352" y="-318" type="curve" smooth="yes"/>
      <point x="-438" y="-318"/>
      <point x="-469" y="-260"/>
      <point x="-469" y="-213" type="curve" smooth="yes"/>
      <point x="-469" y="-150"/>
      <point x="-412" y="-78"/>
      <point x="-207" y="-22" type="curve"/>
      <point x="-207" y="-11" type="line"/>
    </contour>
    <contour>
      <point x="-127" y="50" type="move" name="_class0"/>
    </contour>
  </outline>
</glyph>
<glyph name="rrvocalicsigndeva" format="1">
  <advance width="0"/>
  <unicode hex="0944"/>
  <outline>
    <contour>
      <point x="-313" y="93" type="line"/>
      <point x="-524" y="37"/>
      <point x="-594" y="-69"/>
      <point x="-594" y="-155" type="curve" smooth="yes"/>
      <point x="-594" y="-234"/>
      <point x="-539" y="-310"/>
      <point x="-451" y="-348" type="curve"/>
      <point x="-481" y="-384"/>
      <point x="-491" y="-415"/>
      <point x="-491" y="-447" type="curve" smooth="yes"/>
      <point x="-491" y="-560"/>
      <point x="-362" y="-687"/>
      <point x="-198" y="-687" type="curve" smooth="yes"/>
      <point x="-64" y="-687"/>
      <point x="42" y="-602"/>
      <point x="42" y="-527" type="curve" smooth="yes"/>
      <point x="42" y="-482"/>
      <point x="3" y="-450"/>
      <point x="-36" y="-435" type="curve"/>
      <point x="-91" y="-535"/>
      <point x="-209" y="-579"/>
      <point x="-279" y="-579" type="curve" smooth="yes"/>
      <point x="-334" y="-579"/>
      <point x="-362" y="-551"/>
      <point x="-362" y="-507" type="curve" smooth="yes"/>
      <point x="-362" y="-452"/>
      <point x="-319" y="-393"/>
      <point x="-106" y="-292" type="curve"/>
      <point x="-103" y="-281" type="line"/>
      <point x="-191" y="-182" type="line"/>
      <point x="-303" y="-254"/>
      <point x="-359" y="-286"/>
      <point x="-407" y="-286" type="curve" smooth="yes"/>
      <point x="-453" y="-286"/>
      <point x="-475" y="-257"/>
      <point x="-475" y="-216" type="curve" smooth="yes"/>
      <point x="-475" y="-167"/>
      <point x="-436" y="-85"/>
      <point x="-207" y="-22" type="curve"/>
      <point x="-207" y="-11" type="line"/>
    </contour>
    <contour>
      <point x="-130" y="69" type="move" name="_class0"/>
    </contour>
  </outline>
</glyph>
<glyph name="ecandrasigndeva" format="1">
  <advance width="0"/>
  <unicode hex="0945"/>
  <outline>
    <contour>
      <point x="-142" y="1699"/>
      <point x="-235" y="1619"/>
      <point x="-352" y="1619" type="curve" smooth="yes"/>
      <point x="-462" y="1619"/>
      <point x="-553" y="1689"/>
      <point x="-614" y="1884" type="curve"/>
      <point x="-640" y="1871"/>
      <point x="-655" y="1852"/>
      <point x="-655" y="1817" type="curve" smooth="yes"/>
      <point x="-655" y="1679"/>
      <point x="-519" y="1486"/>
      <point x="-314" y="1486" type="curve" smooth="yes"/>
      <point x="-150" y="1486"/>
      <point x="-25" y="1609"/>
      <point x="-25" y="1762" type="curve" smooth="yes"/>
      <point x="-25" y="1824"/>
      <point x="-57" y="1865"/>
      <point x="-120" y="1886" type="curve"/>
    </contour>
    <contour>
      <point x="-127" y="666" type="move" name="_class0"/>
    </contour>
  </outline>
</glyph>
<glyph name="oshortsigndeva" format="1">
  <advance width="573"/>
  <unicode hex="094A"/>
  <outline>
    <contour>
      <point x="-606" y="1934"/>
      <point x="-613" y="1912"/>
      <point x="-613" y="1880" type="curve" smooth="yes"/>
      <point x="-613" y="1729"/>
      <point x="-468" y="1601"/>
      <point x="-58" y="1557" type="curve" smooth="yes"/>
      <point x="173" y="1535"/>
      <point x="239" y="1511"/>
      <point x="239" y="1413" type="curve" smooth="yes"/>
      <point x="239" y="1388"/>
      <point x="231" y="1349"/>
      <point x="212" y="1311" type="curve"/>
      <point x="364" y="1311" type="line"/>
      <point x="318" y="1598"/>
      <point x="157" y="1701"/>
      <point x="-164" y="1731" type="curve" smooth="yes"/>
      <point x="-428" y="1760"/>
      <point x="-515" y="1818"/>
      <point x="-595" y="1956" type="curve"/>
    </contour>
    <component base="aasigndeva"/>
  </outline>
</glyph>
<glyph name="osigndeva" format="1">
  <advance width="573"/>
  <unicode hex="094B"/>
  <outline>
    <contour>
      <point x="-493" y="1932"/>
      <point x="-549" y="1861"/>
      <point x="-549" y="1793" type="curve" smooth="yes"/>
      <point x="-549" y="1735"/>
      <point x="-507" y="1680"/>
      <point x="-430" y="1658" type="curve"/>
      <point x="-401" y="1712"/>
      <point x="-351" y="1751"/>
      <point x="-276" y="1751" type="curve" smooth="yes"/>
      <point x="-172" y="1751"/>
      <point x="-80" y="1690"/>
      <point x="205" y="1340" type="curve"/>
      <point x="201" y="1330" type="line"/>
      <point x="-50" y="1330" type="line"/>
      <point x="-56" y="1321" type="line"/>
      <point x="0" y="1197" type="line"/>
      <point x="206" y="1197" type="line"/>
      <point x="206" y="19" type="line"/>
      <point x="357" y="-19" type="line"/>
      <point x="366" y="-12" type="line"/>
      <point x="366" y="1197" type="line"/>
      <point x="623" y="1197" type="line"/>
      <point x="629" y="1206" type="line"/>
      <point x="573" y="1330" type="line"/>
      <point x="330" y="1330" type="line"/>
      <point x="-80" y="1861"/>
      <point x="-237" y="1932"/>
      <point x="-366" y="1932" type="curve" smooth="yes"/>
    </contour>
  </outline>
</glyph>
<glyph name="ausigndeva" format="1">
  <advance width="573"/>
  <unicode hex="094C"/>
  <outline>
    <contour>
      <point x="-193" y="2032"/>
      <point x="-242" y="1973"/>
      <point x="-242" y="1913" type="curve" smooth="yes"/>
      <point x="-242" y="1859"/>
      <point x="-201" y="1822"/>
      <point x="-149" y="1801" type="curve"/>
      <point x="-124" y="1837"/>
      <point x="-86" y="1864"/>
      <point x="-42" y="1864" type="curve" smooth="yes"/>
      <point x="28.8211" y="1864"/>
      <point x="87.1032" y="1820.9"/>
      <point x="216.793" y="1437.06" type="curve"/>
      <point x="11.5445" y="1609.83"/>
      <point x="-221.491" y="1742"/>
      <point x="-359" y="1742" type="curve" smooth="yes"/>
      <point x="-442" y="1742"/>
      <point x="-516" y="1693"/>
      <point x="-516" y="1619" type="curve" smooth="yes"/>
      <point x="-516" y="1564"/>
      <point x="-477" y="1511"/>
      <point x="-400" y="1488" type="curve"/>
      <point x="-373" y="1548"/>
      <point x="-326" y="1587"/>
      <point x="-256" y="1587" type="curve" smooth="yes"/>
      <point x="-148" y="1587"/>
      <point x="74.9999" y="1468"/>
      <point x="271" y="1270" type="curve"/>
      <point x="356" y="1309" type="line"/>
      <point x="177" y="1935"/>
      <point x="27.9999" y="2032"/>
      <point x="-96.0001" y="2032" type="curve" smooth="yes"/>
    </contour>
    <component base="aasigndeva"/>
  </outline>
</glyph>
<glyph name="eprishthamatrasigndeva" format="1">
  <advance width="573"/>
  <unicode hex="094E"/>
  <outline>
    <contour>
      <point x="573" y="1330" type="line"/>
      <point x="206" y="1330" type="line"/>
      <point x="206" y="19" type="line"/>
      <point x="357" y="-19" type="line"/>
      <point x="366" y="-12" type="line"/>
      <point x="366" y="1197" type="line"/>
      <point x="623" y="1197" type="line"/>
      <point x="629" y="1206" type="line"/>
    </contour>
  </outline>
</glyph>
<glyph name="awsigndeva" format="1">
  <advance width="573"/>
  <unicode hex="094F"/>
  <outline>
    <contour>
      <point x="361" y="1311" type="line"/>
      <point x="341" y="1640"/>
      <point x="236" y="1791"/>
      <point x="-96" y="1859" type="curve" smooth="yes"/>
      <point x="-307" y="1907"/>
      <point x="-349" y="1937"/>
      <point x="-386" y="2033" type="curve"/>
      <point x="-401" y="2010"/>
      <point x="-409" y="1978"/>
      <point x="-409" y="1947" type="curve" smooth="yes"/>
      <point x="-409" y="1858"/>
      <point x="-340" y="1760"/>
      <point x="-46" y="1711" type="curve" smooth="yes"/>
      <point x="160.474" y="1676.29"/>
      <point x="250.516" y="1598.02"/>
      <point x="265.716" y="1473.36" type="curve"/>
      <point x="202.44" y="1572.61"/>
      <point x="61.8163" y="1631"/>
      <point x="-194" y="1631" type="curve" smooth="yes"/>
      <point x="-456" y="1631"/>
      <point x="-551" y="1706"/>
      <point x="-625" y="1826" type="curve"/>
      <point x="-636" y="1804"/>
      <point x="-643" y="1782"/>
      <point x="-643" y="1750" type="curve" smooth="yes"/>
      <point x="-643" y="1629"/>
      <point x="-531" y="1487"/>
      <point x="-118" y="1487" type="curve" smooth="yes"/>
      <point x="166" y="1487"/>
      <point x="229" y="1456"/>
      <point x="229" y="1393" type="curve" smooth="yes"/>
      <point x="229" y="1373"/>
      <point x="224" y="1341"/>
      <point x="212" y="1311" type="curve"/>
    </contour>
    <component base="aasigndeva"/>
  </outline>
</glyph>
<glyph name="gravedeva" format="1">
  <advance width="0"/>
  <unicode hex="0953"/>
  <outline>
    <contour>
      <point x="-548" y="1930" type="line"/>
      <point x="-636" y="1875" type="line"/>
      <point x="-638" y="1863" type="line"/>
      <point x="-333" y="1497" type="line"/>
      <point x="-245" y="1552" type="line"/>
      <point x="-243" y="1564" type="line"/>
    </contour>
    <contour>
      <point x="-69" y="664" type="move" name="_class0"/>
    </contour>
  </outline>
</glyph>
<glyph name="acutedeva" format="1">
  <advance width="0"/>
  <unicode hex="0954"/>
  <outline>
    <contour>
      <point x="-44" y="1930" type="line"/>
      <point x="-349" y="1564" type="line"/>
      <point x="-347" y="1552" type="line"/>
      <point x="-259" y="1497" type="line"/>
      <point x="46" y="1863" type="line"/>
      <point x="44" y="1875" type="line"/>
    </contour>
    <contour>
      <point x="-143" y="665" type="move" name="_class0"/>
    </contour>
  </outline>
</glyph>
<glyph name="ecandralongsigndeva" format="1">
  <advance width="0"/>
  <unicode hex="0955"/>
  <outline>
    <contour>
      <point x="-120" y="666" type="move" name="_class0"/>
    </contour>
  </outline>
</glyph>
<glyph name="uesigndeva" format="1">
  <advance width="0"/>
  <unicode hex="0956"/>
  <outline>
    <contour>
      <point x="-259" y="-1" type="move" name="_class0"/>
    </contour>
  </outline>
</glyph>
<glyph name="uuesigndeva" format="1">
  <advance width="0"/>
  <unicode hex="0957"/>
  <outline>
    <contour>
      <point x="-265" y="0" type="move" name="_class0"/>
    </contour>
  </outline>
</glyph>
<glyph name="llvocalicdeva" format="1">
  <advance width="1411"/>
  <unicode hex="0961"/>
  <outline>
    <contour>
      <point x="1411" y="1330" type="line"/>
      <point x="-50" y="1330" type="line"/>
      <point x="-56" y="1321" type="line"/>
      <point x="0" y="1197" type="line"/>
      <point x="924" y="1197" type="line"/>
      <point x="924" y="901" type="line"/>
      <point x="849" y="883"/>
      <point x="770" y="836"/>
      <point x="702" y="757" type="curve"/>
      <point x="586" y="880"/>
      <point x="488" y="924"/>
      <point x="383" y="924" type="curve" smooth="yes"/>
      <point x="208" y="924"/>
      <point x="102" y="799"/>
      <point x="102" y="625" type="curve" smooth="yes"/>
      <point x="102" y="314"/>
      <point x="438" y="-8"/>
      <point x="553" y="-8" type="curve" smooth="yes"/>
      <point x="579" y="-8"/>
      <point x="602" y="9"/>
      <point x="611" y="34" type="curve"/>
      <point x="379" y="197"/>
      <point x="258" y="417"/>
      <point x="258" y="574" type="curve" smooth="yes"/>
      <point x="258" y="697"/>
      <point x="333" y="788"/>
      <point x="445" y="788" type="curve" smooth="yes"/>
      <point x="511" y="788"/>
      <point x="579" y="756"/>
      <point x="648" y="686" type="curve"/>
      <point x="618" y="639"/>
      <point x="591" y="585"/>
      <point x="568" y="522" type="curve"/>
      <point x="701" y="438" type="line"/>
      <point x="711" y="441" type="line"/>
      <point x="811" y="679"/>
      <point x="944" y="771"/>
      <point x="1058" y="771" type="curve" smooth="yes"/>
      <point x="1137" y="771"/>
      <point x="1198" y="727"/>
      <point x="1198" y="629" type="curve" smooth="yes"/>
      <point x="1198" y="537"/>
      <point x="1144" y="471"/>
      <point x="1028" y="363" type="curve" smooth="yes"/>
      <point x="924" y="266"/>
      <point x="856" y="215"/>
      <point x="856" y="130" type="curve" smooth="yes"/>
      <point x="856" y="47"/>
      <point x="919" y="-23"/>
      <point x="1009" y="-60" type="curve"/>
      <point x="979" y="-96"/>
      <point x="969" y="-127"/>
      <point x="969" y="-159" type="curve" smooth="yes"/>
      <point x="969" y="-272"/>
      <point x="1098" y="-399"/>
      <point x="1262" y="-399" type="curve" smooth="yes"/>
      <point x="1396" y="-399"/>
      <point x="1502" y="-314"/>
      <point x="1502" y="-239" type="curve" smooth="yes"/>
      <point x="1502" y="-194"/>
      <point x="1463" y="-162"/>
      <point x="1424" y="-147" type="curve"/>
      <point x="1371" y="-244"/>
      <point x="1255" y="-291"/>
      <point x="1181" y="-291" type="curve" smooth="yes"/>
      <point x="1132" y="-291"/>
      <point x="1098" y="-271"/>
      <point x="1098" y="-228" type="curve" smooth="yes"/>
      <point x="1098" y="-181"/>
      <point x="1138" y="-111"/>
      <point x="1354" y="-4" type="curve"/>
      <point x="1357" y="7" type="line"/>
      <point x="1269" y="106" type="line"/>
      <point x="1157" y="34"/>
      <point x="1096" y="6"/>
      <point x="1049" y="6" type="curve" smooth="yes"/>
      <point x="1003" y="6"/>
      <point x="985" y="33"/>
      <point x="985" y="62" type="curve" smooth="yes"/>
      <point x="985" y="119"/>
      <point x="1057" y="174"/>
      <point x="1188" y="302" type="curve" smooth="yes"/>
      <point x="1258" y="371"/>
      <point x="1320" y="435"/>
      <point x="1320" y="558" type="curve" smooth="yes"/>
      <point x="1320" y="723"/>
      <point x="1208" y="858"/>
      <point x="1074" y="897" type="curve"/>
      <point x="1074" y="1197" type="line"/>
      <point x="1461" y="1197" type="line"/>
      <point x="1467" y="1206" type="line"/>
    </contour>
  </outline>
</glyph>
<glyph name="lvocalicsigndeva" format="1">
  <advance width="0"/>
  <unicode hex="0962"/>
  <outline>
    <contour>
      <point x="-808" y="-70"/>
      <point x="-878" y="-148"/>
      <point x="-878" y="-257" type="curve" smooth="yes"/>
      <point x="-878" y="-444"/>
      <point x="-669" y="-637"/>
      <point x="-598" y="-637" type="curve" smooth="yes"/>
      <point x="-578" y="-637"/>
      <point x="-558" y="-622"/>
      <point x="-552" y="-601" type="curve"/>
      <point x="-691" y="-510"/>
      <point x="-771" y="-380"/>
      <point x="-771" y="-291" type="curve" smooth="yes"/>
      <point x="-771" y="-222"/>
      <point x="-723" y="-175"/>
      <point x="-657" y="-175" type="curve" smooth="yes"/>
      <point x="-614" y="-175"/>
      <point x="-573" y="-191"/>
      <point x="-531" y="-224" type="curve"/>
      <point x="-552" y="-264"/>
      <point x="-568" y="-316"/>
      <point x="-577" y="-380" type="curve"/>
      <point x="-479" y="-431" type="line"/>
      <point x="-468" y="-425" type="line"/>
      <point x="-435" y="-219"/>
      <point x="-334" y="-176"/>
      <point x="-270" y="-176" type="curve" smooth="yes"/>
      <point x="-222" y="-176"/>
      <point x="-192" y="-200"/>
      <point x="-192" y="-252" type="curve" smooth="yes"/>
      <point x="-192" y="-309"/>
      <point x="-229" y="-359"/>
      <point x="-291" y="-431" type="curve" smooth="yes"/>
      <point x="-339" y="-487"/>
      <point x="-392" y="-547"/>
      <point x="-392" y="-603" type="curve" smooth="yes"/>
      <point x="-392" y="-678"/>
      <point x="-299" y="-772"/>
      <point x="-189" y="-772" type="curve" smooth="yes"/>
      <point x="-108" y="-772"/>
      <point x="-42" y="-721"/>
      <point x="-42" y="-670" type="curve" smooth="yes"/>
      <point x="-42" y="-632"/>
      <point x="-76" y="-600"/>
      <point x="-105" y="-590" type="curve"/>
      <point x="-139" y="-655"/>
      <point x="-210" y="-688"/>
      <point x="-255" y="-688" type="curve" smooth="yes"/>
      <point x="-281" y="-688"/>
      <point x="-297" y="-676"/>
      <point x="-297" y="-655" type="curve" smooth="yes"/>
      <point x="-297" y="-614"/>
      <point x="-238" y="-561"/>
      <point x="-177" y="-486" type="curve" smooth="yes"/>
      <point x="-115" y="-410"/>
      <point x="-102" y="-371"/>
      <point x="-102" y="-320" type="curve" smooth="yes"/>
      <point x="-102" y="-178"/>
      <point x="-204" y="-80"/>
      <point x="-317" y="-80" type="curve" smooth="yes"/>
      <point x="-366" y="-80"/>
      <point x="-435" y="-98"/>
      <point x="-491" y="-163" type="curve"/>
      <point x="-564" y="-94"/>
      <point x="-626" y="-70"/>
      <point x="-693" y="-70" type="curve" smooth="yes"/>
    </contour>
    <contour>
      <point x="-141" y="37" type="move" name="_class0"/>
    </contour>
  </outline>
</glyph>
<glyph name="danda" format="1">
  <advance width="860"/>
  <unicode hex="0964"/>
  <outline>
    <contour>
      <point x="509" y="1337" type="line"/>
      <point x="500" y="1330" type="line"/>
      <point x="500" y="-21" type="line"/>
      <point x="651" y="-59" type="line"/>
      <point x="660" y="-52" type="line"/>
      <point x="660" y="1299" type="line"/>
    </contour>
  </outline>
</glyph>
<glyph name="onedeva" format="1">
  <advance width="809"/>
  <unicode hex="0967"/>
  <outline>
    <contour>
      <point x="520" y="196"/>
      <point x="396" y="290"/>
      <point x="323" y="340" type="curve"/>
      <point x="587" y="590"/>
      <point x="714" y="746"/>
      <point x="714" y="918" type="curve" smooth="yes"/>
      <point x="714" y="1109"/>
      <point x="557" y="1277"/>
      <point x="376" y="1277" type="curve" smooth="yes"/>
      <point x="238" y="1277"/>
      <point x="120" y="1179"/>
      <point x="120" y="1026" type="curve" smooth="yes"/>
      <point x="120" y="860.162"/>
      <point x="257.497" y="746.938"/>
      <point x="412.04" y="664.587" type="curve"/>
      <point x="342.952" y="588.111"/>
      <point x="249.155" y="497.052"/>
      <point x="125" y="382" type="curve"/>
      <point x="124" y="372" type="line"/>
      <point x="267" y="261"/>
      <point x="338" y="210"/>
      <point x="497" y="80" type="curve" smooth="yes"/>
      <point x="585" y="8"/>
      <point x="592" y="0"/>
      <point x="592" y="-35" type="curve" smooth="yes"/>
      <point x="592" y="-56"/>
      <point x="573" y="-102"/>
      <point x="509" y="-137" type="curve"/>
      <point x="535" y="-200"/>
      <point x="580" y="-237"/>
      <point x="632" y="-237" type="curve" smooth="yes"/>
      <point x="699" y="-237"/>
      <point x="749" y="-182"/>
      <point x="749" y="-96" type="curve" smooth="yes"/>
      <point x="749" y="-20"/>
      <point x="710" y="43"/>
      <point x="577" y="150" type="curve" smooth="yes"/>
    </contour>
    <contour>
      <point x="280" y="1081"/>
      <point x="346" y="1152"/>
      <point x="435" y="1152" type="curve" smooth="yes"/>
      <point x="516" y="1152"/>
      <point x="578" y="1093"/>
      <point x="578" y="982" type="curve" smooth="yes"/>
      <point x="578" y="904.234"/>
      <point x="547.491" y="830.282"/>
      <point x="469.84" y="732.421" type="curve"/>
      <point x="326.137" y="814.94"/>
      <point x="280" y="899.847"/>
      <point x="280" y="982" type="curve"/>
    </contour>
  </outline>
</glyph>
<glyph name="twodeva" format="1">
  <advance width="1062"/>
  <unicode hex="0968"/>
  <outline>
    <contour>
      <point x="911" y="36"/>
      <point x="877" y="25"/>
      <point x="831" y="25" type="curve" smooth="yes"/>
      <point x="712.53" y="25"/>
      <point x="625.498" y="97.7591"/>
      <point x="520.528" y="336.923" type="curve"/>
      <point x="801.224" y="452.769"/>
      <point x="946" y="655.54"/>
      <point x="946" y="862" type="curve" smooth="yes"/>
      <point x="946" y="1093"/>
      <point x="763" y="1277"/>
      <point x="523" y="1277" type="curve" smooth="yes"/>
      <point x="319" y="1277"/>
      <point x="171" y="1144"/>
      <point x="171" y="1014" type="curve" smooth="yes"/>
      <point x="171" y="934"/>
      <point x="227" y="889"/>
      <point x="317" y="889" type="curve"/>
      <point x="317" y="1029"/>
      <point x="416" y="1152"/>
      <point x="579" y="1152" type="curve" smooth="yes"/>
      <point x="711" y="1152"/>
      <point x="806" y="1072"/>
      <point x="806" y="925" type="curve" smooth="yes"/>
      <point x="806" y="769.839"/>
      <point x="700.889" y="597.462"/>
      <point x="454.441" y="495.849" type="curve"/>
      <point x="408.465" y="577.513"/>
      <point x="343.85" y="615"/>
      <point x="280" y="615" type="curve" smooth="yes"/>
      <point x="206" y="615"/>
      <point x="150" y="565"/>
      <point x="150" y="492" type="curve" smooth="yes"/>
      <point x="150" y="402"/>
      <point x="234" y="304"/>
      <point x="386" y="304" type="curve" smooth="yes"/>
      <point x="396.252" y="304"/>
      <point x="409.773" y="304.467"/>
      <point x="424.01" y="306.04" type="curve"/>
      <point x="582.95" y="-38.8297"/>
      <point x="740.612" y="-148"/>
      <point x="868" y="-148" type="curve" smooth="yes"/>
      <point x="952" y="-148"/>
      <point x="1002" y="-101"/>
      <point x="1002" y="-39" type="curve" smooth="yes"/>
      <point x="1002" y="-3.99999"/>
      <point x="986" y="35"/>
      <point x="957" y="61" type="curve"/>
    </contour>
  </outline>
</glyph>
<glyph name="threedeva" format="1">
  <advance width="945"/>
  <unicode hex="0969"/>
  <outline>
    <contour>
      <point x="767" y="-72"/>
      <point x="733" y="-83"/>
      <point x="687" y="-83" type="curve" smooth="yes"/>
      <point x="600.891" y="-83"/>
      <point x="552.574" y="-47.6718"/>
      <point x="496.625" y="71.3895" type="curve"/>
      <point x="757.213" y="86.3148"/>
      <point x="885" y="219.508"/>
      <point x="885" y="374" type="curve" smooth="yes"/>
      <point x="885" y="489.668"/>
      <point x="812.677" y="602.018"/>
      <point x="701.541" y="678.082" type="curve"/>
      <point x="802.284" y="736.094"/>
      <point x="852" y="817.115"/>
      <point x="852" y="920" type="curve" smooth="yes"/>
      <point x="852" y="1112"/>
      <point x="679" y="1275"/>
      <point x="441" y="1275" type="curve" smooth="yes"/>
      <point x="244" y="1275"/>
      <point x="130" y="1164"/>
      <point x="130" y="1058" type="curve" smooth="yes"/>
      <point x="130" y="984"/>
      <point x="186" y="937"/>
      <point x="276" y="937" type="curve"/>
      <point x="276" y="1067"/>
      <point x="362" y="1164"/>
      <point x="509" y="1164" type="curve" smooth="yes"/>
      <point x="628" y="1164"/>
      <point x="711" y="1101"/>
      <point x="711" y="993" type="curve" smooth="yes"/>
      <point x="711" y="858"/>
      <point x="583" y="763"/>
      <point x="271" y="749" type="curve"/>
      <point x="265" y="739" type="line"/>
      <point x="346" y="582" type="line"/>
      <point x="445.773" y="592.271"/>
      <point x="530.562" y="609.431"/>
      <point x="600.57" y="633.303" type="curve"/>
      <point x="698.08" y="587.809"/>
      <point x="740" y="516.779"/>
      <point x="740" y="443" type="curve" smooth="yes"/>
      <point x="740" y="333.908"/>
      <point x="648.395" y="239.104"/>
      <point x="446.695" y="224.073" type="curve"/>
      <point x="411.248" y="321.201"/>
      <point x="346.321" y="376"/>
      <point x="272" y="376" type="curve" smooth="yes"/>
      <point x="197" y="376"/>
      <point x="148" y="321"/>
      <point x="148" y="252" type="curve" smooth="yes"/>
      <point x="148" y="150.933"/>
      <point x="253.593" y="62.666"/>
      <point x="406.825" y="64.4677" type="curve"/>
      <point x="505.051" y="-168.943"/>
      <point x="623.231" y="-256"/>
      <point x="724" y="-256" type="curve" smooth="yes"/>
      <point x="808" y="-256"/>
      <point x="858" y="-209"/>
      <point x="858" y="-147" type="curve" smooth="yes"/>
      <point x="858" y="-112"/>
      <point x="842" y="-72.9998"/>
      <point x="813" y="-46.9998" type="curve"/>
    </contour>
  </outline>
</glyph>
<glyph name="fourdeva" format="1">
  <advance width="1110"/>
  <unicode hex="096A"/>
  <outline>
    <contour>
      <point x="702" y="674" type="line" smooth="yes"/>
      <point x="974" y="1036"/>
      <point x="932" y="975"/>
      <point x="1060" y="1160" type="curve"/>
      <point x="928" y="1249" type="line"/>
      <point x="725" y="962"/>
      <point x="713" y="957"/>
      <point x="595" y="803" type="curve" smooth="yes"/>
      <point x="575.692" y="777.822"/>
      <point x="557.794" y="754.237"/>
      <point x="541.207" y="732.108" type="curve"/>
      <point x="539" y="734" type="line" smooth="yes"/>
      <point x="324" y="919"/>
      <point x="264" y="947"/>
      <point x="264" y="1035" type="curve" smooth="yes"/>
      <point x="264" y="1084"/>
      <point x="317" y="1146"/>
      <point x="416" y="1146" type="curve"/>
      <point x="382" y="1230"/>
      <point x="345" y="1271"/>
      <point x="277" y="1271" type="curve" smooth="yes"/>
      <point x="185" y="1271"/>
      <point x="110" y="1197"/>
      <point x="110" y="1097" type="curve" smooth="yes"/>
      <point x="110" y="936"/>
      <point x="306" y="797"/>
      <point x="471" y="664" type="curve" smooth="yes"/>
      <point x="483.588" y="653.795" type="line"/>
      <point x="356.775" y="477.51"/>
      <point x="336" y="416.43"/>
      <point x="336" y="356" type="curve" smooth="yes"/>
      <point x="336" y="188"/>
      <point x="494" y="39"/>
      <point x="654" y="39" type="curve" smooth="yes"/>
      <point x="753" y="39"/>
      <point x="884" y="96"/>
      <point x="884" y="265" type="curve" smooth="yes"/>
      <point x="884" y="382.024"/>
      <point x="821.92" y="476.593"/>
      <point x="663.948" y="623.31" type="curve"/>
    </contour>
    <contour>
      <point x="526" y="179"/>
      <point x="467" y="223"/>
      <point x="467" y="293" type="curve" smooth="yes"/>
      <point x="467" y="344.292"/>
      <point x="499.115" y="400.079"/>
      <point x="607.098" y="546.841" type="curve"/>
      <point x="695.768" y="462.491"/>
      <point x="742" y="392.442"/>
      <point x="742" y="316" type="curve" smooth="yes"/>
      <point x="742" y="227"/>
      <point x="679" y="179"/>
      <point x="601" y="179" type="curve" smooth="yes"/>
    </contour>
  </outline>
</glyph>
<glyph name="fivedeva" format="1">
  <advance width="1047"/>
  <unicode hex="096B"/>
  <outline>
    <contour>
      <point x="918.71" y="515.76"/>
      <point x="938" y="575.447"/>
      <point x="938" y="633" type="curve" smooth="yes"/>
      <point x="938" y="741"/>
      <point x="871" y="838"/>
      <point x="772" y="838" type="curve" smooth="yes"/>
      <point x="695" y="838"/>
      <point x="641" y="779"/>
      <point x="641" y="701" type="curve" smooth="yes"/>
      <point x="641" y="642.309"/>
      <point x="671.981" y="582.803"/>
      <point x="724.374" y="517.328" type="curve"/>
      <point x="622.606" y="397.013"/>
      <point x="528.977" y="356"/>
      <point x="432" y="356" type="curve" smooth="yes"/>
      <point x="302" y="356"/>
      <point x="232" y="430"/>
      <point x="232" y="552" type="curve" smooth="yes"/>
      <point x="232" y="688"/>
      <point x="318" y="910"/>
      <point x="500" y="1174" type="curve"/>
      <point x="357" y="1264" type="line"/>
      <point x="208" y="1047"/>
      <point x="94" y="810"/>
      <point x="94" y="630" type="curve" smooth="yes"/>
      <point x="94" y="390"/>
      <point x="297" y="214"/>
      <point x="493" y="214" type="curve" smooth="yes"/>
      <point x="617.473" y="214"/>
      <point x="744.207" y="285.715"/>
      <point x="830.421" y="383.795" type="curve"/>
      <point x="884.053" y="304.289"/>
      <point x="919" y="253.695"/>
      <point x="919" y="176" type="curve" smooth="yes"/>
      <point x="919" y="87"/>
      <point x="874" y="43"/>
      <point x="753" y="22" type="curve"/>
      <point x="789" y="-65"/>
      <point x="845" y="-99"/>
      <point x="906" y="-99" type="curve" smooth="yes"/>
      <point x="996" y="-99"/>
      <point x="1057" y="-24"/>
      <point x="1057" y="77" type="curve" smooth="yes"/>
      <point x="1057" y="204.489"/>
      <point x="959.971" y="341.756"/>
      <point x="885.942" y="460.099" type="curve"/>
    </contour>
  </outline>
</glyph>
<glyph name="sixdeva" format="1">
  <advance width="981"/>
  <unicode hex="096C"/>
  <outline>
    <contour>
      <point x="860" y="229"/>
      <point x="888" y="284"/>
      <point x="888" y="339" type="curve" smooth="yes"/>
      <point x="888" y="420"/>
      <point x="827" y="499"/>
      <point x="739" y="499" type="curve" smooth="yes"/>
      <point x="662" y="499"/>
      <point x="607" y="438"/>
      <point x="607" y="363" type="curve" smooth="yes"/>
      <point x="607" y="323.981"/>
      <point x="622.141" y="290.706"/>
      <point x="647.141" y="258.646" type="curve"/>
      <point x="601.189" y="232.837"/>
      <point x="546.323" y="219"/>
      <point x="490" y="219" type="curve" smooth="yes"/>
      <point x="378" y="219"/>
      <point x="275" y="285"/>
      <point x="275" y="403" type="curve" smooth="yes"/>
      <point x="275" y="514"/>
      <point x="366" y="638"/>
      <point x="727" y="669" type="curve"/>
      <point x="731" y="679" type="line"/>
      <point x="640" y="818" type="line"/>
      <point x="545.489" y="811.077"/>
      <point x="462.846" y="793.555"/>
      <point x="393.489" y="767.396" type="curve"/>
      <point x="313.728" y="816.038"/>
      <point x="286" y="872.203"/>
      <point x="286" y="930" type="curve" smooth="yes"/>
      <point x="286" y="1032"/>
      <point x="372" y="1123"/>
      <point x="540" y="1123" type="curve" smooth="yes"/>
      <point x="606" y="1123"/>
      <point x="677" y="1109"/>
      <point x="699" y="1102" type="curve"/>
      <point x="690" y="1202"/>
      <point x="609" y="1272"/>
      <point x="462" y="1272" type="curve" smooth="yes"/>
      <point x="275" y="1272"/>
      <point x="140" y="1157"/>
      <point x="140" y="994" type="curve" smooth="yes"/>
      <point x="140" y="880.024"/>
      <point x="206.828" y="793.955"/>
      <point x="305.872" y="725.723" type="curve"/>
      <point x="200.33" y="662.996"/>
      <point x="143" y="573.547"/>
      <point x="143" y="470" type="curve" smooth="yes"/>
      <point x="143" y="285"/>
      <point x="326" y="90.9997"/>
      <point x="553" y="90.9997" type="curve" smooth="yes"/>
      <point x="630" y="90.9997"/>
      <point x="701" y="112"/>
      <point x="757" y="144" type="curve"/>
      <point x="812" y="81.9997"/>
      <point x="827" y="49.9997"/>
      <point x="827" y="13.9997" type="curve" smooth="yes"/>
      <point x="827" y="-54.0003"/>
      <point x="774" y="-98.0003"/>
      <point x="708" y="-98.0003" type="curve"/>
      <point x="724" y="-162"/>
      <point x="774" y="-202"/>
      <point x="836" y="-202" type="curve" smooth="yes"/>
      <point x="909" y="-202"/>
      <point x="951" y="-145"/>
      <point x="951" y="-73.0003" type="curve" smooth="yes"/>
      <point x="951" y="-13.0003"/>
      <point x="923" y="60.9997"/>
      <point x="816" y="188" type="curve"/>
    </contour>
  </outline>
</glyph>
<glyph name="sevendeva" format="1">
  <advance width="1035"/>
  <unicode hex="096D"/>
  <outline>
    <contour>
      <point x="497" y="1183"/>
      <point x="392" y="1083"/>
      <point x="392" y="950" type="curve" smooth="yes"/>
      <point x="392" y="716.86"/>
      <point x="601.021" y="512.752"/>
      <point x="847.716" y="506.165" type="curve"/>
      <point x="806.023" y="368.701"/>
      <point x="711.68" y="297"/>
      <point x="592" y="297" type="curve" smooth="yes"/>
      <point x="364" y="297"/>
      <point x="162" y="556"/>
      <point x="124" y="1240" type="curve"/>
      <point x="37.9999" y="1240"/>
      <point x="27.9999" y="1180"/>
      <point x="27.9999" y="1084" type="curve" smooth="yes"/>
      <point x="27.9999" y="625"/>
      <point x="257" y="135"/>
      <point x="638" y="135" type="curve" smooth="yes"/>
      <point x="850" y="135"/>
      <point x="995" y="287"/>
      <point x="995" y="581" type="curve" smooth="yes"/>
      <point x="995" y="926"/>
      <point x="831" y="1183"/>
      <point x="626" y="1183" type="curve" smooth="yes"/>
    </contour>
    <contour>
      <point x="535" y="983"/>
      <point x="607" y="1047"/>
      <point x="679" y="1047" type="curve" smooth="yes"/>
      <point x="792" y="1047"/>
      <point x="871" y="888"/>
      <point x="871" y="681" type="curve" smooth="yes"/>
      <point x="871" y="654.358"/>
      <point x="869.693" y="629.045"/>
      <point x="867.161" y="605.08" type="curve"/>
      <point x="662.355" y="616.412"/>
      <point x="535" y="716.425"/>
      <point x="535" y="881" type="curve" smooth="yes"/>
    </contour>
  </outline>
</glyph>
<glyph name="eightdeva" format="1">
  <advance width="987"/>
  <unicode hex="096E"/>
  <outline>
    <contour>
      <point x="752" y="1239" type="line"/>
      <point x="721" y="1208"/>
      <point x="526" y="1037"/>
      <point x="362" y="866" type="curve" smooth="yes"/>
      <point x="145" y="639"/>
      <point x="120" y="555"/>
      <point x="120" y="475" type="curve" smooth="yes"/>
      <point x="120" y="248"/>
      <point x="320" y="89"/>
      <point x="524" y="89" type="curve" smooth="yes"/>
      <point x="737" y="89"/>
      <point x="927" y="261"/>
      <point x="927" y="361" type="curve" smooth="yes"/>
      <point x="927" y="405"/>
      <point x="890" y="456"/>
      <point x="842" y="482" type="curve"/>
      <point x="731" y="322"/>
      <point x="602" y="229"/>
      <point x="460" y="229" type="curve" smooth="yes"/>
      <point x="331" y="229"/>
      <point x="251" y="306"/>
      <point x="251" y="410" type="curve" smooth="yes"/>
      <point x="251" y="495"/>
      <point x="304" y="565"/>
      <point x="468" y="736" type="curve" smooth="yes"/>
      <point x="652" y="928"/>
      <point x="862" y="1129"/>
      <point x="884" y="1150" type="curve"/>
    </contour>
  </outline>
</glyph>
<glyph name="ninedeva" format="1">
  <advance width="865"/>
  <unicode hex="096F"/>
  <outline>
    <contour>
      <point x="638.657" y="596.292"/>
      <point x="750" y="719.626"/>
      <point x="750" y="886" type="curve" smooth="yes"/>
      <point x="750" y="1101"/>
      <point x="565" y="1270"/>
      <point x="372" y="1270" type="curve" smooth="yes"/>
      <point x="188" y="1270"/>
      <point x="80" y="1158"/>
      <point x="80" y="991" type="curve" smooth="yes"/>
      <point x="80" y="846"/>
      <point x="162" y="734"/>
      <point x="316" y="560" type="curve" smooth="yes"/>
      <point x="482" y="373"/>
      <point x="583" y="281"/>
      <point x="583" y="174" type="curve" smooth="yes"/>
      <point x="583" y="123"/>
      <point x="533" y="67"/>
      <point x="463" y="39" type="curve"/>
      <point x="497" y="-37"/>
      <point x="540" y="-69"/>
      <point x="591" y="-69" type="curve" smooth="yes"/>
      <point x="657" y="-69"/>
      <point x="735" y="0.999994"/>
      <point x="735" y="104" type="curve" smooth="yes"/>
      <point x="735" y="174"/>
      <point x="707" y="239"/>
      <point x="638" y="328" type="curve" smooth="yes"/>
      <point x="568.782" y="413.256"/>
      <point x="514.528" y="481.411"/>
      <point x="422.307" y="588.402" type="curve"/>
    </contour>
    <contour>
      <point x="540" y="1141"/>
      <point x="623" y="1057"/>
      <point x="623" y="943" type="curve" smooth="yes"/>
      <point x="623" y="821.749"/>
      <point x="523.914" y="731.058"/>
      <point x="307.028" y="724.393" type="curve"/>
      <point x="252.034" y="796.959"/>
      <point x="232" y="850.633"/>
      <point x="232" y="932" type="curve" smooth="yes"/>
      <point x="232" y="1067"/>
      <point x="325" y="1141"/>
      <point x="431" y="1141" type="curve" smooth="yes"/>
    </contour>
  </outline>
</glyph>
<glyph name="awdeva" format="1">
  <advance width="2033"/>
  <unicode hex="0975"/>
  <outline>
    <contour>
      <point x="1821" y="1311" type="line"/>
      <point x="1801" y="1640"/>
      <point x="1696" y="1791"/>
      <point x="1364" y="1859" type="curve" smooth="yes"/>
      <point x="1153" y="1907"/>
      <point x="1111" y="1937"/>
      <point x="1074" y="2033" type="curve"/>
      <point x="1059" y="2010"/>
      <point x="1051" y="1978"/>
      <point x="1051" y="1947" type="curve" smooth="yes"/>
      <point x="1051" y="1858"/>
      <point x="1120" y="1760"/>
      <point x="1414" y="1711" type="curve" smooth="yes"/>
      <point x="1620.47" y="1676.29"/>
      <point x="1710.52" y="1598.02"/>
      <point x="1725.72" y="1473.36" type="curve"/>
      <point x="1662.44" y="1572.61"/>
      <point x="1521.82" y="1631"/>
      <point x="1266" y="1631" type="curve" smooth="yes"/>
      <point x="1004" y="1631"/>
      <point x="909" y="1706"/>
      <point x="835" y="1826" type="curve"/>
      <point x="824" y="1804"/>
      <point x="817" y="1782"/>
      <point x="817" y="1750" type="curve" smooth="yes"/>
      <point x="817" y="1629"/>
      <point x="929" y="1487"/>
      <point x="1342" y="1487" type="curve" smooth="yes"/>
      <point x="1626" y="1487"/>
      <point x="1689" y="1456"/>
      <point x="1689" y="1393" type="curve" smooth="yes"/>
      <point x="1689" y="1373"/>
      <point x="1684" y="1341"/>
      <point x="1672" y="1311" type="curve"/>
    </contour>
    <component base="aadeva"/>
  </outline>
</glyph>
<glyph name="yaheavydeva" format="1">
  <advance width="1288"/>
  <unicode hex="097A"/>
  <outline>
    <contour>
      <point x="481" y="1243" type="line"/>
      <point x="380" y="1213" type="line"/>
      <point x="889" y="513" type="line"/>
      <point x="990" y="543" type="line"/>
    </contour>
    <component base="yadeva"/>
  </outline>
</glyph>
<glyph name="ggadeva" format="1">
  <advance width="1241"/>
  <unicode hex="097B"/>
  <outline>
    <contour>
      <point x="1034" y="60" type="line"/>
      <point x="98" y="60" type="line"/>
      <point x="92" y="51" type="line"/>
      <point x="138" y="-53" type="line"/>
      <point x="1034" y="-53" type="line"/>
    </contour>
    <component base="gadeva"/>
  </outline>
</glyph>
<glyph name="jjadeva" format="1">
  <advance width="1421"/>
  <unicode hex="097C"/>
  <outline>
    <contour>
      <point x="1214" y="60" type="line"/>
      <point x="108" y="60" type="line"/>
      <point x="102" y="51" type="line"/>
      <point x="148" y="-53" type="line"/>
      <point x="1214" y="-53" type="line"/>
    </contour>
    <component base="jadeva"/>
  </outline>
</glyph>
<glyph name="dddadeva" format="1">
  <advance width="1052"/>
  <unicode hex="097E"/>
  <outline>
    <contour>
      <point x="968" y="-40" type="line"/>
      <point x="108" y="-40" type="line"/>
      <point x="102" y="-49" type="line"/>
      <point x="148" y="-153" type="line"/>
      <point x="1008" y="-153" type="line"/>
      <point x="1014" y="-144" type="line"/>
    </contour>
    <component base="ddadeva"/>
  </outline>
</glyph>
<glyph name="bbadeva" format="1">
  <advance width="1160"/>
  <unicode hex="097F"/>
  <outline>
    <contour>
      <point x="953" y="60" type="line"/>
      <point x="99" y="60" type="line"/>
      <point x="93" y="51" type="line"/>
      <point x="139" y="-53" type="line"/>
      <point x="953" y="-53" type="line"/>
    </contour>
    <component base="badeva"/>
  </outline>
</glyph>
<glyph name="zerocombiningdigitdeva" format="1">
  <advance width="0"/>
  <unicode hex="A8E0"/>
  <outline>
    <contour>
      <point x="-127" y="721" type="move" name="_class0"/>
    </contour>
  </outline>
</glyph>
<glyph name="onecombiningdigitdeva" format="1">
  <advance width="0"/>
  <unicode hex="A8E1"/>
  <outline>
    <contour>
      <point x="-137" y="681" type="move" name="_class0"/>
    </contour>
  </outline>
</glyph>
<glyph name="twocombiningdigitdeva" format="1">
  <advance width="0"/>
  <unicode hex="A8E2"/>
  <outline>
    <contour>
      <point x="-137" y="675" type="move" name="_class0"/>
    </contour>
  </outline>
</glyph>
<glyph name="threecombiningdigitdeva" format="1">
  <advance width="0"/>
  <unicode hex="A8E3"/>
  <outline>
    <contour>
      <point x="-147" y="671" type="move" name="_class0"/>
    </contour>
  </outline>
</glyph>
<glyph name="fourcombiningdigitdeva" format="1">
  <advance width="0"/>
  <unicode hex="A8E4"/>
  <outline>
    <contour>
      <point x="-130" y="681" type="move" name="_class0"/>
    </contour>
  </outline>
</glyph>
<glyph name="sixcombiningdigitdeva" format="1">
  <advance width="0"/>
  <unicode hex="A8E6"/>
  <outline>
    <contour>
      <point x="-137" y="679" type="move" name="_class0"/>
    </contour>
  </outline>
</glyph>
<glyph name="sevencombiningdigitdeva" format="1">
  <advance width="0"/>
  <unicode hex="A8E7"/>
  <outline>
    <contour>
      <point x="-137" y="681" type="move" name="_class0"/>
    </contour>
  </outline>
</glyph>
<glyph name="ninecombiningdigitdeva" format="1">
  <advance width="0"/>
  <unicode hex="A8E9"/>
  <outline>
    <contour>
      <point x="-137" y="674" type="move" name="_class0"/>
    </contour>
  </outline>
</glyph>
<glyph name="ucombiningletterdeva" format="1">
  <advance width="0"/>
  <unicode hex="A8EB"/>
  <outline>
    <contour>
      <point x="-137" y="681" type="move" name="_class0"/>
    </contour>
  </outline>
</glyph>
<glyph name="kacombiningletterdeva" format="1">
  <advance width="0"/>
  <unicode hex="A8EC"/>
  <outline>
    <contour>
      <point x="-131" y="681" type="move" name="_class0"/>
    </contour>
  </outline>
</glyph>
<glyph name="pacombiningletterdeva" format="1">
  <advance width="0"/>
  <unicode hex="A8EE"/>
  <outline>
    <contour>
      <point x="-137" y="681" type="move" name="_class0"/>
    </contour>
  </outline>
</glyph>
<glyph name="racombiningletterdeva" format="1">
  <advance width="0"/>
  <unicode hex="A8EF"/>
  <outline>
    <contour>
      <point x="-137" y="681" type="move" name="_class0"/>
    </contour>
  </outline>
</glyph>
<glyph name="avagrahacombiningsigndeva" format="1">
  <advance width="0"/>
  <unicode hex="A8F1"/>
  <outline>
    <contour>
      <point x="-137" y="681" type="move" name="_class0"/>
    </contour>
  </outline>
</glyph>
<glyph name="ba_virama_ra_viramadeva" format="1">
  <advance width="603"/>
  <unicode hex="FFFD"/>
  <outline>
    <contour>
      <point x="716" y="1206" type="line"/>
      <point x="660" y="1330" type="line"/>
      <point x="-50" y="1330" type="line"/>
      <point x="-56" y="1321" type="line"/>
      <point x="0" y="1197" type="line"/>
      <point x="710" y="1197" type="line"/>
    </contour>
    <contour>
      <point x="842" y="570" type="line"/>
      <point x="798.631" y="535.715"/>
      <point x="758.354" y="506.754"/>
      <point x="720.362" y="482.941" type="curve"/>
      <point x="406.84" y="865.452" type="line"/>
      <point x="440.435" y="876.803"/>
      <point x="477.779" y="883"/>
      <point x="518" y="883" type="curve" smooth="yes"/>
      <point x="646" y="883"/>
      <point x="749" y="819"/>
      <point x="827" y="669" type="curve"/>
      <point x="908" y="722" type="line"/>
      <point x="772" y="954"/>
      <point x="609" y="1027"/>
      <point x="453" y="1027" type="curve" smooth="yes"/>
      <point x="234" y="1027"/>
      <point x="79.0001" y="884"/>
      <point x="79.0001" y="696" type="curve" smooth="yes"/>
      <point x="79.0001" y="502"/>
      <point x="242" y="339"/>
      <point x="414" y="282" type="curve"/>
      <point x="416" y="271" type="line"/>
      <point x="139" y="81.9999" type="line"/>
      <point x="142" y="69.9999" type="line"/>
      <point x="262" y="-24.0001" type="line"/>
      <point x="937" y="443" type="line"/>
    </contour>
    <contour>
      <point x="228" y="699.069"/>
      <point x="257.807" y="763.122"/>
      <point x="309.021" y="809.131" type="curve"/>
      <point x="624.091" y="431.597" type="line"/>
      <point x="571.356" y="408.991"/>
      <point x="522.278" y="398"/>
      <point x="474" y="398" type="curve" smooth="yes"/>
      <point x="333" y="398"/>
      <point x="228" y="493"/>
      <point x="228" y="627" type="curve"/>
    </contour>
  </outline>
</glyph>
<glyph name="aisign_ra_virama.alt1" format="1">
  <advance width="0"/>
  <outline>
    <contour>
      <point x="-265.96" y="1924"/>
      <point x="-350.473" y="1851.25"/>
      <point x="-387.013" y="1756.99" type="curve"/>
      <point x="-495.81" y="1986.58"/>
      <point x="-593.956" y="2032"/>
      <point x="-679" y="2032" type="curve" smooth="yes"/>
      <point x="-776" y="2032"/>
      <point x="-825" y="1973"/>
      <point x="-825" y="1913" type="curve" smooth="yes"/>
      <point x="-825" y="1859"/>
      <point x="-784" y="1822"/>
      <point x="-732" y="1801" type="curve"/>
      <point x="-705" y="1839"/>
      <point x="-670" y="1864"/>
      <point x="-622" y="1864" type="curve" smooth="yes"/>
      <point x="-554" y="1864"/>
      <point x="-495" y="1814"/>
      <point x="-372" y="1455" type="curve"/>
      <point x="-380" y="1449" type="line"/>
      <point x="-582" y="1616"/>
      <point x="-807" y="1742"/>
      <point x="-942" y="1742" type="curve" smooth="yes"/>
      <point x="-1025" y="1742"/>
      <point x="-1099" y="1693"/>
      <point x="-1099" y="1619" type="curve" smooth="yes"/>
      <point x="-1099" y="1564"/>
      <point x="-1060" y="1511"/>
      <point x="-983" y="1488" type="curve"/>
      <point x="-956" y="1549"/>
      <point x="-906" y="1587"/>
      <point x="-842" y="1587" type="curve" smooth="yes"/>
      <point x="-738" y="1587"/>
      <point x="-551" y="1489"/>
      <point x="-375" y="1330" type="curve"/>
      <point x="-375" y="1282" type="line"/>
      <point x="-233" y="1282" type="line"/>
      <point x="-233" y="1330" type="line"/>
      <point x="-274" y="1438"/>
      <point x="-289" y="1526"/>
      <point x="-289" y="1584" type="curve" smooth="yes"/>
      <point x="-289" y="1713"/>
      <point x="-216" y="1785"/>
      <point x="-101" y="1785" type="curve" smooth="yes"/>
      <point x="-43.9999" y="1785"/>
      <point x="17.0001" y="1767"/>
      <point x="70.0001" y="1728" type="curve"/>
      <point x="73.0001" y="1738"/>
      <point x="74.0001" y="1748"/>
      <point x="74.0001" y="1757" type="curve" smooth="yes"/>
      <point x="74.0001" y="1843"/>
      <point x="-22.9999" y="1924"/>
      <point x="-148" y="1924" type="curve" smooth="yes"/>
    </contour>
    <contour>
      <point x="-131" y="665" type="move" name="_class0"/>
    </contour>
  </outline>
</glyph>
<glyph name="aisign_ra_virama_anusvara" format="1">
  <advance width="0"/>
  <outline>
    <contour>
      <point x="-120" y="1636"/>
      <point x="-164" y="1592"/>
      <point x="-164" y="1539" type="curve" smooth="yes"/>
      <point x="-164" y="1485"/>
      <point x="-120" y="1441"/>
      <point x="-67" y="1441" type="curve" smooth="yes"/>
      <point x="-13" y="1441"/>
      <point x="31" y="1485"/>
      <point x="31" y="1539" type="curve" smooth="yes"/>
      <point x="31" y="1592"/>
      <point x="-13" y="1636"/>
      <point x="-67" y="1636" type="curve" smooth="yes"/>
    </contour>
    <component base="aisign_ra_virama.alt1"/>
    <contour>
      <point x="-113" y="666" type="move" name="_class0"/>
    </contour>
  </outline>
</glyph>
<glyph name="badeva_viramadeva" format="1">
  <advance width="611"/>
  <outline>
    <contour>
      <point x="716" y="1206" type="line"/>
      <point x="660" y="1330" type="line"/>
      <point x="-50" y="1330" type="line"/>
      <point x="-56" y="1321" type="line"/>
      <point x="0" y="1197" type="line"/>
      <point x="710" y="1197" type="line"/>
    </contour>
    <contour>
      <point x="813" y="598" type="line"/>
      <point x="792.039" y="533.211"/>
      <point x="757.461" y="480.224"/>
      <point x="714.456" y="440.767" type="curve"/>
      <point x="388" y="838" type="line"/>
      <point x="427" y="854"/>
      <point x="471" y="863"/>
      <point x="519" y="863" type="curve" smooth="yes"/>
      <point x="646" y="863"/>
      <point x="751" y="802"/>
      <point x="827" y="649" type="curve"/>
      <point x="908" y="702" type="line"/>
      <point x="807" y="877"/>
      <point x="658" y="1007"/>
      <point x="453" y="1007" type="curve" smooth="yes"/>
      <point x="235" y="1007"/>
      <point x="79.0001" y="861"/>
      <point x="79.0001" y="664" type="curve" smooth="yes"/>
      <point x="79.0001" y="413"/>
      <point x="334" y="219"/>
      <point x="557" y="219" type="curve" smooth="yes"/>
      <point x="727" y="219"/>
      <point x="874" y="331"/>
      <point x="945" y="519" type="curve"/>
    </contour>
    <contour>
      <point x="345" y="358"/>
      <point x="228" y="456"/>
      <point x="228" y="596" type="curve" smooth="yes"/>
      <point x="228" y="665"/>
      <point x="256" y="731"/>
      <point x="296" y="774" type="curve"/>
      <point x="623.524" y="383.591" type="line"/>
      <point x="582.152" y="366.531"/>
      <point x="537.81" y="358"/>
      <point x="494" y="358" type="curve" smooth="yes"/>
    </contour>
  </outline>
</glyph>
<glyph name="badeva_viramadeva_radeva" format="1">
  <advance width="1160"/>
  <outline>
    <contour>
      <point x="340" y="947" type="line"/>
      <point x="219" y="917" type="line"/>
      <point x="678" y="367" type="line"/>
      <point x="799" y="387" type="line"/>
    </contour>
    <component base="vadeva_viramadeva_radeva"/>
  </outline>
</glyph>
<glyph name="cadeva_viramadeva_radeva" format="1">
  <advance width="1321"/>
  <outline>
    <contour>
      <point x="1321" y="1330" type="line"/>
      <point x="-50" y="1330" type="line"/>
      <point x="-56" y="1321" type="line"/>
      <point x="0" y="1197" type="line"/>
      <point x="954" y="1197" type="line"/>
      <point x="954" y="551" type="line"/>
      <point x="825" y="446"/>
      <point x="718" y="399"/>
      <point x="632" y="399" type="curve" smooth="yes"/>
      <point x="496" y="399"/>
      <point x="411" y="471"/>
      <point x="411" y="572" type="curve" smooth="yes"/>
      <point x="411" y="696"/>
      <point x="541" y="830"/>
      <point x="741" y="830" type="curve" smooth="yes"/>
      <point x="796" y="830" type="line"/>
      <point x="802" y="839" type="line"/>
      <point x="746" y="963" type="line"/>
      <point x="68" y="963" type="line"/>
      <point x="62" y="954" type="line"/>
      <point x="118" y="830" type="line"/>
      <point x="345" y="830" type="line"/>
      <point x="349" y="820" type="line"/>
      <point x="305" y="765"/>
      <point x="279" y="696"/>
      <point x="279" y="630" type="curve" smooth="yes"/>
      <point x="279" y="483.833"/>
      <point x="408.061" y="338.364"/>
      <point x="585.772" y="294.397" type="curve"/>
      <point x="269" y="82" type="line"/>
      <point x="272" y="70" type="line"/>
      <point x="392" y="-24" type="line"/>
      <point x="944.495" y="358.752" type="line"/>
      <point x="954" y="354" type="line"/>
      <point x="954" y="19" type="line"/>
      <point x="1105" y="-19" type="line"/>
      <point x="1114" y="-12" type="line"/>
      <point x="1114" y="1197" type="line"/>
      <point x="1371" y="1197" type="line"/>
      <point x="1377" y="1206" type="line"/>
    </contour>
  </outline>
</glyph>
<glyph name="dadeva_viramadeva_radeva" format="1">
  <advance width="1008"/>
  <outline>
    <contour>
      <point x="784" y="819" type="line"/>
      <point x="792" y="827" type="line"/>
      <point x="792" y="1197" type="line"/>
      <point x="1058" y="1197" type="line"/>
      <point x="1064" y="1206" type="line"/>
      <point x="1008" y="1330" type="line"/>
      <point x="-50" y="1330" type="line"/>
      <point x="-56" y="1321" type="line"/>
      <point x="0" y="1197" type="line"/>
      <point x="638" y="1197" type="line"/>
      <point x="638" y="974" type="line" smooth="yes"/>
      <point x="638" y="969"/>
      <point x="635" y="966"/>
      <point x="630" y="966" type="curve" smooth="yes"/>
      <point x="512" y="966" type="line" smooth="yes"/>
      <point x="193" y="966"/>
      <point x="57" y="785"/>
      <point x="57" y="594" type="curve" smooth="yes"/>
      <point x="57" y="383.588"/>
      <point x="221.124" y="168.138"/>
      <point x="444.935" y="107.662" type="curve"/>
      <point x="152" y="-68.0001" type="line"/>
      <point x="155" y="-80.0001" type="line"/>
      <point x="275" y="-174" type="line"/>
      <point x="777.316" y="144.83" type="line"/>
      <point x="781" y="147" type="line"/>
      <point x="835" y="89.9999"/>
      <point x="854" y="49.9999"/>
      <point x="854" y="5.99991" type="curve" smooth="yes"/>
      <point x="854" y="-58.0001"/>
      <point x="815" y="-97.0001"/>
      <point x="765" y="-118" type="curve"/>
      <point x="779" y="-170"/>
      <point x="821" y="-202"/>
      <point x="872" y="-202" type="curve" smooth="yes"/>
      <point x="940" y="-202"/>
      <point x="978" y="-145"/>
      <point x="978" y="-74.0001" type="curve" smooth="yes"/>
      <point x="978" y="-13.0001"/>
      <point x="950" y="60.9999"/>
      <point x="843" y="188" type="curve"/>
      <point x="884" y="226"/>
      <point x="915" y="280"/>
      <point x="915" y="339" type="curve" smooth="yes"/>
      <point x="915" y="420"/>
      <point x="856" y="499"/>
      <point x="763" y="499" type="curve" smooth="yes"/>
      <point x="682" y="499"/>
      <point x="629" y="438"/>
      <point x="629" y="364" type="curve" smooth="yes"/>
      <point x="629" y="325"/>
      <point x="644" y="292"/>
      <point x="673" y="257" type="curve"/>
      <point x="620" y="222"/>
      <point x="570" y="209"/>
      <point x="511" y="209" type="curve" smooth="yes"/>
      <point x="312" y="209"/>
      <point x="199" y="360"/>
      <point x="199" y="518" type="curve" smooth="yes"/>
      <point x="199" y="690"/>
      <point x="334" y="819"/>
      <point x="563" y="819" type="curve" smooth="yes"/>
    </contour>
  </outline>
</glyph>
<glyph name="ddadeva_viramadeva_yadeva" format="1">
  <advance width="2186"/>
  <outline>
    <contour>
      <point x="2186" y="1330" type="line"/>
      <point x="-50" y="1330" type="line"/>
      <point x="-56" y="1321" type="line"/>
      <point x="0" y="1197" type="line"/>
      <point x="708" y="1197" type="line"/>
      <point x="708" y="1046" type="line" smooth="yes"/>
      <point x="708" y="1041"/>
      <point x="705" y="1038"/>
      <point x="700" y="1038" type="curve" smooth="yes"/>
      <point x="377" y="1038" type="line" smooth="yes"/>
      <point x="245" y="1038"/>
      <point x="184" y="974"/>
      <point x="184" y="892" type="curve" smooth="yes"/>
      <point x="184" y="741"/>
      <point x="358" y="542"/>
      <point x="526" y="542" type="curve" smooth="yes"/>
      <point x="575" y="542"/>
      <point x="692" y="559"/>
      <point x="739" y="559" type="curve" smooth="yes"/>
      <point x="818" y="559"/>
      <point x="845" y="509"/>
      <point x="845" y="452" type="curve" smooth="yes"/>
      <point x="845" y="334"/>
      <point x="728" y="255"/>
      <point x="593" y="255" type="curve" smooth="yes"/>
      <point x="427" y="255"/>
      <point x="254" y="373"/>
      <point x="133" y="616" type="curve"/>
      <point x="105" y="602"/>
      <point x="88" y="575"/>
      <point x="91" y="535" type="curve" smooth="yes"/>
      <point x="101" y="411"/>
      <point x="322" y="99"/>
      <point x="644" y="99" type="curve" smooth="yes"/>
      <point x="837" y="99"/>
      <point x="950" y="211"/>
      <point x="950" y="376" type="curve" smooth="yes"/>
      <point x="950" y="560"/>
      <point x="810" y="721"/>
      <point x="666" y="721" type="curve" smooth="yes"/>
      <point x="614" y="721"/>
      <point x="502" y="700"/>
      <point x="444" y="700" type="curve" smooth="yes"/>
      <point x="360" y="700"/>
      <point x="316" y="743"/>
      <point x="316" y="807" type="curve" smooth="yes"/>
      <point x="316" y="865"/>
      <point x="352" y="905"/>
      <point x="459" y="905" type="curve" smooth="yes"/>
      <point x="1299" y="905" type="line" smooth="yes"/>
      <point x="1382" y="905"/>
      <point x="1410" y="886"/>
      <point x="1410" y="841" type="curve" smooth="yes"/>
      <point x="1410" y="761"/>
      <point x="1324" y="686"/>
      <point x="1095" y="625" type="curve"/>
      <point x="1090" y="615" type="line"/>
      <point x="1242" y="313"/>
      <point x="1417" y="186"/>
      <point x="1598" y="186" type="curve" smooth="yes"/>
      <point x="1678" y="186"/>
      <point x="1752" y="211"/>
      <point x="1809" y="254" type="curve"/>
      <point x="1819" y="249" type="line"/>
      <point x="1819" y="24" type="line"/>
      <point x="1970" y="-14" type="line"/>
      <point x="1979" y="-7" type="line"/>
      <point x="1979" y="1197" type="line"/>
      <point x="2236" y="1197" type="line"/>
      <point x="2242" y="1206" type="line"/>
    </contour>
    <contour>
      <point x="1819" y="615" type="line" smooth="yes"/>
      <point x="1819" y="453"/>
      <point x="1676" y="346"/>
      <point x="1532" y="346" type="curve" smooth="yes"/>
      <point x="1441" y="346"/>
      <point x="1342" y="388"/>
      <point x="1275" y="503" type="curve"/>
      <point x="1420" y="557"/>
      <point x="1530" y="639"/>
      <point x="1530" y="764" type="curve" smooth="yes"/>
      <point x="1530" y="892"/>
      <point x="1415" y="1038"/>
      <point x="1261" y="1038" type="curve" smooth="yes"/>
      <point x="862" y="1038" type="line"/>
      <point x="862" y="1197" type="line"/>
      <point x="1819" y="1197" type="line"/>
    </contour>
  </outline>
</glyph>
<glyph name="dhadeva_viramadeva" format="1">
  <advance width="779"/>
  <outline>
    <contour>
      <point x="194" y="1387"/>
      <point x="100" y="1280"/>
      <point x="100" y="1151" type="curve" smooth="yes"/>
      <point x="100" y="1021"/>
      <point x="196" y="895"/>
      <point x="374" y="792" type="curve"/>
      <point x="321" y="729"/>
      <point x="293" y="650"/>
      <point x="293" y="581" type="curve" smooth="yes"/>
      <point x="293" y="403"/>
      <point x="476" y="221"/>
      <point x="706" y="221" type="curve" smooth="yes"/>
      <point x="855" y="221"/>
      <point x="1034" y="297"/>
      <point x="1091" y="511" type="curve"/>
      <point x="968" y="580" type="line"/>
      <point x="905" y="427"/>
      <point x="765" y="351"/>
      <point x="634" y="351" type="curve" smooth="yes"/>
      <point x="496" y="351"/>
      <point x="425" y="435"/>
      <point x="425" y="522" type="curve" smooth="yes"/>
      <point x="425" y="624"/>
      <point x="524" y="743"/>
      <point x="747" y="778" type="curve"/>
      <point x="751" y="789" type="line"/>
      <point x="640" y="918" type="line"/>
      <point x="563" y="910"/>
      <point x="494" y="884"/>
      <point x="439" y="846" type="curve"/>
      <point x="312" y="923"/>
      <point x="256" y="1009"/>
      <point x="256" y="1094" type="curve" smooth="yes"/>
      <point x="256" y="1182"/>
      <point x="316" y="1249"/>
      <point x="398" y="1249" type="curve" smooth="yes"/>
      <point x="466" y="1249"/>
      <point x="519" y="1203"/>
      <point x="557" y="1087" type="curve"/>
      <point x="567" y="1087"/>
      <point x="590" y="1103"/>
      <point x="590" y="1158" type="curve" smooth="yes"/>
      <point x="590" y="1278"/>
      <point x="482" y="1387"/>
      <point x="337" y="1387" type="curve" smooth="yes"/>
    </contour>
    <contour>
      <point x="815" y="1330" type="line"/>
      <point x="704" y="1330" type="line"/>
      <point x="698" y="1321" type="line"/>
      <point x="754" y="1197" type="line"/>
      <point x="865" y="1197" type="line"/>
      <point x="871" y="1206" type="line"/>
    </contour>
  </outline>
</glyph>
<glyph name="dhadeva_viramadeva_radeva" format="1">
  <advance width="1315"/>
  <outline>
    <contour>
      <point x="1315" y="1330" type="line"/>
      <point x="704" y="1330" type="line"/>
      <point x="698" y="1321" type="line"/>
      <point x="754" y="1197" type="line"/>
      <point x="948" y="1197" type="line"/>
      <point x="948" y="529" type="line"/>
      <point x="809" y="436"/>
      <point x="719" y="398"/>
      <point x="630" y="398" type="curve" smooth="yes"/>
      <point x="503" y="398"/>
      <point x="425" y="460"/>
      <point x="425" y="546" type="curve" smooth="yes"/>
      <point x="425" y="648"/>
      <point x="534" y="748"/>
      <point x="748" y="797" type="curve"/>
      <point x="752" y="808" type="line"/>
      <point x="640" y="938" type="line"/>
      <point x="566.942" y="919.53"/>
      <point x="495.401" y="888.763"/>
      <point x="436.438" y="847.634" type="curve"/>
      <point x="311.616" y="923.621"/>
      <point x="256" y="1009.71"/>
      <point x="256" y="1094" type="curve" smooth="yes"/>
      <point x="256" y="1182"/>
      <point x="316" y="1249"/>
      <point x="398" y="1249" type="curve" smooth="yes"/>
      <point x="466" y="1249"/>
      <point x="519" y="1203"/>
      <point x="557" y="1087" type="curve"/>
      <point x="567" y="1087"/>
      <point x="590" y="1103"/>
      <point x="590" y="1158" type="curve" smooth="yes"/>
      <point x="590" y="1278"/>
      <point x="482" y="1387"/>
      <point x="337" y="1387" type="curve" smooth="yes"/>
      <point x="194" y="1387"/>
      <point x="100" y="1280"/>
      <point x="100" y="1151" type="curve" smooth="yes"/>
      <point x="100" y="1021.76"/>
      <point x="195.814" y="895.309"/>
      <point x="372.19" y="793.182" type="curve"/>
      <point x="323.482" y="742.334"/>
      <point x="293" y="681.225"/>
      <point x="293" y="612" type="curve" smooth="yes"/>
      <point x="293" y="470.87"/>
      <point x="419.812" y="329.051"/>
      <point x="593.333" y="284.952" type="curve"/>
      <point x="293" y="81.9999" type="line"/>
      <point x="296" y="69.9999" type="line"/>
      <point x="416" y="-24.0001" type="line"/>
      <point x="926.711" y="333.823" type="line"/>
      <point x="938" y="341" type="line"/>
      <point x="948" y="336" type="line"/>
      <point x="948" y="19" type="line"/>
      <point x="1099" y="-19" type="line"/>
      <point x="1108" y="-12" type="line"/>
      <point x="1108" y="1197" type="line"/>
      <point x="1365" y="1197" type="line"/>
      <point x="1371" y="1206" type="line"/>
    </contour>
  </outline>
</glyph>
<glyph name="esign_ra_virama.alt1" format="1">
  <advance width="0"/>
  <outline>
    <contour>
      <point x="-407.209" y="1924"/>
      <point x="-507.499" y="1801.41"/>
      <point x="-506.624" y="1648.82" type="curve"/>
      <point x="-725.704" y="1892.63"/>
      <point x="-836.458" y="1932"/>
      <point x="-932" y="1932" type="curve" smooth="yes"/>
      <point x="-1059" y="1932"/>
      <point x="-1115" y="1861"/>
      <point x="-1115" y="1793" type="curve" smooth="yes"/>
      <point x="-1115" y="1735"/>
      <point x="-1073" y="1680"/>
      <point x="-996" y="1658" type="curve"/>
      <point x="-969" y="1708"/>
      <point x="-922" y="1751"/>
      <point x="-840" y="1751" type="curve" smooth="yes"/>
      <point x="-738" y="1751"/>
      <point x="-645" y="1684"/>
      <point x="-362" y="1330" type="curve"/>
      <point x="-362" y="1272" type="line"/>
      <point x="-236" y="1272" type="line"/>
      <point x="-236" y="1330" type="line"/>
      <point x="-352" y="1469"/>
      <point x="-379" y="1530"/>
      <point x="-379" y="1601" type="curve" smooth="yes"/>
      <point x="-379" y="1711"/>
      <point x="-313" y="1785"/>
      <point x="-200" y="1785" type="curve" smooth="yes"/>
      <point x="-144" y="1785"/>
      <point x="-83" y="1767"/>
      <point x="-30" y="1728" type="curve"/>
      <point x="-27" y="1738"/>
      <point x="-26" y="1748"/>
      <point x="-26" y="1757" type="curve" smooth="yes"/>
      <point x="-26" y="1843"/>
      <point x="-122" y="1924"/>
      <point x="-250" y="1924" type="curve" smooth="yes"/>
    </contour>
    <contour>
      <point x="-125" y="665" type="move" name="_class0"/>
    </contour>
  </outline>
</glyph>
<glyph name="esign_ra_virama_anusvara" format="1">
  <advance width="0"/>
  <outline>
    <contour>
      <point x="-190" y="1636"/>
      <point x="-234" y="1592"/>
      <point x="-234" y="1539" type="curve" smooth="yes"/>
      <point x="-234" y="1485"/>
      <point x="-190" y="1441"/>
      <point x="-137" y="1441" type="curve" smooth="yes"/>
      <point x="-83" y="1441"/>
      <point x="-39" y="1485"/>
      <point x="-39" y="1539" type="curve" smooth="yes"/>
      <point x="-39" y="1592"/>
      <point x="-83" y="1636"/>
      <point x="-137" y="1636" type="curve" smooth="yes"/>
    </contour>
    <component base="esign_ra_virama.alt1"/>
    <contour>
      <point x="-125" y="665" type="move" name="_class0"/>
    </contour>
  </outline>
</glyph>
<glyph name="gadeva_viramadeva" format="1">
  <advance width="634"/>
  <outline>
    <contour>
      <point x="761" y="1330" type="line"/>
      <point x="-50" y="1330" type="line"/>
      <point x="-56" y="1321" type="line"/>
      <point x="0" y="1197" type="line"/>
      <point x="284" y="1197" type="line"/>
      <point x="284" y="666" type="line"/>
      <point x="169" y="666" type="line" smooth="yes"/>
      <point x="113" y="666"/>
      <point x="90" y="643"/>
      <point x="90" y="603" type="curve" smooth="yes"/>
      <point x="90" y="535"/>
      <point x="261" y="363"/>
      <point x="333" y="363" type="curve" smooth="yes"/>
      <point x="408" y="363"/>
      <point x="439" y="398"/>
      <point x="439" y="544" type="curve" smooth="yes"/>
      <point x="439" y="1197" type="line"/>
      <point x="811" y="1197" type="line"/>
      <point x="817" y="1206" type="line"/>
    </contour>
  </outline>
</glyph>
<glyph name="ghadeva_viramadeva_radeva" format="1">
  <advance width="1261"/>
  <outline>
    <contour>
      <point x="1261" y="1330" type="line"/>
      <point x="-50" y="1330" type="line"/>
      <point x="-56" y="1321" type="line"/>
      <point x="0" y="1197" type="line"/>
      <point x="127" y="1197" type="line"/>
      <point x="132" y="1187" type="line"/>
      <point x="108" y="1149"/>
      <point x="96" y="1103"/>
      <point x="96" y="1054" type="curve" smooth="yes"/>
      <point x="96" y="928.1"/>
      <point x="175.903" y="833.829"/>
      <point x="314.448" y="762.833" type="curve"/>
      <point x="278.534" y="716.796"/>
      <point x="259" y="665.677"/>
      <point x="259" y="610" type="curve" smooth="yes"/>
      <point x="259" y="472.024"/>
      <point x="377.714" y="332.025"/>
      <point x="541.464" y="286.392" type="curve"/>
      <point x="239" y="82.0002" type="line"/>
      <point x="242" y="70.0002" type="line"/>
      <point x="362" y="-23.9998" type="line"/>
      <point x="872.775" y="333.868" type="line"/>
      <point x="884" y="341" type="line"/>
      <point x="894" y="336" type="line"/>
      <point x="894" y="19.0002" type="line"/>
      <point x="1045" y="-18.9998" type="line"/>
      <point x="1054" y="-11.9998" type="line"/>
      <point x="1054" y="1197" type="line"/>
      <point x="1311" y="1197" type="line"/>
      <point x="1317" y="1206" type="line"/>
    </contour>
    <contour>
      <point x="391" y="652"/>
      <point x="501" y="750"/>
      <point x="694" y="797" type="curve"/>
      <point x="698" y="808" type="line"/>
      <point x="586" y="938" type="line"/>
      <point x="507.914" y="916.704"/>
      <point x="426.679" y="874.149"/>
      <point x="371.638" y="826.404" type="curve"/>
      <point x="283.554" y="874.621"/>
      <point x="252" y="920.96"/>
      <point x="252" y="985" type="curve" smooth="yes"/>
      <point x="252" y="1093"/>
      <point x="339" y="1197"/>
      <point x="464" y="1197" type="curve" smooth="yes"/>
      <point x="894" y="1197" type="line"/>
      <point x="894" y="529" type="line"/>
      <point x="755" y="436"/>
      <point x="665" y="398"/>
      <point x="576" y="398" type="curve" smooth="yes"/>
      <point x="461" y="398"/>
      <point x="391" y="461"/>
      <point x="391" y="546" type="curve" smooth="yes"/>
    </contour>
  </outline>
</glyph>
<glyph name="hadeva_viramadeva_madeva" format="1">
  <advance width="1436"/>
  <outline>
    <contour>
      <point x="1436" y="1330" type="line"/>
      <point x="-50" y="1330" type="line"/>
      <point x="-56" y="1321" type="line"/>
      <point x="0" y="1197" type="line"/>
      <point x="658" y="1197" type="line"/>
      <point x="658" y="1044" type="line" smooth="yes"/>
      <point x="658" y="1039"/>
      <point x="655" y="1036"/>
      <point x="650" y="1036" type="curve" smooth="yes"/>
      <point x="297" y="1036" type="line" smooth="yes"/>
      <point x="160" y="1036"/>
      <point x="94" y="958"/>
      <point x="94" y="859" type="curve" smooth="yes"/>
      <point x="94" y="778"/>
      <point x="138" y="683"/>
      <point x="223" y="608" type="curve"/>
      <point x="172" y="545"/>
      <point x="143" y="463"/>
      <point x="143" y="362" type="curve" smooth="yes"/>
      <point x="143" y="7"/>
      <point x="499" y="-188"/>
      <point x="670" y="-188" type="curve" smooth="yes"/>
      <point x="743" y="-188"/>
      <point x="768" y="-153"/>
      <point x="768" y="-112" type="curve"/>
      <point x="513" y="-91"/>
      <point x="289" y="109"/>
      <point x="289" y="324" type="curve" smooth="yes"/>
      <point x="289" y="487"/>
      <point x="417" y="617"/>
      <point x="563" y="617" type="curve" smooth="yes"/>
      <point x="632" y="617"/>
      <point x="666" y="588"/>
      <point x="666" y="493" type="curve" smooth="yes"/>
      <point x="666" y="363" type="line"/>
      <point x="595" y="361"/>
      <point x="545" y="337"/>
      <point x="545" y="288" type="curve" smooth="yes"/>
      <point x="545" y="203"/>
      <point x="694" y="86"/>
      <point x="759" y="86" type="curve" smooth="yes"/>
      <point x="786" y="86"/>
      <point x="810" y="107"/>
      <point x="810" y="158" type="curve" smooth="yes"/>
      <point x="810" y="232" type="line"/>
      <point x="1069" y="232" type="line"/>
      <point x="1069" y="-48" type="line"/>
      <point x="1220" y="-86" type="line"/>
      <point x="1229" y="-79" type="line"/>
      <point x="1229" y="1197" type="line"/>
      <point x="1486" y="1197" type="line"/>
      <point x="1492" y="1206" type="line"/>
    </contour>
    <contour>
      <point x="1069" y="1197" type="line"/>
      <point x="1069" y="364" type="line"/>
      <point x="810" y="364" type="line"/>
      <point x="810" y="426" type="line" smooth="yes"/>
      <point x="810" y="601"/>
      <point x="655" y="740"/>
      <point x="496" y="740" type="curve" smooth="yes"/>
      <point x="420" y="740"/>
      <point x="341" y="708"/>
      <point x="287" y="669" type="curve"/>
      <point x="250" y="708"/>
      <point x="239" y="748"/>
      <point x="239" y="779" type="curve" smooth="yes"/>
      <point x="239" y="837"/>
      <point x="277" y="895"/>
      <point x="379" y="895" type="curve" smooth="yes"/>
      <point x="804" y="895" type="line"/>
      <point x="812" y="903" type="line"/>
      <point x="812" y="1197" type="line"/>
    </contour>
  </outline>
</glyph>
<glyph name="hadeva_viramadeva_yadeva" format="1">
  <advance width="1466"/>
  <outline>
    <contour>
      <point x="1466" y="1330" type="line"/>
      <point x="-50" y="1330" type="line"/>
      <point x="-56" y="1321" type="line"/>
      <point x="0" y="1197" type="line"/>
      <point x="658" y="1197" type="line"/>
      <point x="658" y="1044" type="line" smooth="yes"/>
      <point x="658" y="1039"/>
      <point x="655" y="1036"/>
      <point x="650" y="1036" type="curve" smooth="yes"/>
      <point x="297" y="1036" type="line" smooth="yes"/>
      <point x="160" y="1036"/>
      <point x="94" y="957"/>
      <point x="94" y="863" type="curve" smooth="yes"/>
      <point x="94" y="780"/>
      <point x="145" y="692"/>
      <point x="234" y="627" type="curve"/>
      <point x="185" y="568"/>
      <point x="153" y="488"/>
      <point x="153" y="374" type="curve" smooth="yes"/>
      <point x="153" y="-1"/>
      <point x="502" y="-188"/>
      <point x="670" y="-188" type="curve" smooth="yes"/>
      <point x="743" y="-188"/>
      <point x="768" y="-153"/>
      <point x="768" y="-112" type="curve"/>
      <point x="517" y="-90"/>
      <point x="299" y="106"/>
      <point x="299" y="329" type="curve" smooth="yes"/>
      <point x="299" y="507"/>
      <point x="437" y="638"/>
      <point x="605" y="638" type="curve" smooth="yes"/>
      <point x="689" y="638"/>
      <point x="740" y="605"/>
      <point x="740" y="554" type="curve" smooth="yes"/>
      <point x="740" y="497"/>
      <point x="675" y="426"/>
      <point x="475" y="373" type="curve"/>
      <point x="470" y="363" type="line"/>
      <point x="600" y="120"/>
      <point x="752" y="24"/>
      <point x="897" y="24" type="curve" smooth="yes"/>
      <point x="971" y="24"/>
      <point x="1038" y="49"/>
      <point x="1089" y="92" type="curve"/>
      <point x="1099" y="87" type="line"/>
      <point x="1099" y="-108" type="line"/>
      <point x="1250" y="-146" type="line"/>
      <point x="1259" y="-139" type="line"/>
      <point x="1259" y="1197" type="line"/>
      <point x="1516" y="1197" type="line"/>
      <point x="1522" y="1206" type="line"/>
    </contour>
    <contour>
      <point x="1099" y="1197" type="line"/>
      <point x="1099" y="453" type="line" smooth="yes"/>
      <point x="1099" y="285"/>
      <point x="967" y="174"/>
      <point x="829" y="174" type="curve" smooth="yes"/>
      <point x="768" y="174"/>
      <point x="685" y="196"/>
      <point x="635" y="271" type="curve"/>
      <point x="769" y="319"/>
      <point x="860" y="379"/>
      <point x="860" y="491" type="curve" smooth="yes"/>
      <point x="860" y="630"/>
      <point x="720" y="769"/>
      <point x="534" y="769" type="curve" smooth="yes"/>
      <point x="458" y="769"/>
      <point x="364" y="746"/>
      <point x="293" y="691" type="curve"/>
      <point x="255" y="720"/>
      <point x="239" y="751"/>
      <point x="239" y="784" type="curve" smooth="yes"/>
      <point x="239" y="835"/>
      <point x="277" y="895"/>
      <point x="379" y="895" type="curve" smooth="yes"/>
      <point x="804" y="895" type="line"/>
      <point x="812" y="903" type="line"/>
      <point x="812" y="1197" type="line"/>
    </contour>
  </outline>
</glyph>
<glyph name="iisigndeva_ra_virama" format="1">
  <advance width="573"/>
  <outline>
    <contour>
      <point x="229" y="1915"/>
      <point x="130" y="1782"/>
      <point x="130" y="1639" type="curve" smooth="yes"/>
      <point x="130" y="1524"/>
      <point x="194" y="1411"/>
      <point x="286" y="1329" type="curve"/>
      <point x="286" y="1287" type="line"/>
      <point x="330" y="1287" type="line"/>
      <point x="335" y="1330" type="line"/>
      <point x="278" y="1429"/>
      <point x="258" y="1519"/>
      <point x="258" y="1583" type="curve" smooth="yes"/>
      <point x="258" y="1698"/>
      <point x="324" y="1776"/>
      <point x="438" y="1776" type="curve" smooth="yes"/>
      <point x="492" y="1776"/>
      <point x="554" y="1758"/>
      <point x="607" y="1719" type="curve"/>
      <point x="610" y="1729"/>
      <point x="611" y="1739"/>
      <point x="611" y="1748" type="curve" smooth="yes"/>
      <point x="611" y="1834"/>
      <point x="514" y="1915"/>
      <point x="389" y="1915" type="curve" smooth="yes"/>
    </contour>
    <component base="iisigndeva"/>
  </outline>
</glyph>
<glyph name="jadeva_viramadeva" format="1">
  <advance width="842"/>
  <outline>
    <contour>
      <point x="921" y="1330" type="line"/>
      <point x="-50" y="1330" type="line"/>
      <point x="-56" y="1321" type="line"/>
      <point x="0" y="1197" type="line"/>
      <point x="971" y="1197" type="line"/>
      <point x="977" y="1206" type="line"/>
    </contour>
    <contour>
      <point x="1082" y="923" type="line"/>
      <point x="444" y="923" type="line"/>
      <point x="438" y="914" type="line"/>
      <point x="494" y="790" type="line"/>
      <point x="631" y="790"/>
      <point x="704" y="687"/>
      <point x="704" y="577" type="curve" smooth="yes"/>
      <point x="704" y="457"/>
      <point x="616" y="389"/>
      <point x="511" y="389" type="curve" smooth="yes"/>
      <point x="350" y="389"/>
      <point x="232" y="549"/>
      <point x="171" y="923" type="curve"/>
      <point x="113" y="917"/>
      <point x="99" y="883"/>
      <point x="100" y="826" type="curve" smooth="yes"/>
      <point x="103" y="667"/>
      <point x="231" y="219"/>
      <point x="558" y="219" type="curve" smooth="yes"/>
      <point x="722" y="219"/>
      <point x="842" y="332"/>
      <point x="842" y="505" type="curve" smooth="yes"/>
      <point x="842" y="601"/>
      <point x="805" y="701"/>
      <point x="736" y="780" type="curve"/>
      <point x="741" y="790" type="line"/>
      <point x="1142" y="790" type="line"/>
    </contour>
  </outline>
</glyph>
<glyph name="jadeva_viramadeva_nyadeva" format="1">
  <advance width="1300"/>
  <outline>
    <contour>
      <point x="1300" y="1330" type="line"/>
      <point x="-50" y="1330" type="line"/>
      <point x="-56" y="1321" type="line"/>
      <point x="0" y="1197" type="line"/>
      <point x="932" y="1197" type="line"/>
      <point x="932" y="973" type="line"/>
      <point x="347" y="973" type="line" smooth="yes"/>
      <point x="220" y="973"/>
      <point x="154" y="907"/>
      <point x="154" y="824" type="curve" smooth="yes"/>
      <point x="154" y="726"/>
      <point x="246" y="604"/>
      <point x="411" y="552" type="curve" smooth="yes"/>
      <point x="581" y="499"/>
      <point x="620" y="486"/>
      <point x="620" y="440" type="curve" smooth="yes"/>
      <point x="620" y="377"/>
      <point x="545" y="310"/>
      <point x="390" y="310" type="curve"/>
      <point x="360" y="368"/>
      <point x="308" y="421"/>
      <point x="236" y="421" type="curve" smooth="yes"/>
      <point x="172" y="421"/>
      <point x="135" y="380"/>
      <point x="135" y="324" type="curve" smooth="yes"/>
      <point x="135" y="237"/>
      <point x="226" y="155"/>
      <point x="386" y="149" type="curve"/>
      <point x="449" y="-49"/>
      <point x="541" y="-113"/>
      <point x="624" y="-113" type="curve" smooth="yes"/>
      <point x="687" y="-113"/>
      <point x="734" y="-76"/>
      <point x="734" y="-20" type="curve" smooth="yes"/>
      <point x="734" y="6"/>
      <point x="724" y="37"/>
      <point x="702" y="73" type="curve"/>
      <point x="660" y="48"/>
      <point x="620" y="37"/>
      <point x="590" y="37" type="curve" smooth="yes"/>
      <point x="539" y="37"/>
      <point x="486" y="68"/>
      <point x="454" y="149" type="curve"/>
      <point x="628" y="157"/>
      <point x="736" y="243"/>
      <point x="736" y="371" type="curve" smooth="yes"/>
      <point x="736" y="423"/>
      <point x="718" y="489"/>
      <point x="680" y="546" type="curve" smooth="yes"/>
      <point x="629" y="622"/>
      <point x="574" y="638"/>
      <point x="398" y="684" type="curve" smooth="yes"/>
      <point x="341" y="699"/>
      <point x="316" y="721"/>
      <point x="316" y="756" type="curve" smooth="yes"/>
      <point x="316" y="798"/>
      <point x="352" y="830"/>
      <point x="429" y="830" type="curve" smooth="yes"/>
      <point x="932" y="830" type="line"/>
      <point x="932" y="19" type="line"/>
      <point x="1083" y="-19" type="line"/>
      <point x="1092" y="-12" type="line"/>
      <point x="1092" y="1197" type="line"/>
      <point x="1350" y="1197" type="line"/>
      <point x="1356" y="1206" type="line"/>
    </contour>
  </outline>
</glyph>
<glyph name="jhadeva_viramadeva" format="1">
  <advance width="945"/>
  <outline>
    <contour>
      <point x="1006" y="1330" type="line"/>
      <point x="-50" y="1330" type="line"/>
      <point x="-56" y="1321" type="line"/>
      <point x="0" y="1197" type="line"/>
      <point x="618" y="1197" type="line"/>
      <point x="618" y="1054" type="line" smooth="yes"/>
      <point x="618" y="1049"/>
      <point x="615" y="1046"/>
      <point x="610" y="1046" type="curve" smooth="yes"/>
      <point x="307" y="1046" type="line" smooth="yes"/>
      <point x="175" y="1046"/>
      <point x="114" y="981"/>
      <point x="114" y="897" type="curve" smooth="yes"/>
      <point x="114" y="760"/>
      <point x="274" y="552"/>
      <point x="457" y="552" type="curve" smooth="yes"/>
      <point x="516" y="552"/>
      <point x="667" y="574"/>
      <point x="713" y="574" type="curve" smooth="yes"/>
      <point x="765" y="574"/>
      <point x="795" y="546"/>
      <point x="795" y="500" type="curve" smooth="yes"/>
      <point x="795" y="404"/>
      <point x="662" y="310"/>
      <point x="420" y="310" type="curve"/>
      <point x="380" y="396"/>
      <point x="334" y="447"/>
      <point x="266" y="447" type="curve" smooth="yes"/>
      <point x="213" y="447"/>
      <point x="155" y="416"/>
      <point x="155" y="341" type="curve" smooth="yes"/>
      <point x="155" y="245"/>
      <point x="252" y="155"/>
      <point x="426" y="149" type="curve"/>
      <point x="494" y="-61"/>
      <point x="601" y="-143"/>
      <point x="701" y="-143" type="curve" smooth="yes"/>
      <point x="769" y="-143"/>
      <point x="824" y="-105"/>
      <point x="824" y="-42" type="curve" smooth="yes"/>
      <point x="824" y="-20"/>
      <point x="817" y="5"/>
      <point x="802" y="33" type="curve"/>
      <point x="772" y="23"/>
      <point x="746" y="17"/>
      <point x="704" y="17" type="curve" smooth="yes"/>
      <point x="609" y="17"/>
      <point x="548" y="48"/>
      <point x="494" y="149" type="curve"/>
      <point x="720" y="157"/>
      <point x="886" y="285"/>
      <point x="886" y="436" type="curve" smooth="yes"/>
      <point x="886" y="473"/>
      <point x="876" y="518"/>
      <point x="858" y="560" type="curve"/>
      <point x="865" y="568" type="line"/>
      <point x="909" y="552"/>
      <point x="954" y="543"/>
      <point x="997" y="543" type="curve" smooth="yes"/>
      <point x="1134" y="543"/>
      <point x="1246" y="634"/>
      <point x="1297" y="787" type="curve"/>
      <point x="1156" y="859" type="line"/>
      <point x="1116" y="725"/>
      <point x="1022" y="666"/>
      <point x="908" y="666" type="curve" smooth="yes"/>
      <point x="859" y="666"/>
      <point x="805" y="677"/>
      <point x="751" y="700" type="curve"/>
      <point x="718" y="724"/>
      <point x="677" y="741"/>
      <point x="630" y="741" type="curve" smooth="yes"/>
      <point x="566" y="741"/>
      <point x="430" y="710"/>
      <point x="368" y="710" type="curve" smooth="yes"/>
      <point x="299" y="710"/>
      <point x="256" y="749"/>
      <point x="256" y="810" type="curve" smooth="yes"/>
      <point x="256" y="865"/>
      <point x="291" y="905"/>
      <point x="389" y="905" type="curve" smooth="yes"/>
      <point x="764" y="905" type="line"/>
      <point x="772" y="913" type="line"/>
      <point x="772" y="1197" type="line"/>
      <point x="1056" y="1197" type="line"/>
      <point x="1062" y="1206" type="line"/>
    </contour>
  </outline>
</glyph>
<glyph name="ka_virama_ssa_viramadeva" format="1">
  <advance width="958"/>
  <outline>
    <contour>
      <point x="1156" y="909" type="line"/>
      <point x="1085" y="786"/>
      <point x="972" y="726"/>
      <point x="845" y="726" type="curve" smooth="yes"/>
      <point x="786.83" y="726"/>
      <point x="725.681" y="738.722"/>
      <point x="667.927" y="761.15" type="curve"/>
      <point x="778.682" y="857.955"/>
      <point x="828" y="931.71"/>
      <point x="828" y="1033" type="curve" smooth="yes"/>
      <point x="828" y="1211"/>
      <point x="674" y="1387"/>
      <point x="487" y="1387" type="curve" smooth="yes"/>
      <point x="341" y="1387"/>
      <point x="233" y="1279"/>
      <point x="233" y="1132" type="curve" smooth="yes"/>
      <point x="233" y="1006.69"/>
      <point x="311.838" y="882.999"/>
      <point x="425.184" y="784.934" type="curve"/>
      <point x="384.595" y="755.893"/>
      <point x="344.123" y="728.153"/>
      <point x="308" y="701" type="curve" smooth="yes"/>
      <point x="189" y="611"/>
      <point x="128" y="534"/>
      <point x="128" y="428" type="curve" smooth="yes"/>
      <point x="128" y="253"/>
      <point x="297" y="67"/>
      <point x="520" y="67" type="curve" smooth="yes"/>
      <point x="591.254" y="67"/>
      <point x="657.748" y="84.4527"/>
      <point x="708.884" y="114.412" type="curve"/>
      <point x="759.661" y="55.1707"/>
      <point x="774" y="23.7145"/>
      <point x="774" y="-11.0001" type="curve" smooth="yes"/>
      <point x="774" y="-78.0001"/>
      <point x="721" y="-122"/>
      <point x="655" y="-122" type="curve"/>
      <point x="671" y="-186"/>
      <point x="721" y="-226"/>
      <point x="783" y="-226" type="curve" smooth="yes"/>
      <point x="856" y="-226"/>
      <point x="898" y="-169"/>
      <point x="898" y="-97.0001" type="curve" smooth="yes"/>
      <point x="898" y="-38.5422"/>
      <point x="870.499" y="34.4748"/>
      <point x="766.034" y="159.877" type="curve"/>
      <point x="807.434" y="201.79"/>
      <point x="835" y="257.55"/>
      <point x="835" y="314" type="curve" smooth="yes"/>
      <point x="835" y="396"/>
      <point x="776" y="475"/>
      <point x="683" y="475" type="curve" smooth="yes"/>
      <point x="602" y="475"/>
      <point x="549" y="414"/>
      <point x="549" y="340" type="curve" smooth="yes"/>
      <point x="549" y="300.54"/>
      <point x="563.966" y="268.264"/>
      <point x="590.656" y="236.224" type="curve"/>
      <point x="547.739" y="208.921"/>
      <point x="493.224" y="195"/>
      <point x="446" y="195" type="curve" smooth="yes"/>
      <point x="335" y="195"/>
      <point x="268" y="262"/>
      <point x="268" y="354" type="curve" smooth="yes"/>
      <point x="268" y="435"/>
      <point x="320" y="491"/>
      <point x="422" y="568" type="curve" smooth="yes"/>
      <point x="478.377" y="610.578"/>
      <point x="528.304" y="648.3"/>
      <point x="572.133" y="682.635" type="curve"/>
      <point x="682.426" y="621.376"/>
      <point x="804.358" y="584"/>
      <point x="913" y="584" type="curve" smooth="yes"/>
      <point x="1044" y="584"/>
      <point x="1163" y="638"/>
      <point x="1258" y="763" type="curve"/>
    </contour>
    <contour>
      <point x="1029" y="1197" type="line"/>
      <point x="1035" y="1206" type="line"/>
      <point x="979" y="1330" type="line"/>
      <point x="869" y="1330" type="line"/>
      <point x="863" y="1321" type="line"/>
      <point x="919" y="1197" type="line"/>
    </contour>
    <contour>
      <point x="398" y="1166"/>
      <point x="467" y="1258"/>
      <point x="555" y="1258" type="curve" smooth="yes"/>
      <point x="616" y="1258"/>
      <point x="680" y="1215"/>
      <point x="680" y="1117" type="curve" smooth="yes"/>
      <point x="680" y="1011.89"/>
      <point x="605.621" y="926.792"/>
      <point x="514.074" y="852.075" type="curve"/>
      <point x="444.533" y="911.631"/>
      <point x="398" y="987.316"/>
      <point x="398" y="1068" type="curve" smooth="yes"/>
    </contour>
  </outline>
</glyph>
<glyph name="kadeva_viramadeva" format="1">
  <advance width="1179"/>
  <outline>
    <contour>
      <point x="1290" y="1330" type="line"/>
      <point x="-50" y="1330" type="line"/>
      <point x="-56" y="1321" type="line"/>
      <point x="0" y="1197" type="line"/>
      <point x="733" y="1197" type="line"/>
      <point x="733" y="856" type="line"/>
      <point x="723" y="853" type="line"/>
      <point x="635" y="951"/>
      <point x="515" y="987"/>
      <point x="420" y="987" type="curve" smooth="yes"/>
      <point x="235" y="987"/>
      <point x="99" y="849"/>
      <point x="99" y="667" type="curve" smooth="yes"/>
      <point x="99" y="421"/>
      <point x="349" y="219"/>
      <point x="552" y="219" type="curve" smooth="yes"/>
      <point x="611" y="219"/>
      <point x="672" y="236"/>
      <point x="723" y="274" type="curve"/>
      <point x="733" y="269" type="line"/>
      <point x="733" y="19" type="line"/>
      <point x="884" y="-19" type="line"/>
      <point x="893" y="-12" type="line"/>
      <point x="893" y="447" type="line" smooth="yes"/>
      <point x="893" y="628"/>
      <point x="1040" y="761"/>
      <point x="1157" y="761" type="curve" smooth="yes"/>
      <point x="1231" y="761"/>
      <point x="1310" y="707"/>
      <point x="1352" y="593" type="curve"/>
      <point x="1419" y="628" type="line"/>
      <point x="1374" y="782"/>
      <point x="1244" y="892"/>
      <point x="1107" y="892" type="curve" smooth="yes"/>
      <point x="1026" y="892"/>
      <point x="953" y="854"/>
      <point x="903" y="797" type="curve"/>
      <point x="893" y="800" type="line"/>
      <point x="893" y="1197" type="line"/>
      <point x="1340" y="1197" type="line"/>
      <point x="1346" y="1206" type="line"/>
    </contour>
    <contour>
      <point x="627" y="843"/>
      <point x="733" y="740"/>
      <point x="733" y="622" type="curve" smooth="yes"/>
      <point x="733" y="568" type="line" smooth="yes"/>
      <point x="733" y="444"/>
      <point x="614" y="358"/>
      <point x="486" y="358" type="curve" smooth="yes"/>
      <point x="350" y="358"/>
      <point x="248" y="456"/>
      <point x="248" y="596" type="curve" smooth="yes"/>
      <point x="248" y="734"/>
      <point x="347" y="843"/>
      <point x="489" y="843" type="curve" smooth="yes"/>
    </contour>
  </outline>
</glyph>
<glyph name="kadeva_viramadeva_ssadeva" format="1">
  <advance width="1479"/>
  <outline>
    <contour>
      <point x="1479" y="1330" type="line"/>
      <point x="869" y="1330" type="line"/>
      <point x="863" y="1321" type="line"/>
      <point x="919" y="1197" type="line"/>
      <point x="1112" y="1197" type="line"/>
      <point x="1112" y="959" type="line" smooth="yes"/>
      <point x="1112" y="799"/>
      <point x="979" y="726"/>
      <point x="842" y="726" type="curve" smooth="yes"/>
      <point x="785.118" y="726"/>
      <point x="724.871" y="738.654"/>
      <point x="667.721" y="760.97" type="curve"/>
      <point x="778.621" y="857.864"/>
      <point x="828" y="931.647"/>
      <point x="828" y="1033" type="curve" smooth="yes"/>
      <point x="828" y="1211"/>
      <point x="674" y="1387"/>
      <point x="487" y="1387" type="curve" smooth="yes"/>
      <point x="341" y="1387"/>
      <point x="233" y="1279"/>
      <point x="233" y="1132" type="curve" smooth="yes"/>
      <point x="233" y="1006.65"/>
      <point x="311.681" y="882.927"/>
      <point x="425.131" y="784.849" type="curve"/>
      <point x="384.737" y="755.913"/>
      <point x="344.341" y="728.196"/>
      <point x="308" y="701" type="curve" smooth="yes"/>
      <point x="187" y="610"/>
      <point x="128" y="532"/>
      <point x="128" y="428" type="curve" smooth="yes"/>
      <point x="128" y="253"/>
      <point x="297" y="67"/>
      <point x="520" y="67" type="curve" smooth="yes"/>
      <point x="591.254" y="67"/>
      <point x="657.748" y="84.4527"/>
      <point x="708.884" y="114.412" type="curve"/>
      <point x="759.661" y="55.1707"/>
      <point x="774" y="23.7145"/>
      <point x="774" y="-11.0001" type="curve" smooth="yes"/>
      <point x="774" y="-78.0001"/>
      <point x="721" y="-122"/>
      <point x="655" y="-122" type="curve"/>
      <point x="671" y="-186"/>
      <point x="721" y="-226"/>
      <point x="783" y="-226" type="curve" smooth="yes"/>
      <point x="856" y="-226"/>
      <point x="898" y="-169"/>
      <point x="898" y="-97.0001" type="curve" smooth="yes"/>
      <point x="898" y="-38.5422"/>
      <point x="870.499" y="34.4748"/>
      <point x="766.034" y="159.877" type="curve"/>
      <point x="807.434" y="201.79"/>
      <point x="835" y="257.55"/>
      <point x="835" y="314" type="curve" smooth="yes"/>
      <point x="835" y="396"/>
      <point x="776" y="475"/>
      <point x="683" y="475" type="curve" smooth="yes"/>
      <point x="602" y="475"/>
      <point x="549" y="414"/>
      <point x="549" y="340" type="curve" smooth="yes"/>
      <point x="549" y="300.54"/>
      <point x="563.966" y="268.264"/>
      <point x="590.656" y="236.224" type="curve"/>
      <point x="547.739" y="208.921"/>
      <point x="493.223" y="195"/>
      <point x="446" y="195" type="curve" smooth="yes"/>
      <point x="335" y="195"/>
      <point x="268" y="262"/>
      <point x="268" y="354" type="curve" smooth="yes"/>
      <point x="268" y="435"/>
      <point x="320" y="491"/>
      <point x="422" y="568" type="curve" smooth="yes"/>
      <point x="478.387" y="610.586"/>
      <point x="528.321" y="648.313"/>
      <point x="572.156" y="682.653" type="curve"/>
      <point x="682.723" y="621.384"/>
      <point x="805.231" y="584"/>
      <point x="915" y="584" type="curve" smooth="yes"/>
      <point x="985.674" y="584"/>
      <point x="1052.76" y="599.53"/>
      <point x="1112" y="632.85" type="curve"/>
      <point x="1112" y="18.9999" type="line"/>
      <point x="1263" y="-19.0001" type="line"/>
      <point x="1272" y="-12.0001" type="line"/>
      <point x="1272" y="1197" type="line"/>
      <point x="1529" y="1197" type="line"/>
      <point x="1535" y="1206" type="line"/>
    </contour>
    <contour>
      <point x="398" y="1166"/>
      <point x="467" y="1258"/>
      <point x="555" y="1258" type="curve" smooth="yes"/>
      <point x="616" y="1258"/>
      <point x="680" y="1215"/>
      <point x="680" y="1117" type="curve" smooth="yes"/>
      <point x="680" y="1012.15"/>
      <point x="605.839" y="927.099"/>
      <point x="514.086" y="852.126" type="curve"/>
      <point x="444.699" y="911.674"/>
      <point x="398" y="987.339"/>
      <point x="398" y="1068" type="curve"/>
    </contour>
  </outline>
</glyph>
<glyph name="khadeva_viramadeva" format="1">
  <advance width="1042"/>
  <outline>
    <contour>
      <point x="1086" y="1330" type="line"/>
      <point x="-50" y="1330" type="line"/>
      <point x="-56" y="1321" type="line"/>
      <point x="0" y="1197" type="line"/>
      <point x="313" y="1197" type="line"/>
      <point x="361" y="1098"/>
      <point x="383" y="997"/>
      <point x="383" y="910" type="curve" smooth="yes"/>
      <point x="383" y="842"/>
      <point x="370" y="790"/>
      <point x="340" y="751" type="curve"/>
      <point x="292" y="770"/>
      <point x="247" y="779"/>
      <point x="210" y="779" type="curve" smooth="yes"/>
      <point x="126" y="779"/>
      <point x="78" y="734"/>
      <point x="78" y="654" type="curve" smooth="yes"/>
      <point x="78" y="406"/>
      <point x="545" y="-4"/>
      <point x="831" y="-4" type="curve" smooth="yes"/>
      <point x="904" y="-4"/>
      <point x="946" y="23"/>
      <point x="963" y="86" type="curve"/>
      <point x="650" y="131"/>
      <point x="416" y="272"/>
      <point x="258" y="489" type="curve"/>
      <point x="455" y="544"/>
      <point x="517" y="687"/>
      <point x="517" y="836" type="curve" smooth="yes"/>
      <point x="517" y="953"/>
      <point x="478" y="1074"/>
      <point x="426" y="1188" type="curve"/>
      <point x="432" y="1197" type="line"/>
      <point x="1136" y="1197" type="line"/>
      <point x="1142" y="1206" type="line"/>
    </contour>
    <contour>
      <point x="753" y="986"/>
      <point x="638" y="872"/>
      <point x="638" y="716" type="curve" smooth="yes"/>
      <point x="638" y="501"/>
      <point x="857" y="316"/>
      <point x="1045" y="316" type="curve" smooth="yes"/>
      <point x="1140" y="316"/>
      <point x="1229" y="363"/>
      <point x="1302" y="474" type="curve"/>
      <point x="1218" y="610" type="line"/>
      <point x="1162" y="489"/>
      <point x="1076" y="438"/>
      <point x="983" y="438" type="curve" smooth="yes"/>
      <point x="863" y="438"/>
      <point x="778" y="524"/>
      <point x="778" y="644" type="curve" smooth="yes"/>
      <point x="778" y="759"/>
      <point x="855" y="850"/>
      <point x="978" y="850" type="curve" smooth="yes"/>
      <point x="1070" y="850"/>
      <point x="1160" y="799"/>
      <point x="1209" y="699" type="curve"/>
      <point x="1250" y="773" type="line"/>
      <point x="1171" y="905"/>
      <point x="1043" y="986"/>
      <point x="910" y="986" type="curve" smooth="yes"/>
    </contour>
  </outline>
</glyph>
<glyph name="khadeva_viramadeva_radeva" format="1">
  <advance width="1566"/>
  <outline>
    <contour>
      <point x="1566" y="1330" type="line"/>
      <point x="-50" y="1330" type="line"/>
      <point x="-56" y="1321" type="line"/>
      <point x="0" y="1197" type="line"/>
      <point x="313" y="1197" type="line"/>
      <point x="363" y="1094"/>
      <point x="383" y="994"/>
      <point x="383" y="910" type="curve" smooth="yes"/>
      <point x="383" y="845"/>
      <point x="371" y="791"/>
      <point x="340" y="751" type="curve"/>
      <point x="295" y="769"/>
      <point x="250" y="779"/>
      <point x="210" y="779" type="curve" smooth="yes"/>
      <point x="126" y="779"/>
      <point x="78" y="734"/>
      <point x="78" y="654" type="curve" smooth="yes"/>
      <point x="78" y="458.937"/>
      <point x="367.458" y="187.078"/>
      <point x="603.096" y="114.444" type="curve"/>
      <point x="472" y="22" type="line"/>
      <point x="475" y="10" type="line"/>
      <point x="595" y="-84" type="line"/>
      <point x="1186.2" y="356.219" type="line"/>
      <point x="1188" y="357" type="line"/>
      <point x="1198" y="352" type="line"/>
      <point x="1198" y="18.9999" type="line"/>
      <point x="1349" y="-19.0001" type="line"/>
      <point x="1358" y="-12.0001" type="line"/>
      <point x="1358" y="1197" type="line"/>
      <point x="1616" y="1197" type="line"/>
      <point x="1622" y="1206" type="line"/>
    </contour>
    <contour>
      <point x="455" y="544"/>
      <point x="517" y="687"/>
      <point x="517" y="836" type="curve" smooth="yes"/>
      <point x="517" y="953"/>
      <point x="478" y="1074"/>
      <point x="426" y="1188" type="curve"/>
      <point x="432" y="1197" type="line"/>
      <point x="1198" y="1197" type="line"/>
      <point x="1198" y="859" type="line"/>
      <point x="1188" y="855" type="line"/>
      <point x="1115" y="941"/>
      <point x="1018" y="986"/>
      <point x="915" y="986" type="curve" smooth="yes"/>
      <point x="751" y="986"/>
      <point x="638" y="873"/>
      <point x="638" y="718" type="curve" smooth="yes"/>
      <point x="638" y="546.631"/>
      <point x="775.219" y="396.171"/>
      <point x="929.757" y="344.793" type="curve"/>
      <point x="732.355" y="205.592" type="line"/>
      <point x="526.165" y="251.955"/>
      <point x="372.402" y="346.424"/>
      <point x="258" y="489" type="curve"/>
    </contour>
    <contour>
      <point x="880" y="438"/>
      <point x="778" y="514"/>
      <point x="778" y="645" type="curve" smooth="yes"/>
      <point x="778" y="758"/>
      <point x="855" y="850"/>
      <point x="979" y="850" type="curve" smooth="yes"/>
      <point x="1110" y="850"/>
      <point x="1198" y="748"/>
      <point x="1198" y="651" type="curve" smooth="yes"/>
      <point x="1198" y="541" type="line"/>
      <point x="1095" y="465"/>
      <point x="1057" y="438"/>
      <point x="980" y="438" type="curve" smooth="yes"/>
    </contour>
  </outline>
</glyph>
<glyph name="ladeva_viramadeva" format="1">
  <advance width="838"/>
  <outline>
    <contour>
      <point x="881" y="1330" type="line"/>
      <point x="-80" y="1330" type="line"/>
      <point x="-86" y="1321" type="line"/>
      <point x="-30" y="1197" type="line"/>
      <point x="931" y="1197" type="line"/>
      <point x="937" y="1206" type="line"/>
    </contour>
    <contour>
      <point x="183" y="946"/>
      <point x="81" y="830"/>
      <point x="81" y="655" type="curve" smooth="yes"/>
      <point x="81" y="338"/>
      <point x="415" y="-18"/>
      <point x="542" y="-18" type="curve" smooth="yes"/>
      <point x="568" y="-18"/>
      <point x="591" y="-3"/>
      <point x="601" y="24" type="curve"/>
      <point x="372" y="189"/>
      <point x="238" y="423"/>
      <point x="238" y="591" type="curve" smooth="yes"/>
      <point x="238" y="713"/>
      <point x="309" y="798"/>
      <point x="414" y="798" type="curve" smooth="yes"/>
      <point x="478" y="798"/>
      <point x="542" y="767"/>
      <point x="609" y="698" type="curve"/>
      <point x="576" y="649"/>
      <point x="551" y="594"/>
      <point x="533" y="532" type="curve"/>
      <point x="675" y="437" type="line"/>
      <point x="686" y="441" type="line"/>
      <point x="749" y="676"/>
      <point x="880" y="794"/>
      <point x="1138" y="810" type="curve"/>
      <point x="1035" y="929" type="line"/>
      <point x="884" y="921"/>
      <point x="757" y="865"/>
      <point x="666" y="769" type="curve"/>
      <point x="551" y="901"/>
      <point x="452" y="946"/>
      <point x="349" y="946" type="curve" smooth="yes"/>
    </contour>
  </outline>
</glyph>
<glyph name="madeva_viramadeva" format="1">
  <advance width="650"/>
  <outline>
    <contour>
      <point x="686" y="1330" type="line"/>
      <point x="-50" y="1330" type="line"/>
      <point x="-56" y="1321" type="line"/>
      <point x="0" y="1197" type="line"/>
      <point x="200" y="1197" type="line"/>
      <point x="200" y="652" type="line"/>
      <point x="84" y="647"/>
      <point x="55" y="615"/>
      <point x="55" y="547" type="curve" smooth="yes"/>
      <point x="55" y="469"/>
      <point x="227" y="284"/>
      <point x="295" y="284" type="curve" smooth="yes"/>
      <point x="335" y="284"/>
      <point x="358" y="307"/>
      <point x="358" y="363" type="curve" smooth="yes"/>
      <point x="358" y="508" type="line"/>
      <point x="950" y="508" type="line"/>
      <point x="890" y="653" type="line"/>
      <point x="358" y="653" type="line"/>
      <point x="358" y="1197" type="line"/>
      <point x="736" y="1197" type="line"/>
      <point x="742" y="1206" type="line"/>
    </contour>
  </outline>
</glyph>
<glyph name="madeva_viramadeva_radeva" format="1">
  <advance width="1186"/>
  <outline>
    <contour>
      <point x="1186" y="1330" type="line"/>
      <point x="-50" y="1330" type="line"/>
      <point x="-56" y="1321" type="line"/>
      <point x="0" y="1197" type="line"/>
      <point x="200" y="1197" type="line"/>
      <point x="200" y="682" type="line"/>
      <point x="89" y="679"/>
      <point x="55" y="639"/>
      <point x="55" y="592" type="curve" smooth="yes"/>
      <point x="55" y="485"/>
      <point x="227" y="314"/>
      <point x="303" y="314" type="curve" smooth="yes"/>
      <point x="331" y="314"/>
      <point x="358" y="337"/>
      <point x="358" y="393" type="curve" smooth="yes"/>
      <point x="358" y="538" type="line"/>
      <point x="783.614" y="538" type="line"/>
      <point x="244" y="82" type="line"/>
      <point x="247" y="70" type="line"/>
      <point x="367" y="-24" type="line"/>
      <point x="819" y="373.948" type="line"/>
      <point x="819" y="19" type="line"/>
      <point x="970" y="-19" type="line"/>
      <point x="979" y="-12" type="line"/>
      <point x="979" y="1197" type="line"/>
      <point x="1236" y="1197" type="line"/>
      <point x="1242" y="1206" type="line"/>
    </contour>
    <contour>
      <point x="358" y="1197" type="line"/>
      <point x="819" y="1197" type="line"/>
      <point x="819" y="683" type="line"/>
      <point x="358" y="683" type="line"/>
    </contour>
  </outline>
</glyph>
<glyph name="nadeva_viramadeva_radeva" format="1">
  <advance width="1121"/>
  <outline>
    <contour>
      <point x="1121" y="1330" type="line"/>
      <point x="-50" y="1330" type="line"/>
      <point x="-56" y="1321" type="line"/>
      <point x="0" y="1197" type="line"/>
      <point x="754" y="1197" type="line"/>
      <point x="754" y="853" type="line"/>
      <point x="236" y="853" type="line" smooth="yes"/>
      <point x="135" y="853"/>
      <point x="55" y="837"/>
      <point x="55" y="763" type="curve" smooth="yes"/>
      <point x="55" y="654"/>
      <point x="227" y="484"/>
      <point x="303" y="484" type="curve" smooth="yes"/>
      <point x="331" y="484"/>
      <point x="358" y="507"/>
      <point x="358" y="563" type="curve" smooth="yes"/>
      <point x="358" y="708" type="line"/>
      <point x="754" y="708" type="line"/>
      <point x="754" y="611.101" type="line"/>
      <point x="144" y="82" type="line"/>
      <point x="147" y="70" type="line"/>
      <point x="267" y="-24" type="line"/>
      <point x="754" y="415.664" type="line"/>
      <point x="754" y="19" type="line"/>
      <point x="905" y="-19" type="line"/>
      <point x="914" y="-12" type="line"/>
      <point x="914" y="1197" type="line"/>
      <point x="1171" y="1197" type="line"/>
      <point x="1177" y="1206" type="line"/>
    </contour>
  </outline>
</glyph>
<glyph name="nnadeva_viramadeva" format="1">
  <advance width="971"/>
  <outline>
    <contour>
      <point x="971" y="1330" type="line"/>
      <point x="-50" y="1330" type="line"/>
      <point x="-56" y="1321" type="line"/>
      <point x="0" y="1197" type="line"/>
      <point x="129" y="1197" type="line"/>
      <point x="129" y="755" type="line" smooth="yes"/>
      <point x="129" y="537"/>
      <point x="330" y="351"/>
      <point x="530" y="351" type="curve" smooth="yes"/>
      <point x="688" y="351"/>
      <point x="809" y="468"/>
      <point x="809" y="631" type="curve" smooth="yes"/>
      <point x="809" y="1197" type="line"/>
      <point x="1021" y="1197" type="line"/>
      <point x="1027" y="1206" type="line"/>
    </contour>
    <contour>
      <point x="654" y="1197" type="line"/>
      <point x="654" y="700" type="line" smooth="yes"/>
      <point x="654" y="555"/>
      <point x="569" y="473"/>
      <point x="462" y="473" type="curve" smooth="yes"/>
      <point x="366" y="473"/>
      <point x="289" y="539"/>
      <point x="289" y="670" type="curve" smooth="yes"/>
      <point x="289" y="1197" type="line"/>
    </contour>
  </outline>
</glyph>
<glyph name="nyadeva_viramadeva" format="1">
  <advance width="977"/>
  <outline>
    <contour>
      <point x="1031" y="1330" type="line"/>
      <point x="-60" y="1330" type="line"/>
      <point x="-66" y="1321" type="line"/>
      <point x="-10" y="1197" type="line"/>
      <point x="1081" y="1197" type="line"/>
      <point x="1087" y="1206" type="line"/>
    </contour>
    <contour>
      <point x="427" y="994"/>
      <point x="351" y="915"/>
      <point x="351" y="840" type="curve" smooth="yes"/>
      <point x="351" y="789"/>
      <point x="384" y="740"/>
      <point x="452" y="723" type="curve"/>
      <point x="502" y="813"/>
      <point x="564" y="842"/>
      <point x="635" y="842" type="curve" smooth="yes"/>
      <point x="748" y="842"/>
      <point x="815" y="768"/>
      <point x="815" y="637" type="curve" smooth="yes"/>
      <point x="815" y="485"/>
      <point x="725" y="357"/>
      <point x="549" y="357" type="curve" smooth="yes"/>
      <point x="360" y="357"/>
      <point x="235" y="503"/>
      <point x="173" y="830" type="curve"/>
      <point x="123" y="830"/>
      <point x="107" y="798"/>
      <point x="107" y="746" type="curve" smooth="yes"/>
      <point x="107" y="582"/>
      <point x="264" y="195"/>
      <point x="598" y="195" type="curve" smooth="yes"/>
      <point x="814" y="195"/>
      <point x="937" y="347"/>
      <point x="942" y="561" type="curve"/>
      <point x="952" y="565" type="line"/>
      <point x="1001" y="514"/>
      <point x="1055" y="483"/>
      <point x="1112" y="483" type="curve" smooth="yes"/>
      <point x="1195" y="483"/>
      <point x="1284" y="542"/>
      <point x="1324" y="669" type="curve"/>
      <point x="1182" y="757" type="line"/>
      <point x="1159" y="679"/>
      <point x="1102" y="646"/>
      <point x="1042" y="646" type="curve" smooth="yes"/>
      <point x="1000" y="646"/>
      <point x="959" y="663"/>
      <point x="911" y="714" type="curve"/>
      <point x="849" y="874"/>
      <point x="701" y="994"/>
      <point x="550" y="994" type="curve" smooth="yes"/>
    </contour>
  </outline>
</glyph>
<glyph name="osign_ra_virama_anusvara" format="1">
  <advance width="573"/>
  <outline>
    <contour>
      <point x="376" y="1636"/>
      <point x="332" y="1592"/>
      <point x="332" y="1539" type="curve" smooth="yes"/>
      <point x="332" y="1485"/>
      <point x="376" y="1441"/>
      <point x="429" y="1441" type="curve" smooth="yes"/>
      <point x="483" y="1441"/>
      <point x="527" y="1485"/>
      <point x="527" y="1539" type="curve" smooth="yes"/>
      <point x="527" y="1592"/>
      <point x="483" y="1636"/>
      <point x="429" y="1636" type="curve" smooth="yes"/>
    </contour>
    <component base="aasigndeva"/>
    <component base="esign_ra_virama.alt1" xOffset="566"/>
  </outline>
</glyph>
<glyph name="padeva_viramadeva_radeva" format="1">
  <advance width="1132"/>
  <outline>
    <contour>
      <point x="1132" y="1330" type="line"/>
      <point x="-50" y="1330" type="line"/>
      <point x="-56" y="1321" type="line"/>
      <point x="0" y="1197" type="line"/>
      <point x="149" y="1197" type="line"/>
      <point x="149" y="755" type="line" smooth="yes"/>
      <point x="149" y="570.81"/>
      <point x="284.107" y="410.671"/>
      <point x="447.233" y="364.416" type="curve"/>
      <point x="81" y="81.9999" type="line"/>
      <point x="84" y="69.9999" type="line"/>
      <point x="204" y="-24.0001" type="line"/>
      <point x="755.065" y="415.468" type="line"/>
      <point x="764" y="411" type="line"/>
      <point x="764" y="18.9999" type="line"/>
      <point x="915" y="-19.0001" type="line"/>
      <point x="924" y="-12.0001" type="line"/>
      <point x="924" y="1197" type="line"/>
      <point x="1182" y="1197" type="line"/>
      <point x="1188" y="1206" type="line"/>
    </contour>
    <contour>
      <point x="309" y="1197" type="line"/>
      <point x="764" y="1197" type="line"/>
      <point x="764" y="617" type="line"/>
      <point x="643" y="509"/>
      <point x="560" y="473"/>
      <point x="482" y="473" type="curve" smooth="yes"/>
      <point x="375" y="473"/>
      <point x="309" y="541"/>
      <point x="309" y="670" type="curve" smooth="yes"/>
    </contour>
  </outline>
</glyph>
<glyph name="phadeva_viramadeva" format="1">
  <advance width="1061"/>
  <outline>
    <contour>
      <point x="1080" y="1330" type="line"/>
      <point x="-50" y="1330" type="line"/>
      <point x="-56" y="1321" type="line"/>
      <point x="0" y="1197" type="line"/>
      <point x="129" y="1197" type="line"/>
      <point x="129" y="745" type="line" smooth="yes"/>
      <point x="129" y="536"/>
      <point x="305" y="361"/>
      <point x="492" y="361" type="curve" smooth="yes"/>
      <point x="552" y="361"/>
      <point x="619" y="379"/>
      <point x="674" y="413" type="curve"/>
      <point x="684" y="407" type="line"/>
      <point x="684" y="19" type="line"/>
      <point x="835" y="-19" type="line"/>
      <point x="844" y="-12" type="line"/>
      <point x="844" y="508" type="line" smooth="yes"/>
      <point x="844" y="678"/>
      <point x="995" y="795"/>
      <point x="1117" y="795" type="curve" smooth="yes"/>
      <point x="1203" y="795"/>
      <point x="1274" y="737"/>
      <point x="1314" y="626" type="curve"/>
      <point x="1381" y="661" type="line"/>
      <point x="1336" y="815"/>
      <point x="1208" y="925"/>
      <point x="1065" y="925" type="curve" smooth="yes"/>
      <point x="985" y="925"/>
      <point x="903" y="891"/>
      <point x="853" y="839" type="curve"/>
      <point x="844" y="844" type="line"/>
      <point x="844" y="1197" type="line"/>
      <point x="1130" y="1197" type="line"/>
      <point x="1136" y="1206" type="line"/>
    </contour>
    <contour>
      <point x="684" y="1197" type="line"/>
      <point x="684" y="720" type="line" smooth="yes"/>
      <point x="684" y="588"/>
      <point x="558" y="483"/>
      <point x="435" y="483" type="curve" smooth="yes"/>
      <point x="342" y="483"/>
      <point x="289" y="543"/>
      <point x="289" y="660" type="curve" smooth="yes"/>
      <point x="289" y="1197" type="line"/>
    </contour>
  </outline>
</glyph>
<glyph name="phadeva_viramadeva_radeva" format="1">
  <advance width="1500"/>
  <outline>
    <contour>
      <point x="1550" y="1197" type="line"/>
      <point x="1556" y="1206" type="line"/>
      <point x="1500" y="1330" type="line"/>
      <point x="-50" y="1330" type="line"/>
      <point x="-56" y="1321" type="line"/>
      <point x="0" y="1197" type="line"/>
      <point x="149" y="1197" type="line"/>
      <point x="149" y="745" type="line" smooth="yes"/>
      <point x="149" y="579.005"/>
      <point x="260.653" y="434.459"/>
      <point x="398.286" y="382.001" type="curve"/>
      <point x="31" y="82.0006" type="line"/>
      <point x="34" y="70.0006" type="line"/>
      <point x="154" y="-23.9994" type="line"/>
      <point x="694.067" y="426.96" type="line"/>
      <point x="704" y="421.001" type="line"/>
      <point x="704" y="19.0006" type="line"/>
      <point x="855" y="-18.9994" type="line"/>
      <point x="864" y="-11.9994" type="line"/>
      <point x="864" y="518.001" type="line" smooth="yes"/>
      <point x="864" y="694.001"/>
      <point x="1015" y="815.001"/>
      <point x="1154" y="815.001" type="curve" smooth="yes"/>
      <point x="1237" y="815.001"/>
      <point x="1291" y="772.001"/>
      <point x="1291" y="665.001" type="curve" smooth="yes"/>
      <point x="1291" y="530.001"/>
      <point x="1205" y="366.001"/>
      <point x="1077" y="293.001" type="curve"/>
      <point x="1119" y="242.001"/>
      <point x="1175" y="220.001"/>
      <point x="1215" y="220.001" type="curve" smooth="yes"/>
      <point x="1316" y="220.001"/>
      <point x="1416" y="360.001"/>
      <point x="1416" y="559.001" type="curve" smooth="yes"/>
      <point x="1416" y="812.001"/>
      <point x="1255" y="942.001"/>
      <point x="1085" y="942.001" type="curve" smooth="yes"/>
      <point x="1003" y="942.001"/>
      <point x="927" y="911.001"/>
      <point x="874" y="855.001" type="curve"/>
      <point x="864" y="859.001" type="line"/>
      <point x="864" y="1197" type="line"/>
    </contour>
    <contour>
      <point x="362" y="483.001"/>
      <point x="309" y="543.001"/>
      <point x="309" y="660.001" type="curve" smooth="yes"/>
      <point x="309" y="1197" type="line"/>
      <point x="704" y="1197" type="line"/>
      <point x="704" y="634.001" type="line"/>
      <point x="654.219" y="591.049" type="line"/>
      <point x="618.475" y="561.853" type="line" smooth="yes"/>
      <point x="546.522" y="505.055"/>
      <point x="501.037" y="483.001"/>
      <point x="455" y="483.001" type="curve" smooth="yes"/>
    </contour>
  </outline>
</glyph>
<glyph name="radeva_viramadeva_anusvaradeva" format="1">
  <advance width="0"/>
  <outline>
    <contour>
      <point x="-220" y="1636"/>
      <point x="-264" y="1592"/>
      <point x="-264" y="1539" type="curve" smooth="yes"/>
      <point x="-264" y="1485"/>
      <point x="-220" y="1441"/>
      <point x="-167" y="1441" type="curve" smooth="yes"/>
      <point x="-113" y="1441"/>
      <point x="-69" y="1485"/>
      <point x="-69" y="1539" type="curve" smooth="yes"/>
      <point x="-69" y="1592"/>
      <point x="-113" y="1636"/>
      <point x="-167" y="1636" type="curve" smooth="yes"/>
    </contour>
    <component base="radeva_viramadeva"/>
    <contour>
      <point x="-112" y="665" type="move" name="_class0"/>
    </contour>
  </outline>
</glyph>
<glyph name="shadeva_viramadeva_radeva" format="1">
  <advance width="1479"/>
  <outline>
    <contour>
      <point x="1479" y="1330" type="line"/>
      <point x="869" y="1330" type="line"/>
      <point x="863" y="1321" type="line"/>
      <point x="919" y="1197" type="line"/>
      <point x="1112" y="1197" type="line"/>
      <point x="1112" y="779.808" type="line"/>
      <point x="1048.38" y="708.483"/>
      <point x="967.435" y="676"/>
      <point x="872" y="676" type="curve" smooth="yes"/>
      <point x="792.381" y="676"/>
      <point x="711.584" y="698.378"/>
      <point x="639.795" y="735.979" type="curve"/>
      <point x="770.107" y="846.151"/>
      <point x="828" y="945.113"/>
      <point x="828" y="1045" type="curve" smooth="yes"/>
      <point x="828" y="1208"/>
      <point x="675" y="1387"/>
      <point x="486" y="1387" type="curve" smooth="yes"/>
      <point x="341" y="1387"/>
      <point x="233" y="1282"/>
      <point x="233" y="1125" type="curve" smooth="yes"/>
      <point x="233" y="1004.63"/>
      <point x="296.756" y="880.074"/>
      <point x="403.463" y="775.851" type="curve"/>
      <point x="314.073" y="713.422"/>
      <point x="200.683" y="645.138"/>
      <point x="60" y="569" type="curve"/>
      <point x="179" y="443" type="line"/>
      <point x="330.006" y="523.253"/>
      <point x="451.72" y="596.209"/>
      <point x="547.129" y="664.365" type="curve"/>
      <point x="631.12" y="612.568"/>
      <point x="728.172" y="572.001"/>
      <point x="833.504" y="548.301" type="curve"/>
      <point x="699.908" y="446.655"/>
      <point x="554.344" y="330.886"/>
      <point x="407" y="208" type="curve"/>
      <point x="546" y="78" type="line"/>
      <point x="760.376" y="270.559"/>
      <point x="945.06" y="427.127"/>
      <point x="1112" y="550.265" type="curve"/>
      <point x="1112" y="19" type="line"/>
      <point x="1263" y="-19" type="line"/>
      <point x="1272" y="-12" type="line"/>
      <point x="1272" y="1197" type="line"/>
      <point x="1529" y="1197" type="line"/>
      <point x="1535" y="1206" type="line"/>
    </contour>
    <contour>
      <point x="398" y="1181"/>
      <point x="472" y="1258"/>
      <point x="554" y="1258" type="curve" smooth="yes"/>
      <point x="616" y="1258"/>
      <point x="680" y="1214"/>
      <point x="680" y="1123" type="curve" smooth="yes"/>
      <point x="680" y="1039.16"/>
      <point x="625.128" y="950.511"/>
      <point x="495.934" y="845.232" type="curve"/>
      <point x="435.838" y="910.493"/>
      <point x="398" y="988.73"/>
      <point x="398" y="1069" type="curve"/>
    </contour>
  </outline>
</glyph>
<glyph name="ssadeva_viramadeva" format="1">
  <advance width="595"/>
  <outline>
    <contour>
      <point x="764" y="720" type="line"/>
      <point x="753.091" y="688.181"/>
      <point x="739.701" y="659.668"/>
      <point x="723.833" y="633.709" type="curve"/>
      <point x="314" y="1197" type="line"/>
      <point x="661" y="1197" type="line"/>
      <point x="667" y="1206" type="line"/>
      <point x="611" y="1330" type="line"/>
      <point x="-49.9999" y="1330" type="line"/>
      <point x="-55.9999" y="1321" type="line"/>
      <point x="0.000100183" y="1197" type="line"/>
      <point x="129" y="1197" type="line"/>
      <point x="129" y="755" type="line" smooth="yes"/>
      <point x="129" y="536"/>
      <point x="320" y="351"/>
      <point x="522" y="351" type="curve" smooth="yes"/>
      <point x="697" y="351"/>
      <point x="825" y="464"/>
      <point x="902" y="644" type="curve"/>
    </contour>
    <contour>
      <point x="355" y="473"/>
      <point x="289" y="540"/>
      <point x="289" y="670" type="curve" smooth="yes"/>
      <point x="289" y="1063" type="line"/>
      <point x="658.669" y="554.14" type="line"/>
      <point x="600.992" y="500.791"/>
      <point x="531.157" y="473"/>
      <point x="462" y="473" type="curve" smooth="yes"/>
    </contour>
  </outline>
</glyph>
<glyph name="ssadeva_viramadeva_radeva" format="1">
  <advance width="1132"/>
  <outline>
    <contour>
      <point x="281" y="1243" type="line"/>
      <point x="180" y="1213" type="line"/>
      <point x="699" y="543" type="line"/>
      <point x="800" y="573" type="line"/>
    </contour>
    <component base="padeva_viramadeva_radeva"/>
  </outline>
</glyph>
<glyph name="tadeva_viramadeva" format="1">
  <advance width="705"/>
  <outline>
    <contour>
      <point x="741" y="1330" type="line"/>
      <point x="-50" y="1330" type="line"/>
      <point x="-56" y="1321" type="line"/>
      <point x="0" y="1197" type="line"/>
      <point x="791" y="1197" type="line"/>
      <point x="797" y="1206" type="line"/>
    </contour>
    <contour>
      <point x="945" y="923" type="line"/>
      <point x="416" y="923" type="line" smooth="yes"/>
      <point x="230" y="923"/>
      <point x="136" y="808"/>
      <point x="136" y="629" type="curve" smooth="yes"/>
      <point x="136" y="317"/>
      <point x="423" y="-18"/>
      <point x="530" y="-18" type="curve" smooth="yes"/>
      <point x="551" y="-18"/>
      <point x="573" y="-5"/>
      <point x="583" y="20" type="curve"/>
      <point x="398" y="179"/>
      <point x="285" y="392"/>
      <point x="285" y="564" type="curve" smooth="yes"/>
      <point x="285" y="683"/>
      <point x="339" y="778"/>
      <point x="488" y="778" type="curve" smooth="yes"/>
      <point x="1005" y="778" type="line"/>
    </contour>
  </outline>
</glyph>
<glyph name="tadeva_viramadeva_tadeva" format="1">
  <advance width="1471"/>
  <outline>
    <contour>
      <point x="1471" y="1330" type="line"/>
      <point x="-50" y="1330" type="line"/>
      <point x="-56" y="1321" type="line"/>
      <point x="0" y="1197" type="line"/>
      <point x="1104" y="1197" type="line"/>
      <point x="1104" y="923" type="line"/>
      <point x="98" y="923" type="line"/>
      <point x="92" y="914" type="line"/>
      <point x="153" y="780" type="line"/>
      <point x="395.034" y="780" type="line"/>
      <point x="375.7" y="737.398"/>
      <point x="366" y="686.501"/>
      <point x="366" y="629" type="curve" smooth="yes"/>
      <point x="366" y="317"/>
      <point x="653" y="-18"/>
      <point x="760" y="-18" type="curve" smooth="yes"/>
      <point x="781" y="-18"/>
      <point x="803" y="-5"/>
      <point x="813" y="20" type="curve"/>
      <point x="628" y="179"/>
      <point x="515" y="392"/>
      <point x="515" y="564" type="curve" smooth="yes"/>
      <point x="515" y="683"/>
      <point x="569" y="778"/>
      <point x="718" y="778" type="curve" smooth="yes"/>
      <point x="1104" y="778" type="line"/>
      <point x="1104" y="19" type="line"/>
      <point x="1255" y="-19" type="line"/>
      <point x="1264" y="-12" type="line"/>
      <point x="1264" y="1197" type="line"/>
      <point x="1521" y="1197" type="line"/>
      <point x="1527" y="1206" type="line"/>
    </contour>
  </outline>
</glyph>
<glyph name="thadeva_viramadeva_radeva" format="1">
  <advance width="1341"/>
  <outline>
    <contour>
      <point x="1341" y="1330" type="line"/>
      <point x="730" y="1330" type="line"/>
      <point x="724" y="1321" type="line"/>
      <point x="780" y="1197" type="line"/>
      <point x="974" y="1197" type="line"/>
      <point x="974" y="580" type="line"/>
      <point x="865" y="498"/>
      <point x="765" y="447"/>
      <point x="665" y="447" type="curve" smooth="yes"/>
      <point x="560" y="447"/>
      <point x="427" y="489"/>
      <point x="333" y="609" type="curve"/>
      <point x="561" y="686"/>
      <point x="685" y="810"/>
      <point x="685" y="985" type="curve" smooth="yes"/>
      <point x="685" y="1203"/>
      <point x="492" y="1387"/>
      <point x="305" y="1387" type="curve" smooth="yes"/>
      <point x="183" y="1387"/>
      <point x="78" y="1309"/>
      <point x="78" y="1188" type="curve" smooth="yes"/>
      <point x="78" y="1050"/>
      <point x="214" y="926"/>
      <point x="335" y="926" type="curve" smooth="yes"/>
      <point x="366" y="926"/>
      <point x="385" y="934"/>
      <point x="399" y="942" type="curve"/>
      <point x="275" y="1006"/>
      <point x="228" y="1067"/>
      <point x="228" y="1136" type="curve" smooth="yes"/>
      <point x="228" y="1214"/>
      <point x="288" y="1260"/>
      <point x="373" y="1260" type="curve" smooth="yes"/>
      <point x="475" y="1260"/>
      <point x="545" y="1194"/>
      <point x="545" y="1072" type="curve" smooth="yes"/>
      <point x="545" y="916"/>
      <point x="432" y="806"/>
      <point x="150" y="730" type="curve"/>
      <point x="145" y="720" type="line"/>
      <point x="279.356" y="489.896"/>
      <point x="432.196" y="365.325"/>
      <point x="583.261" y="320.506" type="curve"/>
      <point x="213" y="81.9999" type="line"/>
      <point x="216" y="69.9999" type="line"/>
      <point x="336" y="-24.0001" type="line"/>
      <point x="964.758" y="380.621" type="line"/>
      <point x="974" y="376" type="line"/>
      <point x="974" y="18.9999" type="line"/>
      <point x="1125" y="-19.0001" type="line"/>
      <point x="1134" y="-12.0001" type="line"/>
      <point x="1134" y="1197" type="line"/>
      <point x="1391" y="1197" type="line"/>
      <point x="1397" y="1206" type="line"/>
    </contour>
  </outline>
</glyph>
<glyph name="vadeva_viramadeva" format="1">
  <advance width="611"/>
  <outline>
    <contour>
      <point x="660" y="1330" type="line"/>
      <point x="-50" y="1330" type="line"/>
      <point x="-56" y="1321" type="line"/>
      <point x="0" y="1197" type="line"/>
      <point x="710" y="1197" type="line"/>
      <point x="716" y="1206" type="line"/>
    </contour>
    <contour>
      <point x="235" y="1007"/>
      <point x="79" y="860"/>
      <point x="79" y="667" type="curve" smooth="yes"/>
      <point x="79" y="422"/>
      <point x="331" y="219"/>
      <point x="563" y="219" type="curve" smooth="yes"/>
      <point x="721" y="219"/>
      <point x="866" y="314"/>
      <point x="938" y="523" type="curve"/>
      <point x="813" y="598" type="line"/>
      <point x="761" y="447"/>
      <point x="637" y="358"/>
      <point x="490" y="358" type="curve" smooth="yes"/>
      <point x="336" y="358"/>
      <point x="228" y="455"/>
      <point x="228" y="597" type="curve" smooth="yes"/>
      <point x="228" y="746"/>
      <point x="346" y="863"/>
      <point x="520" y="863" type="curve" smooth="yes"/>
      <point x="646" y="863"/>
      <point x="751" y="802"/>
      <point x="827" y="649" type="curve"/>
      <point x="906" y="693" type="line"/>
      <point x="811" y="889"/>
      <point x="646" y="1007"/>
      <point x="452" y="1007" type="curve" smooth="yes"/>
    </contour>
  </outline>
</glyph>
<glyph name="vadeva_viramadeva_radeva" format="1">
  <advance width="1160"/>
  <outline>
    <contour>
      <point x="1160" y="1330" type="line"/>
      <point x="-50" y="1330" type="line"/>
      <point x="-56" y="1321" type="line"/>
      <point x="0" y="1197" type="line"/>
      <point x="793" y="1197" type="line"/>
      <point x="793" y="895" type="line"/>
      <point x="783" y="891" type="line"/>
      <point x="689" y="987"/>
      <point x="559" y="1027"/>
      <point x="447" y="1027" type="curve" smooth="yes"/>
      <point x="236" y="1027"/>
      <point x="79" y="884"/>
      <point x="79" y="695" type="curve" smooth="yes"/>
      <point x="79" y="501.324"/>
      <point x="245.216" y="334.136"/>
      <point x="423.526" y="278.582" type="curve"/>
      <point x="139" y="82" type="line"/>
      <point x="142" y="70" type="line"/>
      <point x="262" y="-24" type="line"/>
      <point x="744.359" y="313.959" type="line"/>
      <point x="757.643" y="321.994"/>
      <point x="770.575" y="330.991"/>
      <point x="783" y="341" type="curve"/>
      <point x="793" y="337" type="line"/>
      <point x="793" y="19.0001" type="line"/>
      <point x="944" y="-18.9999" type="line"/>
      <point x="953" y="-11.9999" type="line"/>
      <point x="953" y="1197" type="line"/>
      <point x="1210" y="1197" type="line"/>
      <point x="1216" y="1206" type="line"/>
    </contour>
    <contour>
      <point x="228" y="771"/>
      <point x="347" y="883"/>
      <point x="518" y="883" type="curve" smooth="yes"/>
      <point x="675" y="883"/>
      <point x="793" y="789"/>
      <point x="793" y="662" type="curve" smooth="yes"/>
      <point x="793" y="548" type="line"/>
      <point x="665" y="442"/>
      <point x="564" y="398"/>
      <point x="481" y="398" type="curve" smooth="yes"/>
      <point x="330" y="398"/>
      <point x="228" y="493"/>
      <point x="228" y="627" type="curve" smooth="yes"/>
    </contour>
  </outline>
</glyph>
<glyph name="vattudeva_ulowdeva" format="1">
  <advance width="0"/>
  <outline>
    <contour>
      <point x="-127" y="63" type="move" name="_class0"/>
    </contour>
  </outline>
</glyph>
<glyph name="vattudeva_uulowdeva" format="1">
  <advance width="0"/>
  <outline>
    <contour>
      <point x="-127" y="58" type="move" name="_class0"/>
    </contour>
  </outline>
</glyph>
<glyph name="viramadeva_radeva" format="1">
  <advance width="0"/>
  <outline>
    <contour>
      <point x="-135" y="128" type="move" name="_class0"/>
    </contour>
  </outline>
</glyph>
